<?xml version="1.0" encoding="utf-8"?>
<!-- Generator: Adobe Illustrator 26.0.0, SVG Export Plug-In . SVG Version: 6.00 Build 0)  -->
<svg version="1.1"
	 id="svg2" xmlns:cc="http://creativecommons.org/ns#" xmlns:dc="http://purl.org/dc/elements/1.1/" xmlns:mapsvg="http://mapsvg.com" xmlns:rdf="http://www.w3.org/1999/02/22-rdf-syntax-ns#" xmlns:svg="http://www.w3.org/2000/svg"
	 xmlns="http://www.w3.org/2000/svg" xmlns:xlink="http://www.w3.org/1999/xlink" x="0px" y="0px" viewBox="0 0 167.5 142.7"
	 style="enable-background:new 0 0 167.5 142.7;" xml:space="preserve">
<path id="IN-AP" d="M116,53.8L116,53.8L116,53.8L116,53.8z M116.6,53.8l-0.4,2.5l-0.8-1.1l0-0.8L116.6,53.8z M116,53.8l-0.1-0.6
	l-0.3,0.4l-1.3,0.1l-0.1-0.7l-0.9,0.6l1.7,0.8l0,0l0,1l0.5,0.1l0.7,1.5l-7.6,3.8l-4.7,1.9l-3.8-1.1L97,62l-2.7,1.3L91.7,69l0.1,1
	l-2.9,3.1l-0.3,0.5l0.4,0.9l-0.9,0.8l-3,0.4l-0.9-1.5l0.3-0.8l0.4,0l-0.1-0.6L82.2,72l-3.1,0.6l-2.2,1.1l-1.9,1.3l-1.5,1.6L72,81.1
	l-2.1,3.4l-1.1,5l1.4,7.5l1.8,3.1l-1.4,10.1l2.4,6.5l-0.2,3.9l1.7,4.4l-3-5.5l-0.6-0.3l-0.1,1.9l-0.6-0.6l0.4-0.6l-0.4-0.1l-1.2,1.9
	l2.3,2.1l1.6,0l1.6,1.4l0,0l0,1.1l-0.8-0.4l-1-1.9l-1.6,0l-1.7-1.3l-1.6,0.2l-0.1,0.4l0.9,0.2l0.1,0.4l-0.6-0.1l-0.2,0.6l-0.7,0.2
	l0,0.7l-0.6,0.3l0.4,0.7l-0.6,0.8l-1.6,0.7l-1.1,0l-0.4,0.5l-0.5-0.4l-0.7,0.7l1.3,1l-0.8,0.6l-0.5-0.6l-0.7,0.3l0.2-0.6l-0.5,0.1
	l-0.1-1.1l-1.8,0.8l-0.7-0.5l-0.3-0.9l-2.2-0.3l-1.1,0.4l1.1,0.5l-0.3,1.5l0.5-0.4l0.2,0.3l-0.5,0.2l0,0.5l-1.6,0.5l0.1,0.7l-1,0.7
	l-0.8-1l-1,0.1l0,0.7l-0.6,0.4l-0.8,1.7l-1.8-0.1l-1.9-1.3l-1.4,0.2l-0.4,0.7l0.7,0.4l-0.9,0l-0.1-1.4l-2.7,0.9l-0.9-0.2l-0.2,1.1
	l-0.9-0.3l-0.8,0.8l0.7,1.3l-0.4,0l-0.9,3.2l-0.8,0.6l0,1.3l-0.5,0.1l-0.2-0.5l0,0l0,0l0,0l-0.1,0l-0.4,0l-0.1,0.9l-0.6,0l0,1
	l-1.9,0.1l-1.6-0.9l-0.5-0.8l-1.6,0.2l0.8-0.7l-0.1-0.8l0,0l0.4-2l1.3,0l0.9-1.7l0.7,0.7l1.2-0.1l-0.3-1.5l0.7,0.1l-0.1-1.5l1.1-0.5
	l-0.1-0.6l0.5-0.3l-0.4-0.5l1.3-0.8l-0.6-0.7l0.6-0.4l0.2-1.2l-0.5-0.8l-0.7,0.9l-1-1.1l-0.7,0.2l-0.2-0.4l-0.7,0.3l-0.5-0.4
	l0.6-0.3l-0.9-0.5l0.7-4.8l-3.4-0.2l-0.9,0.7l0.2-1.3l-0.7-0.2l-0.1-0.5l-1.6,0.3l-0.5-0.7l0.1-0.5l0.9,0.1l0.1-0.6l-0.5-0.5
	l0.7-0.9l-0.1-1.4l-1.5-1l-0.1,0.7l-1.1-0.2l-0.4,0.9l-0.4,0l0-1.3l0.7-0.3l-0.2-1.2l-1.1,1.2l-0.5-0.7l-1.4-0.1l-0.2,0.6l0.4,1
	l-1.1,0.5l0.1,0.5l-1.4,0.5l-0.1,1.2l-0.3-0.6l-0.7,0.2l0.1-0.5l-0.4,0l-0.8,0.4l0.6,0.4l-0.3,0.2l-0.5-0.3l-0.8,0.6l-0.8-0.6
	l-0.2,1.3l-0.5-0.5l-0.1,0.6l-0.7,0.1l0.2-2.6l-1,0l0.3-0.8l-1.4-0.2l-0.8,0.4l-0.3-0.7l-1.2,0.4l-0.3-1.2l-0.5,0.7l-0.1-0.4
	l-0.5,0.5l0-1.2L8.3,115l0.1,0.9l-0.8,0.2l0.8,0.6l0.1,1.4L7,118l-0.7,0.5l-0.7-0.7l-0.3,0.8l-0.4-0.2l-0.5-1.5l1-1.7l0.5-0.1
	l-0.1-0.6l-2.2-2.1l0.9-0.9l-1-1.3L2.6,110l0.2-0.6l1-0.1l0.1-0.5l1.6,0.4l-0.2,1.6l0.3,1l2,0.2l0.5,1.1l3.5-0.7l0.8,0.9l-0.1,1.9
	l0.9,0l0,0.4l0.7-0.6l-0.4-0.6l0.5-0.7l-1.2,0l0.2-0.8l-1.2-0.3l1.4-1.7l-0.1-0.3l-0.9,0.5l0.1-0.6l0.6-0.1l0.3-0.8l2.3,0.3
	l-0.1-2.6l-0.9,0l-0.3-0.8l-1.2-0.3l-0.2,0.6l0.9,1.8l-0.7,0.4l-0.6-0.8l0.1-0.8l-1.7-0.1l0-1.2l-1,0.4l-1.7-0.6l-0.8,1.1l-0.1,1.6
	l-0.6,0.1l-0.5-0.7l-2.3,0l-0.3-0.7l0.5-0.5l-1.5-1.1l0.1-0.9l0.6-0.5l0.6,0.3l0-1l0.6-0.7l-2.2,0.2l-0.9-1.2l-0.6-0.1L0,99.8
	l0.8-2.9l-0.4-1l1.4-0.5L2.2,92l-0.8,0.3l-1.3-0.4l0.4-1l-0.2-1.2l0.5-0.4l1.7,1.3l2.2,0.4L5,90.5l1,0l-0.1,0.5l0.8,0.1l1.6-2.6
	l-0.5-0.5l0.5-0.1l0-1l-0.8-0.6l0.9-0.8L8.1,85l-0.7-0.1l-0.1-0.8l-1,0.1l-0.7-2.5l-1.2-1.2l0-0.3l1.1,0.1l0.1-2.9L6.7,77l0.7,0.6
	l0.2-0.7l-1.7-1.6l0.4-1.9l-0.9-0.2l0.9-1.5L8,70.7l2.2-0.4l5.5,0.8l0,0l2,0.2l1.1,0.8l1.2-0.2l1.7,0.5l1.9-0.7l2.4,0.8l0.7-0.9
	l0.6,1.3l1,0.4l0.3-0.5l0.8,0l0.3-1.1l1.2-0.6l0.4-2.2l1.2,0l1.9-1.1l3.2,0.5l1.2-0.9l2,1.6l1.3,0.1l1.3-1.4l0-1.5l0.5,0.1l0.2,0.9
	l0.8,0.1l-0.1-1.7l0.4-0.4l2.2-0.9l3,0.6l0.9-0.5l0.1-5.9l0.9-1.2l3.4-0.5l1.5-1l3.2-0.7l2.7-1.5l0.7,0.9l1.1-0.2l0.8,1.3l1.2-0.1
	l1.9-2.3l0.5-1.5l-0.8-0.9l-0.9-0.2l0.4-1l0.8-1.3l1.8-0.4l1-1.3l0.4,0.7l1.3,0.1l0.8,1.2l0.4,1.9l0.8,0.4l0.3,1l0.6-0.8l1.1,0.8
	l0.1,0.6l2.2,0.6l0.9-0.5l-1-0.8l0.2-1l0.5-0.1l-0.1-1.2l-1.9-0.5L78,49.4l-2.7-1.2l0.6-1l-0.5-0.9l0.6-0.5l0.5,1.2l0.5,0.2l0.8-0.7
	l0.3-1.3l1.3-0.7l2,1.1l-0.4,0.7l1.8-0.2l2.2,0.9l0.6-0.6l0.2-2.1l0.9,0l-0.2-1.2l1.8,0.5l1.2-0.7l2.4-0.4l0.4-2l1.8,0l1.2-1.6
	l1,0.7l0.9-0.1l1.6-1.9l0.2-2l0.5-0.7l-0.4-0.4l1.4-2.2l0.1-0.8l4.3-2.3l0.2-0.5l-0.7-0.9l0,0l0.9-0.9l3.2-1.2l1.5-1.4l2.8,0.3
	l0.4,0.7l1.3,0.7l0.5-0.1l0-1.4l0.6-0.3l0.2,0.5l0.5-0.1l0.1-2.2l0.5,0.4l0.2-0.3l-1.2-1.2l0.6-0.4l0.1-1.1l0.7-0.2l0.4-0.7
	l-1.2-0.2l1-1.1l-0.5-0.9l2.4-2.8l0.5,0.8l0.5,0l0.1,1.5l0.5-0.1l-0.4,1.1l1.4,0.5l0.2,0.5l-0.7,0.9l0.1,0.8l1,0.9l0.7-1.3l2.3-1
	l0.5-1.4l-0.4-0.5l0.5-0.4l1,0.7l0.8-0.1l0.2,1l0.9,0.3l1.8-0.7l0.8,0.2l0.1-1.2l-0.4,0.2l-0.5-0.6l1.5-2.1l-1.2-0.2l-0.1-0.4
	l0.6-0.4l-1,0l0.1-1.1l0.8-0.3l1.7-2.6l1.4,0.7l0.1,0.6l0.3-1.1l1,0.2l0.3-0.7l1.6-0.2l0.1-0.7l0.8,0l0.3-0.6l-1.4-1.5l0.7,0.1
	l-0.7-0.7l-0.4,0.9L137,3.7l0.9-0.4l1.3,0.3l1,1.1L140,3.5l0.5,0l0.1-0.5l-0.4-1.1l0.3-0.2l0.4,0.5l0.2-0.3l0.2,0.9l-0.4,0l0,0.3
	l0.8,0.1l0.3-1.5l0.7,0.5l0.5-0.9l-0.2-0.7l0.6-0.7l1.5,3l0.5,0.1l-0.4,0.6l0.8,1.5l0.7,0.2L146.1,4l1-0.7l1.7,4.2l1.5,0.5l1.8-0.1
	l1.1,1.3l0.9-0.1l0.6-0.6l3.8-0.4l0.1-1.7l0.6,0.3l0.2-0.4l-0.4-0.4l0.8,0.1l-0.5-0.4l0.7,0.2l0.7-0.6l-0.3-0.5l0.5-0.6l-0.5-1
	l1.2,0.7l0.4-0.9l1.6-1l0.5,1.2l0.5-0.9l0.9,0.1l0-0.6l-0.7,0.1l-0.6-1.1l1.5,0l0.1-0.8l0.8,0.1l-0.2,0.7l0.5,0.5l0,0l0.9,0.5
	l-3.7,4.3l-0.6,1.9l-1.8,1.8l-2.3,3.5l-4.8,4.5l0,0.9l-8.5,4.3l-3.1,2.1l-0.9,1.5l-2.5,2.3v0.7l-1.4,1.9l-2.7,3l-12.7,6.5l-5,3.9
	l-1.5,1.9l-0.5,2l-0.5,0.2l0.2,1l1.2,1l0.9-0.2l-0.2,2.5L116,53.8L116,53.8z"/>
</svg>
