<?xml version="1.0" encoding="utf-8"?>
<!-- Generator: Adobe Illustrator 26.0.0, SVG Export Plug-In . SVG Version: 6.00 Build 0)  -->
<svg version="1.1"
	 id="svg2" xmlns:cc="http://creativecommons.org/ns#" xmlns:dc="http://purl.org/dc/elements/1.1/" xmlns:mapsvg="http://mapsvg.com" xmlns:rdf="http://www.w3.org/1999/02/22-rdf-syntax-ns#" xmlns:svg="http://www.w3.org/2000/svg"
	 xmlns="http://www.w3.org/2000/svg" xmlns:xlink="http://www.w3.org/1999/xlink" x="0px" y="0px" viewBox="0 0 132.4 89.6"
	 style="enable-background:new 0 0 132.4 89.6;" xml:space="preserve">
<path id="IN-AS" d="M3.7,57.2l0.2,1.3l-0.5,0.3l0,0L3.7,57.2z M50.5,25.6l3.5-0.2l1.6-0.8l1,0.2l1.3-0.9l2.6,0l1.3-0.6l-0.1-0.7
	l0.4-0.5l4.5,0.7l0.9,0.5l0,0.5l2.1,1.1l6.9-1.1l3,0.6l3.9-0.8l2-2.1l1.3-0.3l-0.2-1l-0.6-0.4l3.3-3.7l2.2-1.6l2-2.7l2.1-1.1
	L95.5,10l-0.9-1.3L95.4,8l0.5,1.1l0.5-0.3l1.5,0.7l1.3-0.6l0.6,1.1l4.7-2.2l0.1-0.4l1.4,0l0.8-0.7l0.9-0.1l0.4-0.9l3.6-0.8l6-2.3
	l1.4,0.7l2.8-0.9l1.9-1.8l4.6-0.5l3.2,0.2l-1,1.9L128.3,4l-0.9,1.2l0.2,0.4l-0.6,0.3l0.8,1l-0.4,0.4l0.5,0.6l-0.3,0.6l0.8,0.5
	l0.3,0.9l0.9,0.3l0.2,1.1l-0.8,1.8l0.4,0.3l0.4-0.6l0.1,0.9l0.5-0.9l0.7,0l0.4,0.5l0.2-0.3l0.8,1.6l-2.3,1.8l-0.3,0.7l-0.7-0.7
	l-1.1,0.1l-4.5,1.5l-1.5-0.9l-1.2,1.3l0,1.8l-2.3,0.7l-2.1,1.8l-1.1-0.3l0,0l-1.8,1.8l-1.9,1l-0.7,0.2l-1.2-0.8l-0.9,0.5l-1.8,3
	l-2.4,1.7l-1.2,0.3l-0.5-0.5l-0.6,1.1l-0.6-0.5l-1.6,1l-0.1,0.8l-1.1,0.5l-0.2,1.9l-1,0.6l-0.7,1.1l-0.5-0.4l-0.1-2l-0.3,0.1
	L94,35.8l-0.2,2.7l-1.4,0.4l-2.2,3.6l-0.3,2.4l-0.8,1.5l0.5,2l-1.3,0.7l-0.7,1l-0.8-0.4l-1,1.1l-0.3-0.7l0.4-1.5l-0.5-1.3L84.9,48
	l-1.3,0.6l0.4,1.4l-2.8,2l-1.5,2.4l-1.5,0.6l-2,2l1.3,1.9l1.4,0.7l0.3,1.3l-0.6,0.8l0.5,0.8l0,0l-1.8,1.5l-1.1,3.5l-0.7,1.1l-0.8,0
	l-0.4,0.7l0.3,1.6l-0.5,0.3l0.3,0.5l-0.5,1l-0.7,0.5l0,1l-0.9,0.5L71.8,74l-0.3,0.2l-0.1,1.6l-0.7,0.7l0.6,0.8l-0.6,1.8l0.7,0.3
	l-1,0.2l0.2,0.3l-0.8,1.5l0.1,2l-0.8,0.2l0,0l-1.4,0.2l-0.5-0.4l-0.1,0.4l-0.9-0.1l-0.7,0.5l-1.3-3.3l-1.6,3.8l-1.4,0.5L61.1,87
	l-1.3,0.2l-0.4,1.6l-1,0.3l-0.1,0.5l-0.9-0.3L57.1,87l-2.6,0l0,0l-1.8,0.1l1.2-3l-0.9-1.9l0-1l0,0l0.4-3.5l1-1.8l-1.2-3.8l1.2-0.5
	l1.9,1.6l0.9-0.1l0.4-0.6l0.9,0.1l0.3-0.7l-0.3-1.2l-0.4,0.3l-0.3-0.3l0.5-0.1l-0.3-0.4l-0.7,0.1l-0.1-1.4l0,0l0.8-0.1l0.4-1.6
	l1.2,0.2l-0.4-0.9l2,0.5l0.9-1.4l2.9-1L64.3,64l0.6-0.8l-0.2-1.1L64.2,62L63.7,61l-0.4,0.1l-0.9-1l-0.3,0.2L62,59.7L61,60.1
	l-0.2-1.3L60.1,59l1.6-1.6l0.2-1.3l-1.1,0.8l-0.6-0.1l-0.3-1.2l-1.2-0.3L58,54l-0.7-0.2l0-0.9l-1-0.5L55.2,53l-2.2,0.2l-1.4,1
	l-0.2-3.3l0.6-1.3l1-0.9l-1.3-0.1l-0.2-0.8l3-3.1l-1.2,0.4L52,44.7L51,45.5l-1.7,0.3l-1.3-0.2l-1.4,1l-1.1-1.2l0.1-1.1l-1.2-0.5
	l-1.8,1.4l-0.2,2.5l-1.1,1.1L40.1,48l0.6-0.6L40.6,46l-1.2-0.2l-1.6,2.6l0.6-0.1l-1.2,1.2l0.7,0.1l0.5-0.5l-0.1,0.4l-1.7,0.7
	l-0.5-0.3l-1.8,0.4l-1.2,2.1L32,53l-0.7-0.1l-0.3-1.1l0.3-1.9l-2.8,0.9l-0.3-0.2L29,50l-0.6,0.1l-1,0.6l0.6-1.5l-1.3,0l-0.5-1.4
	l-0.6,0.1l0.1,0.7l-0.8-0.9l-1,0.3l-0.6-0.3l-0.7,1l-0.8-0.2l0.1-1l-1.3,0.2l-1.3,1.2l-0.4-0.3l0.5-0.6l-1-0.5L17.1,49l0.5-1.4
	l-1.2-1.3l-1,0.6l-0.7-0.6L14,46.3l-0.9,0.8l-3,0.7l-1.3-0.4l-2.4,1.9l0.4,0.3l-0.3,0.4l-1.3,0.5l0.2,1.2L5,52.5l-0.9,0.2l2.6,3.1
	l-3.1,1.3l0,0l0.3-2l-1.1-2L3.1,52l-0.6-1.1L4.1,48l-0.8-0.1l-0.2-0.4l0.7-0.3L3,46.3L3,47l-0.4-0.1l-0.4-1.3l-0.5,0.1l0.5-0.5
	l-0.1-0.7L1.3,44l0.2-0.4l-0.4-0.7l-0.7-0.2l0,0l0.3-0.2L0,42.1l0.8-0.5l-0.7-0.1L0.7,41l-0.5-0.7l0.4,0.3l0.3-0.3l-0.4-0.8l0.9,0.4
	L1.2,39l0.6-0.2l0-0.5l1.6-0.7l-0.2-0.4l-0.4,0.1l0.9-1.5l-0.4-0.7L3.5,33l0.3-0.1L3.4,32l0.4-0.6l-0.4-1.3l0,0l0.1-0.8l2,0.3
	l3.9-0.7l0.9-0.4l-0.1-0.9l0.6-1l1.8,0.1l1.1-1.1l1.1-0.1l3.1,2.4l3.2,0.8l7.2-0.3l0.9-0.9l3.5,0.3l1.5,0.6l1.5-1.3l1.8,1.1l2.7-0.7
	l1.3,0.4l2.4-1.1l1.2-1.5l0.8,0l1.8,1.4l1.3,0.3l0.9-0.3L50.5,25.6L50.5,25.6z"/>
</svg>
