<?xml version="1.0" encoding="utf-8"?>
<!-- Generator: Adobe Illustrator 26.0.0, SVG Export Plug-In . SVG Version: 6.00 Build 0)  -->
<svg version="1.1"
	 id="svg2" xmlns:cc="http://creativecommons.org/ns#" xmlns:dc="http://purl.org/dc/elements/1.1/" xmlns:mapsvg="http://mapsvg.com" xmlns:rdf="http://www.w3.org/1999/02/22-rdf-syntax-ns#" xmlns:svg="http://www.w3.org/2000/svg"
	 xmlns="http://www.w3.org/2000/svg" xmlns:xlink="http://www.w3.org/1999/xlink" x="0px" y="0px" viewBox="0 0 36.3 174"
	 style="enable-background:new 0 0 36.3 174;" xml:space="preserve">
<path id="IN-AN" d="M34.2,163.7l0,0.5l0.8,0.3L35,167l1.3,1.8l-0.7,0l0.7,0.9l-0.6,0.2l-0.4,0.9l0.1,1.9l-0.4,0.4l-0.7-0.5l-0.5,1.3
	l-0.5-0.2l0.2-1.1l-0.6-0.3l-0.1-1.3l-0.8-0.7l0.1-0.8l-1.1-1.1l-0.6,0.2l-0.1-2l0.4-0.3l-0.4-0.3l0.6-1.4l1,0.1l0.6-0.6l0.9,0.3
	l0.1-0.7L34.2,163.7L34.2,163.7z M31.4,159.4l0.9,1.8l-2.2,2.5l-0.6-1.4l0.2-1.3l1.7-0.5L31.4,159.4L31.4,159.4z M24.4,147.2
	l0.6,0.4l0.1,1l0.4-0.1l0.7,0.8l-0.1,1.2l-0.8-0.7l-1.4,0.4l-0.3-0.6l0.3-0.5l-0.9,0.2l0.2-1.5L24.4,147.2L24.4,147.2z M27.9,147.1
	l0.7,0.8l-0.1,1.3l-1.5-1.2l0.5-0.9l0.4,0.6L27.9,147.1L27.9,147.1z M28.6,145l0.3,1.9l-0.7-1.7L28.6,145L28.6,145z M27.5,142.8
	l0.4,0.7l-0.9,1l0.9,1.3l0,1.1l-0.4-0.3l-0.5,0.3l-0.2,0.8l-0.3-1l0.4,0.1l0.1-0.6l0.1,0.5l0.2-0.7l-0.9,0.6l0.1-0.8l-0.6-0.6
	l-0.1-1.1L27.5,142.8L27.5,142.8z M21.4,142.1l0.1,0.9l-0.4-0.5L21.4,142.1z M19.1,140.1l0.4,0.2l-0.4,1.5l1.6,1.3l-0.1,0.5L19,143
	l-0.8-1l0.2-1.5L19.1,140.1L19.1,140.1z M17.4,137.7l0.3,0.7l-0.5-0.2L17.4,137.7z M29.3,135.5l0.6,2.2l-0.3,0l-0.1,1L29.3,135.5z
	 M12,121.3l0.8,1l0.6-0.3l-0.6,0.4l0.1,1.1L12,124l-1.2-0.2l-0.2-1.9l1,0l0.2-0.9L12,121.3z M6.3,86.1l0.3,0.7l0-0.4l0.6,0.5l0,1.3
	l0.6,0.3L8,90.8l-1.2,1.4l0.6,0.7l-1.2,1.4l-1.6-0.8l-1,0.3l0.7-1.8L3.5,91l-0.1-2.4L3.8,89l1.2-2.2L6,86.3l0.2,0.5L6.3,86.1z
	 M8.9,73l0.9,1.6l-0.8,0.6l0.9,0.4L10,76l-1.9,0.5l-0.4-0.4l0.1-0.7l0.8-0.1l-0.2-1.5L8.9,73z M8,72.4l-0.3,0.2l0.2-0.9L8,72.4z
	 M0.1,71.3l1.1,0.2l0,1.3L0,72.6L0.1,71.3z M6.8,71l0.6,0.3l-0.8,0.7L6.8,71L6.8,71z M16.9,65.9l1.1,0.2l-0.5,0.5l-0.7-0.3
	L16.9,65.9z M15.8,61.8l0.3-0.2l0.6,0.5l0.9,2.5l-0.2,0.4l-0.9-1.5l-0.5,0l-1-1l0.8-1.2L15.8,61.8L15.8,61.8z M16.2,60.3l0.1,1.3
	L15.6,61l0-0.7L16.2,60.3L16.2,60.3z M17,59.2l0.4,2.4l-0.8-0.7l0-0.7l-1.1-0.7l0.6-0.1l0.4,0.6L17,59.2L17,59.2z M17.9,58l0.6,1.5
	L18,60.8l-0.8-1.1L17.9,58z M10.2,57.5l0.1,1.5l1-0.2l-0.6,2.1l1.3,0.6l-0.5,0.6L11,61.7l-0.1,0.5l0.7,0.4l-1,0.8l0.1,2.4l0.5-1.7
	l0.8-0.1l0.1,0.7l-0.7,4.3l-0.3-0.2L11,69.2l-0.8-0.4l0.1,0.8L9.5,70l0.2,0.6l0.3-0.3l0.1,0.4l0.7-0.8l-0.2-0.6l0.7,0.4l-0.9,4
	l-0.3-0.6L9,72.8l0-1.1l-0.6,0.2l-0.2-1.2l0.6,0.1L9,70.3L8.7,70l-0.5,0.4l-0.4-1.8l-0.5,0.5l-0.3-3l-0.5,0.2l-0.2-0.5l1-2.1L7.8,65
	l0.3-0.2l0.1,0.8l0.1-0.3l0.3-5L10.2,57.5L10.2,57.5z M10.9,57.9l0.4,0l-0.1,0.7l-0.5-0.1L10.9,57.9L10.9,57.9z M14.4,57.1l0.2,0.7
	l-0.5-0.2L14.1,58l-0.2-0.6L14.4,57.1L14.4,57.1z M18.1,56.9l0.2,0.5l0.4-0.5l-0.1,1.2l-0.8-0.5L18.1,56.9z M15.2,56.5l-0.4,1.1
	l-0.4-1.2l0.5,0.2l0.2-0.6L15.2,56.5z M11.8,55.9l1.3,0.4l0.6-0.3l0.5,0.9l-0.6,0.4l0.5,1.1l-0.7-0.1l0.1,0.9L12.7,59l-0.4,0.7
	l0.2,0.5l-1,0.9L11,60.5l0.6-3L11,57.3l0.2-0.6l0.3,0.2l0.4-0.5L11.8,55.9L11.8,55.9z M34,55.7l0.7,0.7l0.1,1.1l-1.1-0.2l-0.2-0.9
	L34,55.7L34,55.7z M15.5,53.7L15,54.8l-0.3-0.1l0.2-1.1L15.5,53.7L15.5,53.7z M10.4,44.8l0.1,2.4L10,45.4L10.4,44.8z M14.3,42.9
	l0.5,0.1l-0.4,0.6l0.5,0l0.5,1.6l-0.4,0.7l1,1.4l-0.5,1.4l0.2,3.1L15,52.2l0,0.3l0.6,0L14.7,53l0,0.8l-1.8-0.5l1.4,2.3l-1.3,0.4
	l-1.3-0.4l-0.4,0.5l-0.7-0.1l-0.4-0.6l0.2-5.8l-0.5-0.2l0.4,0l1-1.4l-0.5-0.5l0.4-0.6l-0.5-2.2l0.3,0.4l1.5-1.9l0.7,0.5l0,0l0.6-0.1
	l0,0L14.3,42.9L14.3,42.9z M10.1,41.3l0.5,0.3l0,1.9l-0.4,1l-0.5,0.1L9.9,45l-0.4,0.7l-0.4-1.7l0.4-2.2L10.1,41.3L10.1,41.3z
	 M16.6,41.2L16,41.8l0.1,0.7l-0.6-0.1l0.2-1l0.3,0.4L16.6,41.2L16.6,41.2z M17.1,28.7l0.3,1l-0.2,1.9l0.2,0.7l0.3-0.4l0.2,0.3
	l-0.3,0.5l0.7,1l-0.5,0.7l-0.7-0.9l-0.6-0.2L16.2,34l-0.3-0.7l-0.4,0.4l1.2,0.5l0.1,0.9l0.7-0.1l0,0.5l0.4-0.3l-0.7,2l0.1,2.1
	l-0.6,1.1l-0.8-0.1l0.2,0.5l-0.8-1l-0.4,0.1l-0.3,0.7l0.8,1.1l-0.5,0.5l-0.1-0.8l-0.5,0l-0.6,1.2l0.4,1l0,0l-0.6,0.1l0,0l-1-0.8
	l0-1.5l0.5,0l0.1-0.6L12,40.7l0.2-1.5l0.5-0.1l-0.3-0.7l0.8-0.3l-0.8-0.3l0.4-1.8l0.6-0.4l-0.7-0.4l0.4-0.5l-0.4-0.2l0.4-1.4
	l0.6-0.2l-0.5-0.4h0.5l0.3-0.6l-0.3-0.9l1.2-0.7l-0.2-0.7l1-0.2l0.5,0.4l0-1l0.5,0.7L17.1,28.7L17.1,28.7z M16.8,26.5l0.3,1.1L16,27
	L16.8,26.5z M29.9,0l-0.6,1.5l0-0.8L29.9,0L29.9,0z"/>
</svg>
