<?xml version="1.0" encoding="utf-8"?>
<!-- Generator: Adobe Illustrator 26.0.0, SVG Export Plug-In . SVG Version: 6.00 Build 0)  -->
<svg version="1.1"
	 id="svg2" xmlns:cc="http://creativecommons.org/ns#" xmlns:dc="http://purl.org/dc/elements/1.1/" xmlns:mapsvg="http://mapsvg.com" xmlns:rdf="http://www.w3.org/1999/02/22-rdf-syntax-ns#" xmlns:svg="http://www.w3.org/2000/svg"
	 xmlns="http://www.w3.org/2000/svg" xmlns:xlink="http://www.w3.org/1999/xlink" x="0px" y="0px" viewBox="0 0 122.9 66.8"
	 style="enable-background:new 0 0 122.9 66.8;" xml:space="preserve">
<path id="IN-AR" d="M96.6,1.9l0.6,0.9l-0.1,0.8l1.3,1.8l1,0l1.5-1.2l0.6,0.7l-1,2.1l-1.8,0.3l-1.6,1.6l-1.5,0.4l0.8,0.6l0.7,1.6
	l-0.8,1.2l0.4,0.8l1.7-0.9l2.1-2.1l1.9-0.1l1.9-1l-1,2l0.2,0.7l0.7-0.1l0.4,2.1l1.6,2.5l-0.6,1.4l-2.4,0.8l0.4,1.2l-1.4,1.2
	l-0.6-0.2l0.1,0.7l-1.1,0.1l-0.6,0.6l1,1.1l-2.3,1.8l1.2,0.6l1.1-0.2l0.6,1.2l0.5-0.2l0.7-1.6l1.1,0l1.5-1.1l1.8-0.1L109,25l0.5,1.1
	l1.6,0.1l1-0.4l0.6,1l1.5,0.7l2-1.3l1.7,1.7l2.3,0.5l2.5,1.8l-0.8,0.1l-0.7,0.8l0.2,1l-0.7,1l1.4,0.2l0.1,0.7l0.8,0.4l-0.8,0.9
	l0.2,2.1l-1.4,0.2l-0.3-1l-1.1,0.5l-3.2,2.8l-0.1,1l-1.4,0l-1.1,1.8l-0.8,0.1l-0.9,1.1l0.8,2.1l-0.5,1.6l5.4,7.7l-0.5,0.8l-0.8-0.4
	l-0.8,0.3l-1.8-1.4l-2.3-0.6l-0.3-0.6l0.6-0.4l-0.1-0.7l-0.5-0.1l-1.2-1.9l-1.9-0.6l-0.3,0.4l-1.8-0.1l-1.9,1.8l-1.1-0.4L98.2,52
	L94,54l-2.1,3.4l-1.2,0.8l-1.5,0l-1.6,3.1l-1.2-0.5l-1.3,2.1l-1.6-0.2l-2.2,3.1l-2.6,1L77.3,66l0,0l-0.4-1.2l0.6-1.2l-0.6-0.3
	l-0.1-1.2l-0.5-0.3l1-0.6l-0.8-3.6l0,0l1.1,0.3l2.1-1.8l2.3-0.7l0-1.8l1.2-1.3l1.5,0.9l4.5-1.5l1.1-0.1l0.7,0.7l0.3-0.7l2.3-1.8
	l-0.8-1.6l-0.2,0.3l-0.4-0.5l-0.7,0L91,49.1L91,48.2l-0.4,0.6l-0.4-0.3l0.8-1.8l-0.2-1.1l-0.9-0.3l-0.3-0.9l-0.8-0.5l0.3-0.6
	l-0.5-0.6l0.4-0.4l-0.8-1l0.6-0.3l-0.2-0.4l0.9-1.2l2.2-1.9l1-1.9l-3.2-0.2L85,36l-1.9,1.8l-2.8,0.9L79,38.1l-6,2.3l-3.6,0.8
	L69,42.1l-0.9,0.1l-0.8,0.7l-1.4,0l-0.1,0.4L61,45.5l-0.6-1.1l-1.3,0.6l-1.5-0.7l-0.5,0.3l-0.5-1.1l-0.9,0.7l0.9,1.3l0.1,0.8
	l-2.1,1.1l-2,2.7l-2.2,1.6l-3.3,3.7l0.6,0.4l0.2,1l-1.3,0.3l-2,2.1l-3.9,0.8l-3-0.6l-6.9,1.1l-2.1-1.1l0-0.5l-0.9-0.5l-4.5-0.7
	l-0.4,0.5l0.1,0.7l-1.3,0.6l-2.6,0l-1.3,0.9l-1-0.2L15.3,61l-3.5,0.2l0,0l-0.1-2.7l-1.5-1.3L10,54.8l1-1.4l-0.6-1l1.3-0.1l0.4-0.4
	L10.8,51l-0.1-1.7l-0.7-1.9l-1.7,0.5l-1.6-0.5l-3,0.3l-0.6-0.8l-0.9,0.4l-1.7-2.1l0.2-0.8l-0.4-0.6L1.7,42L2,40.6l-0.2-0.8l-0.6-0.5
	l-0.7,0.1l-0.5-1l2.5-0.1l1,1.1l2.4,0.1l0.8,1.7l1.2,0.5l1.4-1.3l1.5,0.3l3.2-2.4l1.1,0l1.1,1.9l1.3-0.4l0.6-0.6l1,0.4l1-0.9
	l1.2,0.5l0.9-1.3l1.3-0.5l1.5-2.1l-1.6-1.7l0.5-1.5l2.4-1.8l0.6,0.7l1.4-0.8l1.5-1.4l0.8,0.7l0.7-0.8l-0.2-1l4.1-0.7l0.3-1.6l-1-0.9
	l2-1.5l0.6-1.5l-0.1-0.8l0.6-0.2l0.2-0.8l2.3-0.9l0.6,0.5l0.4-0.7l0.9,0.6l1.8,0l2.3-0.8l0.9,0.5l1.4-0.9l1.7,0.9l1.6-2.5L51.1,16
	l0.2-1l3.4-2.7l1.2-3.1l1.5-1.5l1.4-0.1l0.3-0.9l1.2-0.9l2.7-0.1l1.5-2.9l1.7,1.1l1.4,1.5l0.4,1.8l1.5-0.5L72.8,8l-0.5-1l2.1,0.7
	l0.5,0.7l2.7,0.2l0.3,1.3l3,0.6l0.9-0.1l0.6-0.8l0.3-1.7l1.1,0.3L83.6,6l1-0.1l0.3-1.1l0.8,0.3l2.9-2.6L89,3.1l1.8-1.3l1.6,0.2L95,0
	L96.6,1.9z"/>
</svg>
