<?xml version="1.0" encoding="utf-8"?>
<!-- Generator: Adobe Illustrator 26.0.0, SVG Export Plug-In . SVG Version: 6.00 Build 0)  -->
<svg version="1.1"
	 id="svg2" xmlns:cc="http://creativecommons.org/ns#" xmlns:dc="http://purl.org/dc/elements/1.1/" xmlns:mapsvg="http://mapsvg.com" xmlns:rdf="http://www.w3.org/1999/02/22-rdf-syntax-ns#" xmlns:svg="http://www.w3.org/2000/svg"
	 xmlns="http://www.w3.org/2000/svg" xmlns:xlink="http://www.w3.org/1999/xlink" x="0px" y="0px" viewBox="0 0 104.1 75.3"
	 style="enable-background:new 0 0 104.1 75.3;" xml:space="preserve">
<path id="IN-BR" d="M100.2,23L100.2,23L100.2,23L100.2,23z M16.8,0.1L17.5,0l0,0.7l1.2,0.4l0.1,0.6l1-0.2l0.8,1.6l6.8,1.1l1.5,2.9
	L28.4,10l-0.7,1.1l2.4,1.1l0.3-0.4l0.4,0.5l0.8-0.6l1.3,1.2l1.5,0.2l0.3,0.5l-0.2,0.6l1.9,0.7l-0.8,0.7l3.6-0.3L39,16.6l0.7,1.3
	l2.6,0.4l1.5-1.2l1,0.2l3.8-2.1l2.1,1.8l0,3.3l1.8,1.2l0.7-0.2l0,1l2.1-1.1l0.3-0.9l1.4-0.4l2.3,0.9l0,0.5l1.2-0.2l0.5,0.6l0.7-0.7
	l1.6-0.1l4.5,1.9l0.6,1l3.4,1.8l0.7-0.9l1.4,0.5l1.3-0.5l0-0.6l0.8-0.1l0.1-0.6l1.7-0.4l0.6-1.3l0.6,0l0.4,3.2l1.5,1.1l2-0.2
	l0.2,0.9l1,0.1l0.6,0.6l0.6-1.4l2-0.8l2.9,1.4l1-0.3l0.5-1l1.2,0.6l0.7-0.1l0.5-1.3l1.2,0.8l0.8-1.2l0.8,1.6l1.4,0.6l0.1,0.6l0.7,0
	l0.1-0.6l1.3-1.1l0.2-2.3l0,0l0.8,0.6l0.5-0.6l1.3-0.3l0,0.5l-1.1,1l0.3,0.4l0.7-0.1l0.1,0.7l0.8,0.6l-0.8,0.7l0.1,0.4l0.6-0.1
	l0.5,0.6l-1.6,1.7l-1.5,0.7l-1.6,1.8l-0.7,0l-0.5,0.9l-1-0.3l0.1,1.7l-0.6-0.1L96.6,34l-0.4-0.5l-1.5,1.1l-0.3,2.5l-0.5,0.5l0.4,0.9
	l1.8,0.5l-0.6,0.5l0.6,0.3l-0.3,1l0.7,0l0.6,1.1l1.8,0.8l-0.3,1.3l0.4,0.1l-0.7,1.1l0.3,1.2l0.8,0.8l-0.1,0.5l-0.9-0.1L98.2,47
	l-0.1,0.4l-0.4-0.2l0-0.5l-1.3-0.3l-0.6,0.7l-0.4-0.3l-0.3,1.2l-0.6,0L94,48.8l-0.6-0.2L93,49.5l0.1,0.6l0.5,0.1l-0.1,0.9l1.5,1.3
	l-0.7,1l0.3,0.8l-1-0.5l0,0l-0.1-0.6l-1.6-0.2l-0.5-1.2l-1.6,0l-0.6-0.9l-0.7,0.4l-0.2,1.1L87.2,52l0.3,0.8L87,53.3l0,1.1l-1.7-0.8
	l-0.5,0.5l-1-0.4l-0.7,3.1l-0.8-0.4l-0.8,0.4l-1.4,1.5l0.2,3.2l-0.1,0.6l-0.8,0.1L78.7,63l0.4,0.5l-1,4.5l-2.5-0.8l-0.7,1.3l0.3,1.1
	l-0.7-0.7L74,69.3l-0.4-0.4l-0.8,0.1l0.1-0.7l-0.6-0.6l-0.5,0l-0.4,1L70.1,69l-1.4-1l-1.2,1.6L66.7,70l-0.4,2.1l-0.5,0.1l-0.3,1.2
	l-0.8-0.2l-1.4-1.5L62,71.3l0.7-1.1l-0.2-1.1l0.4-0.6l-1.2,0.2l-1-0.8l-0.5,0.6L58.9,68l-0.2-2.3L58,64.7l-1,0.1l0.2-0.9l-2.1,1.1
	l-1.5-1.6l-2.1,0L50.6,63l-0.8,2.5l-1,0.6l0.3,2.4l-1.8-0.5l-0.2,0.9l-0.7,0l-0.4,0.9l-0.7-0.6l-4.3,0.6l0,0.7l-2.7,0.8l0.4,0.8
	l-1.7,1.2L36.6,73l0.2-1.2l-0.5,0.6L35,72.5l-0.5,0.8l-1.5,0.1l-0.4-2.1l-1,0.2l0-1.4l-0.8-0.4l-2.4,1.7l-0.4,1.4l-1.8-0.4l-0.1,0.7
	l-0.9,0.2l0.1,0.8l-0.7,1.2l-0.8-1.2L23,74.3l0.1-0.6L22.3,73l-1-0.1l-0.4-0.6l0.3-0.2l-0.8-0.5l0-0.7l0.7-0.5l-0.7-1.5l-0.5,0
	l0.2,0.3l-0.5,0.5l-0.5-0.5l-0.4,0.4l-0.6-0.5l-0.3,0.2l0.1,0.8l-0.7-0.7l-0.1,0.8l-0.6,0.5l-1.3-3l-1.1-0.6l-1.3,2.1l-1.3,0.3
	l-3.2,0.6l-4.6-0.5l0,0l0.9-2.3l-0.9-0.6l0.3-0.7l-0.7-0.6l0-0.7L2.8,65l-1.4-1.2l0.1-1.1l-0.8-0.9l-0.2-3.2L0,58.5L0.8,56l-0.5-1.3
	l0.3-0.4l0.8-0.2l0.4-1L3,53l1.7-1.5l0.5,0.2l1.2-0.5L7,50.3l0.8-0.1l-0.3-0.2l0.4-0.4l0.2,0.2l0.6-0.6l0.6,0.5l0.8-0.5L10,48.9
	l0.9-0.1l-0.6-0.7l0.9-0.2l1.4-2l3.3-1.8l-0.1-1.4l0.5-0.6l1.1-0.2l1,0.6l0.2,0.8l1.7,0.2l0-0.4l0.7,0.1l0.3-1.7l1-0.1l0.5,1.1
	l1-0.3l0.8,0.9l0.8-0.2l0.2-1l-0.1,0.8l0.4,0.2l0.1-1.2l1.6,0.2l-0.6-0.8l0.4-0.8l-1.3-1l-0.6,0.1l0-1l-2.2-0.3l-0.3-0.9l-1.2-0.7
	l-1.2,0.3l-2-1.3l-0.7,0.2l0-0.8l-1.6-1.7l-0.9-0.1l-0.6-1.1L14.5,30l1.4,0.5l0.7-1l1,0.4l0.5-1.7l-0.2-1.3l-2.1-0.2l-1.3-1.5
	l-0.6,0.3l-1.7-0.4l0-1.6l1.3,0.2l0.2-0.5l1.5-0.3l0.7-1.3l0-1l4,1l3-0.7l-0.3-1l-1.6-0.3L20.5,18l-1.1,0.6l-0.3-0.2L19,17.9
	l0.6-1.2l-0.2-1.3l-0.7-0.2l-0.8,0.9L17,15.6l0.2-0.8l-0.8-0.3l-0.2,0.6l-0.8-0.3l-0.1-0.9l-0.5-0.3l0.5-0.5l-0.1-1.9l-1-0.6
	l0.6-0.6L13,10l0.8-2.5l-0.5-0.8l-1.2-0.6L12.7,5l-0.2-0.5l-1.3,0.3l-0.5-0.3l0.6-0.7l0,0l1-0.8L11.7,3l-0.1-0.9l1.3-0.5l2,0.4
	l1.4-1.3l0-0.6L16.8,0.1L16.8,0.1z"/>
</svg>
