<?xml version="1.0" encoding="utf-8"?>
<!-- Generator: Adobe Illustrator 26.0.0, SVG Export Plug-In . SVG Version: 6.00 Build 0)  -->
<svg version="1.1"
	 id="svg2" xmlns:cc="http://creativecommons.org/ns#" xmlns:dc="http://purl.org/dc/elements/1.1/" xmlns:mapsvg="http://mapsvg.com" xmlns:rdf="http://www.w3.org/1999/02/22-rdf-syntax-ns#" xmlns:svg="http://www.w3.org/2000/svg"
	 xmlns="http://www.w3.org/2000/svg" xmlns:xlink="http://www.w3.org/1999/xlink" x="0px" y="0px" viewBox="0 0 86.8 141.9"
	 style="enable-background:new 0 0 86.8 141.9;" xml:space="preserve">
<path id="IN-CT" d="M64.5,0l2.1,0.4l0.5,0.9l1.2,0.3l0.8,3L69.8,5l-0.3,0.5l2.8,1L73,8l-0.3,1.7l1.3,1.9l3.4,0.8l0.1-1.4l1.4-0.2
	l0.3,2l-1.1,2l-0.1,1.7l0.9,0.6l0.8-0.5l0.6,1L79.4,22l2,1.3l0.4,2.7l0.9-1.4l0.6,1.1l1.1-0.3l0.1,0.6l1.9-0.3l0.4,0.8l-0.4,1.7
	l-0.8,0.1l-0.9,2.2l-0.6,0l-0.6,0.6l-0.1,1.5l-1.5,0.8l-1.5,0L78.8,35l-0.1,1.1l0,0l-0.5,0l-0.1,0.5l1.4,0.9l-0.8,2.2l-3,0.5
	l-2.3,2.3l-1.3-0.1l-1,0.5l-1.8,2.7l0.9,0.9L69,46.6l-0.1,2.1l0.4,0.7l1,0.5l-0.6,0.9l0.3,0.6l-1.1,0.3l0.1,0.9l-1-0.5l-0.5,0.7
	l0.4,0.9l-1.3,1.5l1.4,1.1l-0.7,0.5l-0.2-1l-1.3,0.8l-1,2.6l0.3,1.2l0.9,1l0.2,1.1l-0.6,0.2L63.4,62l-0.3,1.4l0.4,0.6l-1.2,0.6
	l-0.6,2.8l-1.5,0.8l-1.7-0.4l-1.8-1.3l-1.6,0.6l-1.4-0.2l-0.5,0.4l-0.8-0.5l-2.4,0.2l0.2,1.1l-0.7,0.7l0.3,0.8l-1.5,2.1L47,72.6
	l-0.6,1.8l-0.9-0.1l-0.3-0.8L44.1,73l-0.2,2.8l0.7,3l-0.9,1.6l1.2,1l0.2,1.3l0.5-0.5l0.4,1.1l-0.7,2l0.7,1.2l-0.5,0.4l0.2,1.4
	l-0.7,1.3l0.2,1.9l4.3,1.7l0.7-0.3l1.6,0.2l-0.1,2.2l0.4,0.5l-0.3,0.9l-1.2,0.1L49,97.9l-0.3-1.1l0.5-0.9L46.1,95l-1.1,0.5l-1,1.2
	l-2.3-3.7l-1.1,0.4L38,91.7l-0.7,0.9l-1.7-2.1L34,92l-0.6,1.9l0.3,0.9l2.3,1.2l0.4,1.3l1.7,0.3l-0.5,1.8l0.2,3.7l-0.5,0.8l1.5-0.2
	l0.6,1.9l1.3,0.1l-0.4,1.1l-0.5,0.1l0.9,0.9l-0.7,1.2l0.6,2.4l-0.4,0.7l0.8,0.2l0.3,0.6l-0.4,0.7l0.6,1l0.3,2.3l-1.4,0.3l-0.2,2.3
	l-0.7,0.7l-1,0l-0.1,1l-0.9-0.1l-1.4,0.6l-0.4,1.4l-1.3-0.5l0.1,0.6l1.4,0.8l-0.2,0.6l-0.8-0.1l-0.2,0.8l-0.8,0.3l-2,2.2l-0.4,1.5
	l-1.8,0.1l0,0.6l-1.4,0.2l-1.4,0.9l-0.5,1.7l0.4,0.6l-0.3,1.4l-0.7,1.4l0.1,1.3l-0.8,2.1l-0.9-0.2l-0.2,1.7l0,0l-2.7-0.1l-2-0.9
	l-1.8,1.5l-0.9-0.1l-1.9-6.4l0.6-1.9l-2.3,0.8l-0.3-1.4l0.4-0.2l-0.8-0.6l-0.7,1.5l-1.3-0.1l0-1l1.1-0.8l-0.9-1.1l-0.6-1.8l0.2-0.6
	l-0.7-0.2l0.2-0.4l-1-0.8l-0.4-1l-3.1-2.4l-3,0.9l-1.6-2.9l0,0L0,120.4l0.7-0.1l1.5-1.3l-1.7-2.3l0-1.3l1.1-1.9l0.1-1.5l1.3-1.1
	L3,109.7l1.1-0.5l0.8-1.6l1.9-1.5l0.9,2.1l1.3-0.4l0.3,1l1.3-0.1l2-1.6l-1.2-1.5l2.2-0.9l-0.3-1.2l-0.7-0.2l-0.4-0.7l-1.3-0.1
	l-1-0.9l-1.3-0.1l0.2-1.8l-2.6-1.8l0.1-1l-1.5-0.1l0.2,1.2l-0.5-0.5l-1.2,0l0.1-0.5L4,97l1.4-1.3L5,95.1l-1.6-0.2l0-0.6l0.8-0.5
	L5,94.4l0.8-0.1l0.5-1.3l0-1.8l-0.1-1l-0.9-0.6l-2.2-0.1L3,89.2l0.6-0.6l-0.6-1.2l2.7-0.6L6.3,86l1.6-0.6L7.2,84L8,79.3l-1.2-0.2
	l-1.2,0.6L5,79l0.5-0.8l1.5-0.6l-0.7-1.8l-0.1-3.8l-1.8,0l-0.7-1.7l0.5-0.6L4,68.2l0.5-1.7l3.7-1.7L9,63.7L8.7,63l0,0l1.5-3.2
	l-0.4-2.6l0.2-2.8l0.5-1l1.4,0.2l0.4-1.3l0.1-3l-0.4-0.5l0.6-0.1l1.4-3.6l0.8,0.1l0.3,1.2l0.7-0.1l0.1-0.8l-0.7-0.4l0.9-0.4l0.1-2.2
	l1.4-0.4l0.6-1.1l-0.1-3.3l1.5-1.1l0.8,0.9l1.2-1.1l0.6,0.4l0.4-1l1.2,0.4l0.4,1.5l0.6-0.9l0.5,0.3L25,36.7l0.9,0l0.8-1.1l2,0
	l0.2-0.6l0.5-0.1l0.2-1.4l1.1-0.4l0.3-0.6l0.4,0.6l0.5-0.4l-0.3-1.4l0.8-0.9L31.8,29l0.2-0.9l1.8-0.4l0.1-0.5l1.7-1l-0.5-1.9
	l0.4-0.8l1.8-0.1l0.9-0.8l1,0.3L40,22l-0.2-2l1-1.3l-0.1-0.9l-1-0.8l-0.6,0.1l-0.3-1l-1.1,0.5l-0.7-0.2l0-0.8l-0.8,0.2L35,13.1
	l-1.9,0.5l-0.5-0.8l-1.4-0.5l-0.9,1l-0.8-0.2L29,14l-0.4-0.4l0-1l-0.6-0.1l-0.2-0.8l0.7-0.3l0.2-1.4l0.6,0l0.9-1.4L30,8l-0.7-0.4
	l-0.2-1.4l-0.7-0.5l0.3-1.2L29.7,4L31,5.6L30.9,6l1.3,0.7l1.5-0.3L35,5.2l0.7,0.5l1-0.2l0.9,1l2.4,0l0.9-0.8L41,6.2l0.6,0.6l0.6-0.3
	l1.5,0.4l2.8-0.2l1.2,0.6L48.2,7l-0.4-0.7l1.2,0l1.4-0.8l0.1-1.2l1.9-0.3l1.2-0.9l0,0l2.7,2l3.1-0.1l2.2-1l0.6-1.6l1.3-0.8l0.3-1.1
	L64.5,0z"/>
</svg>
