<?xml version="1.0" encoding="utf-8"?>
<!-- Generator: Adobe Illustrator 26.0.0, SVG Export Plug-In . SVG Version: 6.00 Build 0)  -->
<svg version="1.1"
	 id="svg2" xmlns:cc="http://creativecommons.org/ns#" xmlns:dc="http://purl.org/dc/elements/1.1/" xmlns:mapsvg="http://mapsvg.com" xmlns:rdf="http://www.w3.org/1999/02/22-rdf-syntax-ns#" xmlns:svg="http://www.w3.org/2000/svg"
	 xmlns="http://www.w3.org/2000/svg" xmlns:xlink="http://www.w3.org/1999/xlink" x="0px" y="0px" viewBox="0 0 10.5 11.4"
	 style="enable-background:new 0 0 10.5 11.4;" xml:space="preserve">
<path id="IN-DL" d="M7.4,0.4L8,1.2l-0.4,1l0.6,0.2l1.3,1.8L10.2,4L10,5.7l0.5,0.9l-0.9,1L10.5,9l0,0l-2,0.6l-0.4,0.5l0.3,0.8
	l-1.6,0.5l-1-0.8L5.7,9.3L5,8.7L4.5,8.8L3.6,8.2l0,0.7L2.8,8.5L0.9,9L0.1,7.8L0,7l0.4,0l0.5-1.1l1.2,0L1.7,5.4l0.8-1.2L2.2,1.5
	l1.9-0.4L5,0l1.1,0.5L6.4,1L7.4,0.4z"/>
</svg>
