<?xml version="1.0" encoding="utf-8"?>
<!-- Generator: Adobe Illustrator 26.0.0, SVG Export Plug-In . SVG Version: 6.00 Build 0)  -->
<svg version="1.1"
	 id="svg2" xmlns:cc="http://creativecommons.org/ns#" xmlns:dc="http://purl.org/dc/elements/1.1/" xmlns:mapsvg="http://mapsvg.com" xmlns:rdf="http://www.w3.org/1999/02/22-rdf-syntax-ns#" xmlns:svg="http://www.w3.org/2000/svg"
	 xmlns="http://www.w3.org/2000/svg" xmlns:xlink="http://www.w3.org/1999/xlink" x="0px" y="0px" viewBox="0 0 131.7 104"
	 style="enable-background:new 0 0 131.7 104;" xml:space="preserve">
<path id="IN-GJ" d="M30.2,51.4l0.6,0.7l-0.4,0.5l-1-0.7L30.2,51.4L30.2,51.4z M19.9,51l0.2,0.3l-1.3,1l0.2-0.9
	C19,51.4,19.9,51,19.9,51z M38.2,48.4l0.4,0.6l-1.4,0.4l0.2-0.6C37.2,48.7,38.2,48.4,38.2,48.4z M7.8,32l1.1,0.4L9,32.9l-0.9,0.2
	l0,0.4l-0.8-0.6L8,32.7C8,32.7,7.8,32,7.8,32z M8.4,30.6L9,31l0,0.6l-0.8-0.6L8,30.6L8.4,30.6L8.4,30.6z M6,28.2l0.5,0.6l-0.2,1.2
	l-0.5-0.3l0.1-0.8l-0.8,0.8l-0.2-0.3C4.7,29.3,6,28.2,6,28.2z M6.2,25.5l0,0.8l-1.1,1.2l0.1-1.1L6.2,25.5L6.2,25.5z M5.7,24.8
	l0.2,0.5l-0.5,0.3L5.2,25L5.7,24.8z M3.6,20.7l0.8,0.5L5,21l-0.8,3.2l-1.6,1.6l-0.8-0.2l0.4-0.2L1.8,25l-0.7,0.3l0.2,0.4l-0.6,0
	l0.1-0.4l-0.6,0.2L0,24.9l0.4-0.5l1.4,0L3,22.6L3.6,20.7L3.6,20.7z M2.8,20.9l0.1,1.5L2,23l0-1.9L2.8,20.9L2.8,20.9z M6.5,20.1
	l0.4,1.8l-1.7,0.3l0.4-0.8l-0.2-0.7C5.5,20.7,6.5,20.1,6.5,20.1z M4.2,19.4l0.6,0L5,20.6l-1.2-0.1L3.6,20L4.2,19.4L4.2,19.4z
	 M5.4,17.7l0,1.5L4,19.1l-0.6,0.7l0.1-1.1L5.4,17.7L5.4,17.7z M7.2,17.7l0.5,0.5l0.6,0.1l-1.3,1.2l-0.5-0.2l0.1-0.5l0.9-0.7
	L7.2,17.7L7.2,17.7z M6.2,16.4L7,18l-1.6,1.7l0.5-1.9l-0.3-0.4l-0.6,0.2l0.4-1L6.2,16.4L6.2,16.4z M5.1,16.4l-0.4,1.4l-1.4,0.8
	l-0.2,1.9l-0.3,0.3l-0.4-0.4L1.7,21l0,2.3l-0.6,0.2l-1-1.1l0.9-1L0.6,20L1,20l0.9-1.8l1.2-0.1l0.5-1.4L4.4,17L5.1,16.4L5.1,16.4z
	 M61.1,0.6l4,1.7l1.1-1.1l0.7,0.7l2.2-1.2l2.7,0.1l0.9,0.9l2.9-0.9l0.3,1.1l1,0.4l0.4-1.6l0.9,0.2l0.5,0.9L80.9,0l0.7,0.2l0,1
	l1.7,0.9l0.9,0l0.4-0.5l1.8,0.6L87.2,2l-0.6,0.7l-1-0.3l-0.6,0.5l0.9,1l1.3-0.3l0,0l0.6,1.2l1.2-0.1l0,0l-0.1,1l0.6,1.2l0.9-0.1
	l-0.2-0.9l0.9-1.3l0.9,0.8l2.3,0.4l-0.1,0.9l0.8,1.3L98,7.8l1.2,0.9l1.4-0.9L100,7.4l0.8-2l0.3-0.3l0.8,0.4l0.9-0.7l0.3,1.6
	l-0.5,0.7l1.8,1l0.9-0.6l0.4,0.2l-0.4,0.7l-0.4-0.2l-0.3,1l-0.7-0.1l-1.3,2.8l0.7,1.1l2.3,0.9l-0.5,1.1l1,0.9l0.9-0.4l0.9-1.1l0.1-1
	l0.8-0.3l-0.1,0.9l0.9,0.8l-0.2,1.4l0.4,1.4l-1.3,1.6l0,1.7l0.3,0.5l0.9-0.3l1.2,1.6l0.6,0.1l0.1,2l1.3-0.9l1.7,0.7l-0.5,1.7l0.4,1
	l-0.5,1.2l0.4,0.3l1.1-0.3l0.5,1l0.8-1l0.4,0.5l1-0.3l1.3,2.5l0.9-0.1l0.2-0.7l0.5-0.1l0.4,0.9l0.9,0.1l0.2,0.8l1.2,0l0.7,0.6
	l-0.1,2.1l1.2,0.6l0.5-0.9l0.8,0.1l0.9,1.6l-0.1,0.5l0.8,0.7l0,0l1,1.9l-0.6,0.3l0.4,0.7l0.8,0.8l1.1-0.6l0.6,1.5l-1.6,2.9l-0.4,2
	l-2.5,0l-2.3,2.9l-1.8-0.8l-0.7,1l0.2,0.4l0.9-0.4l-0.2,1l0.5-0.1l0.4,1.1l0.4-0.8l0.4,0.6l0.5-0.3l0.1-0.8l0.3,0.9l1,0.1l0.8,0.9
	l-0.8-0.1l-0.6,0.9l-0.4-0.2l-0.3,1l-1.2-0.2l-0.5-0.9l-0.8,0.3l-0.3,1.7l0.7,1l-0.3,0.5l1,0.2l0.2,2.6l0.5-0.2l0.5,0.4l-1.7,1.6
	l1.2,0.7l-0.2,0.7l0,0l-7,3l0.7,0.7l-0.3,0.6l1.4,1.4l-0.2,1.2l-2.1,0.5l0.8,0.6l0.8,2.3l4.4-1.4l2.4,0l0.5,0.6l0.6-0.4l0.7,0.3
	l0.7-0.7l0.5,0.5l0,1l-1.6,0.7l-0.4-0.4l-0.1,0.5l-2-0.1l-0.4,0.3l-0.9-0.8l-0.4,1.4l-1.7,0.6l-0.3-0.2l-0.1,2.4l-1.2,0.8l-1.3-0.1
	l-0.2,2.1l-1.7,0.1l-0.1,0.6l-1.2-0.3l-0.9,0.4l-0.5-1l-0.5,0.2l1.5,1.3l1.9-0.1l-0.2,1.3l0.7,1l0.7-0.3l0.2,0.6l1.9,0.3l-0.2,1
	l1,2.2l0.1,2.2l-0.6,0.4l-0.7-0.1l-0.5,0.8l-0.9,0l0.5,0.6l-0.1,1.2l-1.9,1.1l-1-0.2l-0.6,0.4l-0.7-0.4l-0.6-1.3l-1.4-0.8l-0.8,0.5
	l-0.3-1.4l-0.6,0.2l-0.3,1l-0.8,0.5l0.8,1.1l0.8,0.3l0,0.9l0.4,0.1l-1.5,2.8L109,98l0.7,0.9l0.1,3.3l-1.2,0.3l-0.1-0.5l-0.3,0.3
	l-0.9-0.2l-0.5,1.3l-1.5,0.6l0,0l-0.4-0.4l0.7-0.9l-0.4-0.4l-1.3-0.2l0.1,0.8l-0.5,0.4l-0.7-0.4l-0.2,0.4l-0.1-1.6l0.7-0.1l1-1.3
	l0.4,0.1l-0.4-0.7l-1,0.3l-0.1-1.2l-0.3,0.8l-0.8,0.1l-0.1,0.7l-0.5-0.6l0,0.6l-0.6,0l-0.1,0.5l-0.8-0.5l-0.4,0.3l1,1.5l0,0l-2-0.3
	l-0.8,0.9l0,0.9l-0.7-0.1l0,0.5l-1.3-0.3l0,0l0.4-3.5l1.4-1.8l1.3-2.9l0.3-1.9l-2.2-6.9l0-1.1L96,85.8l-1-2.6l1-0.4l-1.4-0.2
	l0.3-1.6l-1.1-0.3l-0.2,1.5L93,82.7l-0.2-3.3l-0.6-1.5l0.8-2l1.5-1.9l-1.1,0.7l0.6-2l0.6-0.3l-0.5-0.2l-1.2,1.1l-0.6-1.4l0.6-1.5
	l1.5-0.8l1.8,0.1l1-0.5l-1.2,0.1l-0.9-0.6l-4.2,0.6l-0.6-0.8l0.7-0.8l0.6-2L90.7,65l-0.3-2.2l0.9-4.4l0.7-1.1l1.4-0.4l2.2,1l1.1-1.6
	l1.4,0.5l0.5-0.2l0.3-1l-0.4,0.7L98,56.3l-0.5-0.9l-1.9,1.2l-1.3-0.2l-1.1-1l-1.9,0.9l-0.1-0.7L90,57.4l0.1-0.9l-0.5,0L88.9,55
	l-0.9-0.4l0.4-0.9l-0.7-0.6l-0.4,0.3l0.7,0.5l-0.4,0.9l0.8,0.3l0.1,1.6l-0.4,0.6l-0.9-1.6l0.1,1.5L88,58l-0.3,0.4l-0.4-0.8L87,59
	l-0.4-0.1l-0.9,4.5l-0.8-2.7l0.9-0.6l0.2,0.2l0-1l-1.4,1.2l0,0.9L84.4,63l0.7,1.1l0.3,3.6l0.9,2.5l-1.7,4.3l-2,2.4L82.1,78l-0.7-0.4
	l0.4,0.6l-0.3,0.7l0.7,1.1l-2,0.9L80,81.4l0.1-1.2l-0.7,1.5l-3.3,1.1l-0.5,0.3l0.2,0.4l-1.9,0.4l-3.1,1.6l-1.1,0l0,0.6l-1.6,1.2
	l-1.3-0.1l0.1,0.4l-3.7,1.2l-1.1,0.5L62,89.8h-1.2l-0.3,0.5l-2.4-0.1l-1.5,0.7l0,0l-0.7-1l0,0l0,0l0,0l-0.2-0.2l0.5,0l0-0.7l0.6,0
	l0-0.7l-1.7-0.6l1.7-0.8l-0.3-1.3L55.7,85l-1.6,0.2l-0.6-0.7l-1.3,3.3l-0.1,1.8l0,0l-1.2-0.1l-3.7-1.9L40.1,82L32,72.5l1.1-1.1
	l-0.6-1.6l-0.3,0.4l-1-0.1l0.9,0.8L31.6,71l0.6,0.5l-0.4,0.7l-9.9-9.1l-5.8-6.7l-0.4-1.7l1-2.3l1.7-1.5l0.4,0.2L18,52l0.5,0.8
	l2.6-0.6l0.2,0.5l-1,2l1.6,1.2l1.8-0.8l0.3-0.9l1.8,0.3l1.4-0.5L28,53l-0.5-1.1l1.1,0.7l0.2,1.1l1.9-0.1l0.2-0.8l0.7,0l0-1.1
	l-0.5-0.2l1.2-0.5l0.3,1l0.3-0.2l0.8,0.9l0.8-1.2l0.7,0.2l1.3-1.4l0.5,0.3L37,49.8l1.8-0.8l0.5,0.4l2-0.1l1.7-2.5l0.2-1.6l1.1-0.5
	l1.1-2.6l1.5-1.4l1.5-3.3l-1.2,0.3l-0.8,0.7l-0.3,1.9l-0.8,0.4l-2.3-1.1l-0.4,0.5l-1.2,0.3L40.6,40l0.2,0.8l-7,1.7l-1,0.7l-1,1.8
	l-1.3-0.6l-0.9,0.2l-1-0.8l-1.7,0.4L24.5,43l-3.3-0.2l-8-5.2L12,37.3l-3.5-3l-0.1-0.4l1.8-0.8L9.5,33l-0.1-1.8l-0.6-0.8l-1-0.1
	l0-0.7l-0.5,0l-0.7-1l-0.3-3.8l0.2-0.6L7,24.2l0.1-0.8l2.3-1.5l0.7-1.2l1.5-0.8l-0.4-0.3L8.8,20l-1.6,1.9l-0.2-1.5L7.5,20l0.5-1
	l1.9-0.9l-0.9,0.1l-0.5-0.6L8.4,18l-0.6,0l-0.4-0.5l0.2-0.4l4.2,0l0.5-7.6l1.1-0.3l0.4,2.3l0.8,0.3l1.2-1.9l1.1,1.2l1.9-1l2.2,0.8
	l2.3-1l4,0.5l2.1-0.5l2.6,2.4l5.8,0.2l1.2-0.6l1.2-2.3l9.5-3L50.8,7l-0.8,1.3l0.3,0.8L50,10.5l1.7,0.6l3.2,0.1l1.8-0.8l-0.2-0.8
	l1.6-1.3L58.9,8l1,0.3L61.7,7l-0.3-0.7l-2.3-0.3l0.2-1.9l-0.4-0.4l0.5-2.1L61.1,0.6L61.1,0.6z"/>
</svg>
