<?xml version="1.0" encoding="utf-8"?>
<!-- Generator: Adobe Illustrator 26.0.0, SVG Export Plug-In . SVG Version: 6.00 Build 0)  -->
<svg version="1.1"
	 id="svg2" xmlns:cc="http://creativecommons.org/ns#" xmlns:dc="http://purl.org/dc/elements/1.1/" xmlns:mapsvg="http://mapsvg.com" xmlns:rdf="http://www.w3.org/1999/02/22-rdf-syntax-ns#" xmlns:svg="http://www.w3.org/2000/svg"
	 xmlns="http://www.w3.org/2000/svg" xmlns:xlink="http://www.w3.org/1999/xlink" x="0px" y="0px" viewBox="0 0 13.8 19.6"
	 style="enable-background:new 0 0 13.8 19.6;" xml:space="preserve">
<path id="IN-GA" d="M0,1.6l3.2-0.3L3.9,0l0.4,1l1.3,0.2l0.5,2.1l0.6,0.7l0.6,0.1l2.1-1l0,0l1,0l0.3-0.6l0.5,0.7l0.4-0.4L12,3.1
	l0.3,1L12,5l0.7,0.9l-0.6,0.8l0.5,1l0,1.2l1,0.5l0.3,1.6l-1.8,0.8l1,0.7l0.3,0.9l-0.7,0.9l-0.2,1l0.5,1.2l-0.9,1.1l0.2,0.5l-1.2,1
	l-0.8-0.6l0.1,0.9l-0.8-0.2l-0.9,0.5l0,0l-1.1-0.5l0.2-0.9L6,15.9l-1.2-0.4l0.8-1.3l-1.1-4L4,9.3L3.4,9.5L2.1,8.4l2,0.3l0.4-0.4
	l-1-0.8L2.2,7.3l0.4-0.7l-0.9,0L1.2,4L0,1.6L0,1.6z"/>
</svg>
