<?xml version="1.0" encoding="utf-8"?>
<!-- Generator: Adobe Illustrator 26.0.0, SVG Export Plug-In . SVG Version: 6.00 Build 0)  -->
<svg version="1.1"
	 id="svg2" xmlns:cc="http://creativecommons.org/ns#" xmlns:dc="http://purl.org/dc/elements/1.1/" xmlns:mapsvg="http://mapsvg.com" xmlns:rdf="http://www.w3.org/1999/02/22-rdf-syntax-ns#" xmlns:svg="http://www.w3.org/2000/svg"
	 xmlns="http://www.w3.org/2000/svg" xmlns:xlink="http://www.w3.org/1999/xlink" x="0px" y="0px" viewBox="0 0 71.5 70.9"
	 style="enable-background:new 0 0 71.5 70.9;" xml:space="preserve">
<path id="IN-HP" d="M6.2,17l1.1-1.7l-0.6-1.2L7,12.5l-0.8-1.4L4.5,9.7l0.3-1.5l1.2,0l1.6,1.1l2.9-2.1l0.2-0.9l3-0.7l0.8-1.8L17,1.7
	l1.6,0.2l1.6-0.7L21,1.2l0.9,1.1l2.2-0.4l0.5-1.8L25.1,0l0.5,0.5l0.5-0.2l-0.5,2.3l0.9,1.1l0.7,0l0.8,2l1.7,1.1l0.8-0.3l0.8,0.7
	l1.3-0.2l0.2,1.7l0.6-0.4L34.5,9l0.2,0.8l0.4-0.3l1,0.6l0.5,0.9l0.6-0.1l0.6-1.5l1.4,0.6l0.6-0.6l0.7,0L42,7.8l1.5-0.4l0.2-0.7
	l1,0.4l1.6,1.7l-0.6,1l1.8,0.9l0.7,1.3l0.7,0.2l-0.2,1.8l1.7,2.7l1.1-0.1l0-1.1l0.7,0.3l0.6-0.9l0.6,0.5l0.6-0.9l1.3,0.2l1.7-1.1
	L56.7,13l1.8-0.6l-0.2,2.2l0.5,1.2L56.9,17l0.1,1.2l-0.4,0.5l0.7,0.8l1.5-1.3l0.6,0.4l0,0l0.7,0.3l-0.1,1l1.7,0.9l-1.1,1.6l0,1.7
	l-0.6,0.9l2.1-0.1l1.1,0.8l-0.4,1.5l0.5,0.9l1.1,0.4l1.7,2.5l0.8,0.2l-1.7,5.1l0.7,0.7l-0.3,0.6l0.5,1.2L67,39l1.1,1.8l-2.6,2.4
	l0.2,0.8l0.7-0.1l1,0.9l-0.4,1.3l1.1,0.5l0,1.3l1.6,1.7l0,0l0.2,0.8l1.2,1.2l0.5,1.5l-2.6,0.2l-1.1-1l-0.5-1.4l-3.1,0.3L64,50.5
	l-0.8-0.4l-1.2,0.7l-1.4,0.1l-0.5-1l-0.5-0.4L59,49.8l-0.9-1.1l-1.2,0.1l-0.1,0.5l-0.5-0.1l-0.8,0.9l-1.8,0.1l-1.3,1l-1.2,0.1
	L51,52.1l-1.2-0.6l-1.4,0.6l-0.9,1.8l-0.9,0.5l0.5,1.3l-0.6,0.9l0.4,0.4l-1.1-0.6l-0.6,0.4l0.2,0.9l1,0l-0.1,1.6l-0.9-0.6l0,1.3
	l-1.2,1.5l1.1,1.4l-0.2,0.6l1,0.5l0.1,1.1L45,65.7l0.7,0.9l0.9,0l0.2,0.7l-0.2,0.5L44,69.3l-2.1,0.5l-0.4,0.6l0,0l0.2,0.5l0,0
	l-0.7-0.3l-0.7-1.3l-0.5,0.9l-1.5,0.1l0.8-0.8L39.2,69l-1,1.1L37,69l-0.7,0.2L35,68.5l-1,0.1l-0.4-1.1l-1.1-0.4l-0.4-0.6l1-0.8
	l-0.1-2.2l-1.6-1.3l-0.9-0.3L30,62.2l-0.5-0.9l0.2-0.9l-0.4,0.4l-0.5-0.3l-1.1-2.1l-1,0.6l-0.8-0.6l-0.1-0.8l-0.8,0.6l0,0l-1.2-1.4
	l-2.1-1l-0.2-1.2l0.6-1.4l-0.8-0.4l0-1.4l0.9-0.7l-0.2-0.3L21,50.6l0.4-0.8L20.8,49L20,49.7l0-0.7l-0.4,0.5L19.6,49L19,49.2
	l-0.5-0.9L17.8,49l0.4-0.6l-1.4-2.1l-0.3-1.2l-0.1,0.6L15.4,46l0.4,1.2L15,47.5l0,0.6l-2.6,0.3l-0.1-0.9L11.6,47l0.4-1.3L8.9,40
	l-1.7-4.2l1,0.1l-1.6-3.3l-2.3-1.1l-2-1.7l-0.8-0.4l-1.1,0.3L0,29.3l1.7-2.1l-0.9-0.5l0-1.2l2.4-1l2.2-2.6L7.4,21l-1.7-2.3L6.2,17z"
	/>
</svg>
