<?xml version="1.0" encoding="utf-8"?>
<!-- Generator: Adobe Illustrator 26.0.0, SVG Export Plug-In . SVG Version: 6.00 Build 0)  -->
<svg version="1.1"
	 id="svg2" xmlns:cc="http://creativecommons.org/ns#" xmlns:dc="http://purl.org/dc/elements/1.1/" xmlns:mapsvg="http://mapsvg.com" xmlns:rdf="http://www.w3.org/1999/02/22-rdf-syntax-ns#" xmlns:svg="http://www.w3.org/2000/svg"
	 xmlns="http://www.w3.org/2000/svg" xmlns:xlink="http://www.w3.org/1999/xlink" x="0px" y="0px" viewBox="0 0 65.5 78.8"
	 style="enable-background:new 0 0 65.5 78.8;" xml:space="preserve">
<path id="IN-HR" d="M48.2,0.6L49.1,0l0.1,0.8L50,1.5l1-0.6l1.1,2.1l0.5,0.3L53,2.8l-0.2,0.9l0.5,0.9l0.4-0.3l0.9,0.3l1.6,1.3
	l0.1,2.2l-1,0.8l0.4,0.6l1.1,0.4l0.4,1.1l1-0.1l1.2,0.7l0.7-0.2l1.1,1l1-1.1l0.1,0.6l-0.8,0.8l1.5-0.1l0.5-0.9l0.7,1.3l0.7,0.3l0,0
	l0.4,0.3L65,15.1l-0.9,0.7L63,18.1l-1,0.5l-0.5,1.2l0.3,0.3l-3,1.4l-0.2,1.1l-1.7,2.3l-0.6,2.7l-0.7,0.5l0.6,1.6l-1.2,2.5l0.5,1.2
	l-0.5,0.5l1.1,2.2l-0.3,0.8l0.4,0.5l-0.6,0.3l0.1,0.6l0.7,0.3l-0.5,1.5l0.3,0.7l-0.4,0.4l0.3,1l-0.4,1.8l1.9,2.4L57,47.8l0.6,1.2
	l-0.8,0.3L57,50l0,0l-1,0.6L55.8,50l-1.1-0.5l-0.9,1.1l-1.9,0.4l0.3,2.8L51.3,55l0.3,0.5l-1.2,0L50,56.5l-0.4,0l0.1,0.8l0.9,1.1
	l1.9-0.4l0.8,0.3l0-0.7l0.9,0.7l0.5-0.1l0.7,0.6l0.2,1.2l1,0.8l1.6-0.5l-0.3-0.8l0.4-0.5l2-0.6l0,0l2.9,2.3l0.4,1.3l-0.6,0.5
	l0.7,0.7L63.4,64l-0.5,0.3l1.5,0.5l-0.5,0.4l0.1,0.7l-0.6-0.2l0.1,0.6l1.1,0.1l-1,0.5l-0.1,1.5l-0.3-0.2l-0.2,0.5l0.2,1l1.2,1.2
	l-0.5,0.6l0.6,0.2l-0.4,0.6l-1.1,0l-0.2,1.1l-1-0.3l0,0.9l-1.5,0l-1.3,1.3l0,0L58.6,75l-0.6,0.7l-0.8-0.9l-0.5,0.9l0.3-0.6L56.2,75
	l0,0.6l-0.5,0.4l-1.8-1l-0.4,1l1,0.3l0.2,0.6l-1.8-0.1l-0.5,2l-0.8-0.4L51,78.7l-0.5-1l0.7,0L50.6,77l0.4-2.4l0.5,0l0.3-2l-0.4-0.1
	l0-1.7l0.9-3.5l-2.3-2l-1,0.4l-0.2,1.3l-2.9,1.4l0.2,1.8l-1.3,0.2l-1.3,0.9l0-1.6l-1.8-0.3l0.9-0.4l-1-0.7l0.3-0.4l0.8,0.1L42,67
	l-2,0.4l-0.9-0.9l-1.2,0l1.6,1.2l-1.2,0.7l1.2,0.6l-0.3,0.9L38.3,70L38,69.2L37.4,69l-1.5,0.3l0.8,0.7l-1.2,0.8l0.5,0.6l-0.3,1.4
	l0.7,0.4l-0.1,0.8l0.6,0.5l-1.1,0.8L34,73.8l-0.8,0.5l-1.8-0.4l0.3-1.1l-1-0.2l-0.1-0.4l0.3-0.4l0.5,0.3l0.5-1.1l-0.6-0.4l0.7-0.2
	l-0.4-0.5l0.8-0.1l-0.1-0.4l0.6-0.5l-0.4-0.4l-0.7,0.9l-0.1-0.7l-1-0.3l1.9-1.9l0.8,0.1l0,0.6l0.6-0.3l-1-1.1l0.2-0.5l-0.9-0.4
	l0.2-0.9l-1.3-0.9l-0.7-1.2l-0.7-0.6l-2.5-0.3l0.2-1.2l-3.1-2.1l-0.2-1.3L22.8,56l-0.6-3.2l-0.6-0.9l0.3-1.2l-1-2.1l1-1.2l-0.1-0.8
	l-1.6-0.1l-0.1-1.2l-1-0.1l0.3-1.4l-0.7-0.3l0.8-1.1l-0.1-1.8l-0.8,0.2l-0.3,0.7l-0.6-0.2l0.1-1.4l-2,1.4L15,40.3l-1.5,1l-0.6-0.1
	L12,39.9l-1,0.4L10.2,40l-0.5-2L7.9,37l-1.8,1.2l-2.2-0.4l-0.2,1l-1,0.1l0-0.8l-0.8-1.4l-0.6-0.2l0-0.6l0.3-0.4l0.8,0.2l0.7-1.7
	l-1-0.9l0.8-4.6l-0.4-0.4l-1.3,0.7l-1.1-0.1L0,27.8l1.8-1.9L1.4,25l-0.6-0.1L1.1,24l0,0L3.8,25l-0.1-0.4l1.1-1.1l0.7,0.2L7,22.8
	l1,0.8l0.7-0.2l0.1,0.7l0.6-0.2l1.6,2.2l1.6-0.5l0.4-0.9l0.4,1l-0.5,0.6l0.5,0.6l-0.4,0.5l1.3,0.6l0-0.9l0.6-0.5l1,2.1l-0.8,0.6
	l0,0.9l-0.8,0.6l0.3,0.8l1,0.6l0,1.5l1.5-0.5l0.2-0.5l-0.5-0.5l0.8-1.5l0.7,0.3l-0.3-0.8l0.9-0.4l1.4-2.3l1.4,1.2l0.9-0.1l0.3,0.6
	l0.9-0.1l0.3-0.6l1.5,0.4l0.2-1.3l1.4-0.4l0.5,0.4l0.7-0.1l1.1,1.6l1.8,0.4l1.1-0.6l0.4,0.2l0.9-1.4l0.8,0.2l2.6-1.8L36,25.3l-0.4-1
	l0.8-0.4l-0.3-1.8l0.5-0.3l-0.4-0.3l1.2-1.6l-1.3-0.7l0.4,0l-0.2-0.6l1,1l1.5,0.3l0.5-0.5L38.9,19l1.3,0.5l0.2-0.7l-0.4-0.6l0.6-0.5
	l0.9,2.5l0.8,0.1l0.2,0.5l1.1-0.5l0.5,0.6l0.5-0.1l0.5-0.6l0.3-2.4l-0.7-0.2l0.2-0.4l-0.6-0.6l-1.1,0.7l0.3-0.9l1.3-0.1l1.4-1.3
	l0.8-0.2l0.5-0.6L47,13.8l-0.2-0.7L48,12l1.1,0.7l0.5-0.5l1,1.2v0.6l1-0.7l-0.8-1.3l0-1.1l0.7-0.8l-0.7-0.5l0.6-1.4l-1.1-1l0.1-0.9
	l-0.6,0.6L49.3,6l0,0l0.2-1.9l0,0l0.4-0.7l-0.4-1l-1.2-1.1L48.2,0.6z"/>
</svg>
