<?xml version="1.0" encoding="utf-8"?>
<!-- Generator: Adobe Illustrator 26.0.0, SVG Export Plug-In . SVG Version: 6.00 Build 0)  -->
<svg version="1.1"
	 id="svg2" xmlns:cc="http://creativecommons.org/ns#" xmlns:dc="http://purl.org/dc/elements/1.1/" xmlns:mapsvg="http://mapsvg.com" xmlns:rdf="http://www.w3.org/1999/02/22-rdf-syntax-ns#" xmlns:svg="http://www.w3.org/2000/svg"
	 xmlns="http://www.w3.org/2000/svg" xmlns:xlink="http://www.w3.org/1999/xlink" x="0px" y="0px" viewBox="0 0 159.8 122"
	 style="enable-background:new 0 0 159.8 122;" xml:space="preserve">
<path id="IN-JK" d="M47.1,1.2l1.2,1.4l2.4-0.1l1.7-0.1l1.5-1.2l1.6-0.6L57,1.4l1.7,2.5l2,2.9l2.6,3l1.1,2.2l3.4,2.2l3.3,1.6l2.8,2.6
	l3.3,1.1l2.6,2.7l1.6,1.4L84,24l2.3,2.5l0.1,1.8l-0.5,1.5l0.7,1.9l1.2,1.8l2.7,0.8h3.3l3.7,1.1l2.2,2l0.9,2.6l1,1.8l3.5,0.4l4-1.8
	l3.5-0.9h2.8l2-3.2l2.3-2l2.7-0.6l2.2-0.9l2-1.5l3.5-0.3l2.9,0.9l1.8,1l1.2-0.7v-2.6l1.1-1.3l1.8-0.5l2.5,2l1.3,1.5l1.6,0.4l3.1,0.7
	l2.4,0.7l2-0.9l1.4-0.5l1.3,2.1l1.2,2l1.7,0.9l2.1,1.5l0.6,1.6l-0.5,1.7l0.3,1.8l-0.1,1.3l-0.9,1.7l-0.1,1.2l-1,1.4l-0.2,1.5
	l0.1,2.6l-0.8,2l-0.8,1.9l-0.6,1.4l-0.4,2.2l-1.5,0.8l-1.6,0.7l-2.1,1v2l-0.8,1.3l-1.9-0.1l-2.1,0.1l-1,0.9l0.2,1.1l0.9,1.6l0.5,2.1
	l-0.9,3.8l-2.1,2.3l-1.2,0.5l-2-0.5l-2.2-0.8l-1.4,0.6l-2,0.4l-1.2,0.4L132,80l0.4,1.8l0.7,1.6l0.9,1.4l1.4,2.3l-0.4,1.4l-1.1,0.9
	l-1.5,0.6l-0.2,1.4l0.2,1.6l-0.5,0.7l3.1,2.9l0.2,1.7l2.3,0.9l4.7,0.3l0.1,0.8l-1.3,2.9l-0.1,1.3l2,2.2l0.5,2.2l1.3,1.1l0.6,2.2
	l-0.4,1.6l-2,0.5l-2.8,2.5l-1.1-0.9l-1.2,0.3l-1.6,1.2l-0.5,2.3l-1.2-0.3l-1.5,1l-1.3-0.6l-2.8-2.7l-0.4-2.3l0.3-0.8l-0.7-2.4
	l-1.9,1.2l-0.6,1.1l-1.7-0.1l-1.2,1l-0.7-0.2l-0.8,0.6l0,1.1l-0.6-0.4l-1.5,1.3l-0.7-0.8l0.4-0.5l-0.1-1.2l1.9-1.1l-0.5-1.2l0.2-2.2
	l-1.8,0.6l0.2,0.6l-1.7,1.1l-1.3-0.2l-0.6,0.9l-0.6-0.5l-0.6,0.9l-0.7-0.3l0,1.1l-1.1,0.1l-1.7-2.7l0.2-1.8l-0.7-0.2l-0.7-1.3
	l-1.8-0.9l0.6-1l-1.6-1.7l-1-0.4l-0.2,0.7l-1.5,0.4l-1.3,1.4l-0.7,0l-0.6,0.6l-1.4-0.6l-0.6,1.5l-0.6,0.1l-0.5-0.9l-1-0.6l-0.4,0.3
	l-0.2-0.8l-1.1-0.9l-0.6,0.4l-0.2-1.7l-1.3,0.2l-0.8-0.7l-0.8,0.3l-1.7-1.1l-0.8-2l-0.7,0l-0.9-1.1l0.5-2.3L87.6,98l-0.5-0.5
	l-0.5,0.2l-0.5,1.8L84,99.9L83,98.8l-0.7-0.1l-1.6,0.7L79,99.3l-2.4,2.1l-0.8,1.8l-3,0.7l-0.2,0.9l-2.9,2.1l-1.6-1.1l-1.2,0
	l-0.3,1.5l1.7,1.4L69,110l-0.3,1.6l0.6,1.2l-1.1,1.7l-1.4,2.2l-1.2,0.3l-0.7,1.4l-3.8,1.7l-0.6,1.8l-0.2-0.8l-0.5-0.2l0.1-0.6
	l-1.2,0.4l-1.9-0.3l-2.7-1.7l-0.1-0.5l-1,0.2l-1.2-1.6l-1-0.3l-1.2,1.1l-3-1.2l-2.9,0.3l-1.2-3.1l0.7-1.2l-0.5-1.5l1-3l-1.2,0.4
	l-0.6,1.6l-1.7,0.4l-1.2,0.7l-2.9-0.3l-1.4-1l-2.1-1l-1.6-1.5l-2.5-0.9l-2.1-1.5h-3.2l-0.7-1.5l-1.1-1l-1.4-1.2l0.6-2.5l-0.9-1.8
	l-0.3-3.1l1.1-1.3l-0.8-3.2l0.5-1.2l0.1-1.5l-1.5-1.5l0.1-1.4l1-1.2l-0.8-3.1l-1.5-1.5l0.1-2.9l-0.3-2.3l-1-2.5l0.4-2.5v-1.7
	l1.3-1.4l2.2-0.6l1.7-0.7l0.1-1.9l1.3-2.3l1.4-0.2l3.4-0.1l1.2-0.9l0.8-3l0.9-1.9v-2l-1.8-1.8L26.8,48l-2-0.6l-1.2-0.9L22.9,45
	l0.4-1.6l1.4-0.9l0.6-1.2l-1-2.2l-2.1,0.1l-2.4-0.3l-2-0.6l-3.5-0.3l-1.9-1.7l-0.9-1.8l-0.7-2.6l-2.7-1.3l-3.1-0.7l-2,1.3l-2.2,0.1
	L0.1,30L0,27.8l0.5-1.1L0,25.1l0.4-1.6l1-2.3l2.4-1.7l2.5-2.1l2.3-2.5l2.2-2.8l0.9-2.8l2-1.3l3.1,0.3l3.9,0.4L25,8.8l2.1-0.5
	l-1.9-2.1l-1.7-0.9l0.8-1.2l2-0.3l1.8,1.6L30.7,6L32,4.4L33.8,4l1.7-0.8l1.4-0.7l2.2-1.1l1.5-1.2L42.8,0l1.7,0.3L47.1,1.2z"/>
</svg>
