<?xml version="1.0" encoding="utf-8"?>
<!-- Generator: Adobe Illustrator 26.0.0, SVG Export Plug-In . SVG Version: 6.00 Build 0)  -->
<svg version="1.1"
	 id="svg2" xmlns:cc="http://creativecommons.org/ns#" xmlns:dc="http://purl.org/dc/elements/1.1/" xmlns:mapsvg="http://mapsvg.com" xmlns:rdf="http://www.w3.org/1999/02/22-rdf-syntax-ns#" xmlns:svg="http://www.w3.org/2000/svg"
	 xmlns="http://www.w3.org/2000/svg" xmlns:xlink="http://www.w3.org/1999/xlink" x="0px" y="0px" viewBox="0 0 97.3 77.4"
	 style="enable-background:new 0 0 97.3 77.4;" xml:space="preserve">
<path id="IN-JH" d="M3.7,19l4.6,0.5l3.2-0.6l1.3-0.3l1.3-2.1l1.1,0.6l1.3,3l0.6-0.5l0.1-0.8l0.7,0.7l-0.1-0.8l0.3-0.2l0.6,0.5
	l0.4-0.4l0.5,0.5l0.5-0.5l-0.2-0.3l0.5,0l0.7,1.5l-0.7,0.5l0,0.7l0.8,0.5l-0.3,0.2l0.4,0.6l1,0.1l0.8,0.7l-0.1,0.6l0.8-0.2l0.8,1.2
	l0.7-1.2l-0.1-0.8l0.9-0.2l0.1-0.7l1.8,0.4l0.4-1.4l2.4-1.7l0.8,0.4l0,1.4l1-0.2l0.4,2.1l1.5-0.1l0.5-0.8l1.3-0.1l0.5-0.6l-0.2,1.2
	l0.5,0.2l1.7-1.2l-0.4-0.8l2.7-0.8l0-0.7l4.3-0.6l0.7,0.6l0.4-0.9l0.7,0l0.2-0.9l1.8,0.5l-0.3-2.4l1-0.6l0.8-2.5l0.8,0.5l2.1,0
	l1.5,1.6l2.1-1.1l-0.2,0.9l1-0.1l0.8,0.9l0.2,2.3l1.3,0.4l0.5-0.6l1,0.8l1.2-0.2l-0.4,0.6l0.2,1.1l-0.7,1.1l1.5,0.4l1.4,1.5l0.8,0.2
	l0.3-1.2l0.5-0.1l0.4-2.1l0.9-0.4l1.2-1.6l1.4,1l1.3-0.3l0.4-1l0.5,0l0.6,0.6l-0.1,0.7l0.8-0.1l0.4,0.4l0.5-0.4l0.7,0.7l-0.3-1.1
	l0.7-1.3l2.5,0.8l1-4.5l-0.4-0.5l0.8-0.8l0.8-0.1l0.1-0.6L80,7.5L81.4,6l0.8-0.4L83.1,6l0.7-3.1l1,0.4l0.5-0.5l1.7,0.8l0-1.1L87.3,2
	L87,1.2l1.2,0.3l0.2-1.1L89.1,0l0.6,0.9l1.6,0l0.5,1.2l1.6,0.2L93.4,3l0,0l-0.2,3l2.1,1.5l1.9,2.3l0.1,0.8l-1.8,1l0.2,0.7l-0.6,0
	l0.2,0.7l-0.5,0.7l-0.4,0l0-0.6l-0.4,0.5l0.5,0.6l1.3,0.4l-0.3,1.1l0.6,0.4l-0.6,0.7l0.4,0.3l-0.6,0l0.8,0.4l-0.5,0.7l-0.8,0.3
	l-1.6-0.7l0.8,0.8l-0.2,1.2l0.2-0.5l0.3,0.4l-0.8,1.8l0.5,0.2l-1.1,2.4l-1,0.3l-0.6,1l-1,0.1l0,0.7l1.1,0.6l-0.1,0.8l-2.5-0.1
	l0.8,0.6l-0.8,0.5l0.1,0.5l-1.7-0.7l0,1.5l0.4,0.3l-0.6,0.6l-1,0.1l0.5,0.6l-2.1-0.6l-0.6,0.3L83.6,31l0.4-0.6l-2-0.2l0.5,1.7
	l0.6,0.2l0.1,1.3L82.6,34l-0.5-0.8L82,35.1L81.5,35l-0.6-0.2l0.1-0.3l-1.4-0.3l0.7,1.1l-0.4,0.6l-0.5,0l-3.3-1.6l-0.6,0.5l-0.9-0.8
	l-0.4,0.4l-0.1,0.4l-1.1,0.8L72.6,35l0.6,1.6l-0.6,1.7l-1.1,0.2l-0.1-0.4l-0.8,0l-2.1,0.5l-1.3,1l-1.9,0l0,0.5L64,40.6l-0.5,0.9
	l-0.1,1.1l0.4,0.3l-1.5,0.9l0.3,0.4l-0.3,0.2l-0.5-0.5l-0.7,0.5L60.7,44l0.3-0.8l-0.4,0.3l-1.6-0.4l0-2.2l-2-0.4l-0.8,0.7l0.8,1.3
	l-2.2,0.9l-1.6-0.4l-0.1,1.4l0.7,0.9l-0.6,0.1l0.2,0.9L52.4,48l0.1,1.6l0.5,0l1.2,1.5l2.6-0.3l0.2,0.8l1.9,0.6l0.3,1l1.3,1.1
	l1.8-0.5l2,0.9l0.5-0.5l1.7,0.1l0.3,0.5l0.6-0.5l-0.5,1l-0.7,0.2l-0.3-0.3l-0.8,0.6l0.6,0.6l-0.6,0.8l-0.3,1.9l1.9,1.7l0.7-0.4
	l1.6,1.1l0.7,2.2l2.3,0.1l0.8,1.7l-0.2,0.6l-0.9,0l0.4,1.1l1.7,0.7l-0.3,1.6l1.2,0.7l0,1L73.1,71L73,70.7l0,0.6l-0.2,0.6l-0.5,0
	l-0.2,0.1l-0.9-0.1l0,0l-1.5-0.4l-0.1-0.6l-1.1-0.3l-0.3-0.5l-1,0l-0.7-1l-1.3,0.4l-0.1,0.5l-1.7-1l-1.5-2.3l-3.6-0.9l-1.4-1.8
	l-0.3,1l-1.1,0.5l-0.3,1l1.2,0.7l0.3,1.1L55.9,69l0.6,0.2l-0.3,0.4l0.7,0.1l-1.5,1.4l1.2,1.3L56,74.2l-1.2,2l-0.6,0.3L54,77.4
	l-3-0.5l0.6-2l0.9,0l-0.6-0.8l-2.5,1.4l-0.8-0.9L47.5,75l-1.1-0.3l-3-1.6l-0.7,0.1L42.6,74l-0.7-0.1l-0.5,0.4l-1.4,2.4l-0.4-1
	l-0.8-0.6l0,0.5l-0.3-0.5l-0.8,0.1l-0.5-0.7L36,74.2l-0.9,0.7l-0.5-0.1l0.9-0.6l1-3.6l0.9-0.4l0-0.5l-0.5,0L37,69l-0.4-0.2l-0.2-2.9
	l-2.3,0.9L34,66.5l-1.1,0.7l-0.4-0.6L31.6,67l-0.5-0.5l-1.2,0.1l-0.2,0.6l-4.5-0.1l-1,0.3l0,0.5l-0.6,0.1l-0.5,0.7l-2.9,0.3
	l-0.9-0.8l-1.1,0l-0.9-0.7L17,66l-2.8-1.1l0,0l0.1-1.1l1.6-1.5l1.5,0l1.5-0.8l0.1-1.5l0.6-0.6l0.6,0l0.9-2.2l0.8-0.1l0.4-1.7
	l-0.4-0.8L20,54.9l-0.1-0.6l-1.1,0.3l-0.6-1.1l-0.9,1.4l-0.4-2.7l-2-1.3l0.8-4.4l-0.6-1l-0.8,0.5l-0.9-0.6l0.1-1.7l1.1-2l-0.3-2
	l-1.4,0.2l-0.1,1.4l-3.4-0.8l-1.3-1.9l0.3-1.7l-0.7-1.5l-2.8-1l0.3-0.5l-0.7-0.3l-0.8-3l-1.2-0.3l-0.5-0.9L0,28.8l0,0L1.6,25
	l-0.5-1.1l1.6-1.2l-0.5-0.9l-0.6-0.1l-0.4-1.1l0.2-1L3.7,19z"/>
</svg>
