<?xml version="1.0" encoding="utf-8"?>
<!-- Generator: Adobe Illustrator 26.0.0, SVG Export Plug-In . SVG Version: 6.00 Build 0)  -->
<svg version="1.1"
	 id="svg2" xmlns:cc="http://creativecommons.org/ns#" xmlns:dc="http://purl.org/dc/elements/1.1/" xmlns:mapsvg="http://mapsvg.com" xmlns:rdf="http://www.w3.org/1999/02/22-rdf-syntax-ns#" xmlns:svg="http://www.w3.org/2000/svg"
	 xmlns="http://www.w3.org/2000/svg" xmlns:xlink="http://www.w3.org/1999/xlink" x="0px" y="0px" viewBox="0 0 52.9 95.8"
	 style="enable-background:new 0 0 52.9 95.8;" xml:space="preserve">
<path id="IN-KL" d="M0,0.8L2.6,0L3,0.6L2.5,1.3L3,1.5L2.9,1.7l0.9-0.1l0,1.2l0.7-0.1L4.6,2l1.4,0.5L5.8,3.4l0.3,0.3L7,3.6l0.4,1.3
	l1.1-1.1l1.1,0.6L8.6,4.9l0.1,1l1.1,0.6l0.1,0.7l1.5-0.9l0.2,0.8l-1.2,0.2l0,1l1.2,0.9l0,1.7l1.3,0l2,2.9l1.2,0.2l0.6,1.1l0.8-0.2
	l0.3,0.8l1.7-0.2l0.5,1.9l1.1,0.9l2.5,0.4l2.4-1l0,2.6l1.6-0.3l0.7,1.4l1.1-0.1l1.3,1.6l1.5-0.5l0.2,0.8L32,23.4l0.6,0.9l0,0l0,0.8
	l-0.9,0L31,25.9L30,26.3l-0.6-0.6l-0.9,0.6l0.3,2.2l0.8-0.3l0.9,0.6l0.3-0.3l1.6,0.5l0.8,1.1l1.3,0.7l0.6-0.1l0,1.3l-2,1.3l0.1,1.1
	l0.7-0.5l2.8,0.4l1.5-1l0.6,0.5l-0.7,1.4l1,0.5l0,1.6l1.2,0.1l-1.8,0.2L37.3,40l3.5,1.3l0.5,1.2l1,0.2l0.2,0.6l-0.9,2l0.4,1
	l-1.4,0.1l0.5,0.9l-0.5,3.6l0.7,1.2l-0.4,1.4l0.4,0.4l0.5-0.3l0,0.5l0.9,0.9l1.4,0.3l1.4-0.8l0.3-0.8l2.3-1.3l1.2,0.1l-0.2,0.7
	l0.8,1.1L49.8,55l0.7,0.3l-0.4,1.9l-1.5,0.6l1.3,1.5l0.2,1.4l-0.5,0.2l-0.7,1.6l0.5,0.4L49,63.6l0.5,0.6L49,64.3l0,1.2l-0.4,0.1
	L47.8,68l0.9,0l1.2,0.8l1-0.6l0.4,0.6l0.3-0.7l0.2,1.5l1,0.6l-0.4,1l-0.9,0.4l-0.5,2.2l-0.6,0l-0.4,0.8v1.7l-0.6,0.6l0.3,0.8
	L48.7,79l-0.3,1.1l-1,0.5l1,1.4l0,0.7l0.5,0l0.8,1.2l-0.6,1.8l-0.8,0.9l-0.4-0.1l2.3,4.2l-0.4,0.8l-1.3,0.2l0.5,1.2l-1.6,1.3
	l0.5,1.4l-0.8-0.2l-0.5,0.5l0,0l-2.5-1.8l-7.2-9.6L35.1,83l-0.6-2.5l-3.8-8.4l-2.1-11.7l0.3-0.1l0.9,1.7l1.4,1.5l0,2.6l0.6,0.4
	l-0.7,3.3l0.5,0.4v-0.4l2.5-0.1l-1.8-0.7l0.3-1l-0.2-0.8l-0.4,0.1l0.2-1.1L31.7,66l-0.1-3.4l-0.8-1.2l-0.3,0.1l0.2,0.6L30.4,62
	l-1.4-3l0.3-1.1L28,56.5l0.8,3.5l-0.4,0.1l-2.6-8.6l-4-8.8L20.7,38l-2.6-7.2l-1.1-2l-1.4-0.6l-1.6-4.4l-2.9-3.3l-1-0.5l-1.9-3.1
	l-0.7-0.4L7,16.8l-0.4-1.9L2.2,6.3L0,0.8L0,0.8z"/>
</svg>
