<?xml version="1.0" encoding="utf-8"?>
<!-- Generator: Adobe Illustrator 26.0.0, SVG Export Plug-In . SVG Version: 6.00 Build 0)  -->
<svg version="1.1"
	 id="svg2" xmlns:cc="http://creativecommons.org/ns#" xmlns:dc="http://purl.org/dc/elements/1.1/" xmlns:mapsvg="http://mapsvg.com" xmlns:rdf="http://www.w3.org/1999/02/22-rdf-syntax-ns#" xmlns:svg="http://www.w3.org/2000/svg"
	 xmlns="http://www.w3.org/2000/svg" xmlns:xlink="http://www.w3.org/1999/xlink" x="0px" y="0px" viewBox="0 0 93.8 149.4"
	 style="enable-background:new 0 0 93.8 149.4;" xml:space="preserve">
<path id="IN-KA" d="M0.6,61.5L0,61l0.8-0.2L0.7,60l1.5-0.8l0.5-0.7l0.5,1l0.9,0l1.5-0.7l0.5-1.5l-0.9-0.2l0.6-0.9l0.4,0.9l0.4,0
	L6.2,56l1.6-3l-0.7-0.4l-1,0.5l-0.5-0.4l1.4-1.3L8.2,52l-0.1-1.3l0.6-0.9l-0.2-0.9l-1.7-0.6l0-0.5l-1.4-0.2L5,48l0.3-0.5l-0.5-0.7
	l0.1-1.2l0.4-0.2l0.4,0.6l0.2-0.6l-0.6-0.1L5.1,44l-0.9-0.1l0.1-1l-0.7,0.6l-0.3-0.4L4,42.9L3.8,42l0.8,0.9l0.3-1.1l0.8-0.1
	l-0.1,0.4l0.6,0.2l0.3-1.1l1.4-0.6L8,39.4l0.4,0.7L9.6,40l0.5,1.8l1.3-0.5l0.1-0.7l1,0.1l-0.6-0.7l0.7-0.8l0-0.9l3.3-1.2l1.4,0
	l-0.2-1.9l1.1-0.5l0.1-0.6l-0.8-0.4l0.2-0.3l1.9,0l0,0.3l1.2-0.5l1.1,1.6h1l-0.1,0.7l0.7,0l1.4-0.7L25,33l1.2,0l1-0.5l0.8,0.3
	l0.8-0.5l0.5,0.9l1.6-0.5l0.1-1l0.7,0.1l0,0.7l0.7,0.4l0.6-0.2l0-1.7l-0.6,0l0.7-0.6l0-0.7l-1.1-1.7l0.7-0.8l0-1.2l-1.1-0.9l0.1-0.9
	l-0.6-0.2l-0.1-0.7l0.8-0.2l0.4-1.9l0.9,0.4l0.3,1l1-0.2l1.4,1.1l0.5-1.2l0.8,0.8l0.5-0.7l0.1,1.4l0.8,0.6l2.6-0.7l0.5,0.5l0.9-0.8
	l0.9,0.6l0.3,1l-0.1-1.1l1.5-0.6l0.7,1l1.4-0.4l0.2,0.9l0.6,0l0.6-1.3l-1-0.1l0.2-1.3l-0.8,0l-0.1-0.8l0.9-0.5l-0.7,0l0.5-0.6
	L47,20.1l-0.2-1.1l1.8-0.2l0.3-0.9l1.3-0.4l-0.1-1.2l0.8,0l0-1l1,0l0,1.3l0.9-1.5l1,1.8l0.6,0.2l0.2-1l0.6-0.2l-0.2-1l1-0.1l0.5-0.9
	l-1.1-0.7l0.1-0.9l1.3,0.7l2.4-1l0-2.6l0.8-0.1l-0.2-0.8l0.4-0.5l-1-0.4l0.7-1.5l0.7-0.1l0.8,0.6L61.5,6L62,6.7l1.1,0l-0.3-0.9
	l1.1-0.5l0.4-1.4l0.7,0.1l-0.2-0.8l1-1.3L65.8,1l1.6-1L68,0.5l0.6-0.4l0,1l0.8,0.3l-1.1,1.7l1.6,0.1l0.6,1l0.9-0.4l0-0.6l0.8,0.3
	l0,0l1.1,0.3l-0.8,1.7l0.7,1.1l0.1,1.2l-1.1,1l1,1l1.1,0.4l0.2,0.5l-0.2,0.5l-0.4-0.3l-0.1,1.2L73.1,12l0.2,0.8l-0.5-0.1L72.3,14
	l-0.5-0.2l-0.3,0.6l-0.1,0.4l1.3,0.4l-0.1,0.4l-2.3,1.2L70,19.2l1,0.3l0.2,0.6l0.5-0.7l0.4,0.5l0.9-0.3l0,0.7l2,0.6l0,0.7l-0.8-0.2
	l0.1-0.5l-0.3,0.6l-0.6,0.1l0,0.6L72.8,22l0,0.5l-1.3,0.1l0.5,0.5l-0.2,0.7l-0.6,0.4l-1-0.4l-0.4,1.8l0.4,0.3l-1.6,1.2l0.4,0.2
	l-0.8,1l2.1,1.3l0.8,2.1l-1,2.2l0.4,2.8L70,36.7l-0.3,1.5l0.9,0.1l0,0.7l-1,0.3l0.3,0.6l0.8-0.2l-0.1,1.4L69,41.5l0.5,1l-0.8,0.2
	l-0.3,0.6L67,43.1l-0.1,0.4l-1.2,0.1l1,1.4l1.2,0.5l1.4,0.4l1.7-0.3l2,0.8l0,1.1l-0.5-0.2L72,48.1L71.3,48L71,48.4l0,0.6l0.5,0
	l-0.6,1.4l0.1,0.9l0.5,0.3l-0.4,1.6l0.4,0.6l0,1.8l0,0L66,54.8l-2.2,0.4l-1.6,0.9l-0.9,1.5l0.9,0.2l-0.4,1.9l1.7,1.6L63.2,62
	l-0.7-0.6l-1.1,0.4l-0.1,2.9l-1.1-0.1l0,0.3l1.2,1.2l0.7,2.5l1-0.1l0.1,0.8l0.7,0.1l0.3,0.6l-0.9,0.8l0.8,0.6l0,1l-0.5,0.1L64,73
	l-1.6,2.6l-0.8-0.1l0.1-0.5l-1,0l-0.4,0.4L58.2,75l-1.7-1.3l-0.5,0.4l0.2,1.2l-0.4,1l1.3,0.4l0.8-0.3l-0.3,3.5l-1.4,0.5l0.4,1
	l-0.8,2.9l0.8,1.6l0.6,0.1l0.9,1.2l2.2-0.2l-0.6,0.7l0,1L59,88.3l-0.6,0.5l-0.1,0.9l1.5,1.1l-0.5,0.5l0.3,0.7l2.3,0l0.5,0.7l0.6-0.1
	l0.1-1.6L64,90l1.7,0.6l1-0.4l0,1.2l1.7,0.1l-0.1,0.8l0.6,0.8l0.7-0.4l-0.9-1.8l0.2-0.6l1.2,0.3l0.3,0.8l0.9,0l0.1,2.6L69,93.7
	l-0.3,0.8l-0.6,0.1L68,95.2l0.9-0.5l0.1,0.3l-1.4,1.7l1.2,0.3l-0.2,0.8l1.2,0l-0.5,0.7l0.4,0.6L69,99.9l0-0.4l-0.9,0l0.1-1.9
	l-0.8-0.9l-3.5,0.7l-0.5-1.1l-2-0.2l-0.3-1l0.2-1.6l-1.6-0.4l-0.1,0.5l-1,0.1l-0.2,0.6l0.9,0.1l1,1.3l-0.9,0.9l2.2,2.1l0.1,0.6
	l-0.5,0.1l-1,1.7l0.5,1.5L61,103l0.3-0.8l0.7,0.7l0.7-0.5l1.5,0.1l-0.1-1.4l-0.8-0.6l0.8-0.2l-0.1-0.9l0.4-0.4l0,1.2l0.5-0.5
	l0.1,0.4l0.5-0.7l0.3,1.2l1.2-0.4l0.3,0.7l0.8-0.4l1.4,0.2l-0.3,0.8l1,0l-0.2,2.6l0.7-0.1l0.1-0.6l0.5,0.5l0.2-1.3l0.8,0.6l0.8-0.6
	l0.5,0.3l0.3-0.2l-0.6-0.4l0.8-0.4l0.4,0l-0.1,0.5l0.7-0.2l0.3,0.6l0.1-1.2l1.4-0.5l-0.1-0.5l1.1-0.5l-0.4-1l0.2-0.6l1.4,0.1
	l0.5,0.7l1.1-1.2l0.2,1.2l-0.7,0.3l0,1.3l0.4,0l0.4-0.9l1.1,0.2l0.1-0.7l1.5,1l0.1,1.4l-0.7,0.9l0.5,0.5l-0.1,0.6l-0.9-0.1l-0.1,0.5
	l0.5,0.7l1.6-0.3l0.1,0.5l0.7,0.2l-0.2,1.3l0.9-0.7l3.4,0.2l-0.7,4.8l0.9,0.5l-0.6,0.3l0.5,0.4l0.7-0.3l0.2,0.4l0.7-0.2l1,1.1
	l0.7-0.9l0.5,0.8l-0.2,1.2l-0.6,0.4l0.6,0.7l-1.3,0.8l0.4,0.5l-0.5,0.3l0.1,0.6l-1.1,0.5l0.1,1.5l-0.7-0.1l0.3,1.5l-1.2,0.1
	l-0.7-0.7l-0.9,1.7l-1.3,0l-0.4,2l0,0l-2.1-0.4l-1.5-1.6l-0.7-0.1l-0.3,1.1l-0.4,0l-0.8-1.2l-0.4,0.8l-0.3-0.2l0.5-0.7l-0.4-0.5
	l-2.8,1l0.3,1l-1.4,2.6l-0.6-0.2l-0.5,0.5l-0.5-0.5l-1.3,0.4l0.2,0.8l-0.6,1.4l0.2,1.1l0.6,0.2l-0.6,0.7l1-0.2l-0.1,1.5l-0.3,1.2
	l-1.3,1.5l-1.5,0.5l-0.1,1.3l5.5,0.7l0.9,1.3l-1.7,2l-0.6,1.5l-3.7,0.1l-0.2,1.2l-0.5-0.3l0.1,1.1l-0.8,1.9l-1.3-0.6l-0.7,0.4
	l-0.9-0.8l-0.9-0.1l-0.3,0.4l-2.6,0.4l0.1,1.1l-0.8-0.3L62,145l-0.7,0.3l0.2-0.4l-0.6-0.4l-0.7,0l-0.3,0.8l-1.3-0.4l-1.5,3l0.5,0.9
	l-0.3,0.6l-0.4-0.5l-1.5-0.3l-3.9,0l-0.4-1.3l-0.8-0.6l-1.1,0.9l-0.6-0.1l0,0l-0.6-0.9l0.5-0.3l-0.2-0.8l-1.5,0.5l-1.3-1.6l-1.1,0.1
	l-0.7-1.4l-1.6,0.3l0-2.6l-2.4,1l-2.5-0.4l-1.1-0.9l-0.5-1.9l-1.7,0.2l-0.3-0.8l-0.8,0.2l-0.6-1.1L31,137l-2-2.9l-1.3,0l0-1.7
	l-1.2-0.9l0-1l1.2-0.2l-0.2-0.8l-1.5,0.9l-0.1-0.7l-1.1-0.6l-0.1-1l1.1-0.5l-1.1-0.6l-1.1,1.1l-0.4-1.3l-0.9,0.2l-0.3-0.3l0.2-0.9
	l-1.4-0.5l-0.1,0.7l-0.7,0.1l0-1.2l-0.9,0.1l0.1-0.3l-0.6-0.2l0.5-0.7l-0.3-0.6l-2.6,0.8l0,0l-1-2.1l-2.6-10.7l-0.5-6.2l-1.3-5
	l-0.8-1.7L9.1,98l-0.6-1.2l-0.6-3.5l-0.6-0.9l-1.8-6l0.8-0.6l-0.6-0.5L5.5,86l-1,0l-0.3-1.8l-0.5-0.5L4,83.4l-0.4-1.6l-0.7-0.7
	l-0.6,0.7L0,80l0.6-0.1l0.2-0.9l-0.4,0L0,77.9l0,0l0.9-0.5l0.8,0.2l-0.1-0.9l0.8,0.6l1.2-1l-0.2-0.5l0.9-1.1l-0.5-1.2l0.2-1l0.7-0.9
	l-0.3-0.9l-1-0.7l1.8-0.8l-0.3-1.6l-1-0.5l0-1.2l-0.5-1L4,64.2l-0.7-0.9l0.3-1l-0.3-1l-0.5-0.3l-0.4,0.4L2,60.8l-0.3,0.6L0.6,61.5
	L0.6,61.5z"/>
</svg>
