<?xml version="1.0" encoding="utf-8"?>
<!-- Generator: Adobe Illustrator 26.0.0, SVG Export Plug-In . SVG Version: 6.00 Build 0)  -->
<svg version="1.1"
	 id="svg2" xmlns:cc="http://creativecommons.org/ns#" xmlns:dc="http://purl.org/dc/elements/1.1/" xmlns:mapsvg="http://mapsvg.com" xmlns:rdf="http://www.w3.org/1999/02/22-rdf-syntax-ns#" xmlns:svg="http://www.w3.org/2000/svg"
	 xmlns="http://www.w3.org/2000/svg" xmlns:xlink="http://www.w3.org/1999/xlink" x="0px" y="0px" viewBox="0 0 33.5 73.2"
	 style="enable-background:new 0 0 33.5 73.2;" xml:space="preserve">
<path id="IN-LD" d="M20.3,72.3l0,0.5l-0.4,0.4l-0.4,0l-0.3-0.1l0-0.1l0.1,0.1l0.4,0l0.3-0.2L20.3,72.3L20.3,72.3z M32.5,34.2
	l-0.1,0.9l-0.1,0.1l-0.1-0.3l0.1,0l0.1-0.1L32.5,34.2z M4.8,33.5l0.1,0.2l-0.1,0L4.8,33.5z M32.7,33.1l0.1,0.3l-0.1,0.3
	C32.7,33.6,32.7,33.1,32.7,33.1z M11.3,24.1l0.2,0.1l0,0.2l-0.7,0.4L11.3,24.1z M33,18.9L33,18.9l0.5,0.1l-0.6,0.2l-0.2-0.1l0-0.2
	L33,18.9L33,18.9z M1.5,18.9l0.3-0.6L2,17.9l0.1-0.1l0.1,0L1.5,18.9L1.5,18.9z M4,16.2L4,16.2l0,0.2l-0.1,0l0-0.2L4,16.2L4,16.2z
	 M4.7,16.1l-0.3,0.2l0-0.1L4.7,16.1z M13.2,12.2l0,0.2L13,12.7l-0.1-0.1l0-0.2L13.2,12.2z M0.1,10.5L0.1,10.5L0.1,10.5L0.1,10.5z
	 M14.4,9.5l-0.2,0.9l-0.4,0.8l0.3-1.3L14.4,9.5z M18.8,4.5L19,4.7L19.1,5L19,5.1l-0.1-0.5L18.8,4.5L18.8,4.5z M1.8,2.2l0.1,0.1
	L1.8,2.2L1.8,2.2L1.8,2.2z M12.9,0l0.1,0.3l-0.2,0.2L12.9,0L12.9,0z"/>
</svg>
