<?xml version="1.0" encoding="utf-8"?>
<!-- Generator: Adobe Illustrator 26.0.0, SVG Export Plug-In . SVG Version: 6.00 Build 0)  -->
<svg version="1.1"
	 id="svg2" xmlns:cc="http://creativecommons.org/ns#" xmlns:dc="http://purl.org/dc/elements/1.1/" xmlns:mapsvg="http://mapsvg.com" xmlns:rdf="http://www.w3.org/1999/02/22-rdf-syntax-ns#" xmlns:svg="http://www.w3.org/2000/svg"
	 xmlns="http://www.w3.org/2000/svg" xmlns:xlink="http://www.w3.org/1999/xlink" x="0px" y="0px" viewBox="0 0 24.8 58.8"
	 style="enable-background:new 0 0 24.8 58.8;" xml:space="preserve">
<path id="IN-MZ" d="M0.8,6.2l2.6,0l0.3,2.3l0.9,0.3l0.1-0.5l1-0.3l0.4-1.6l1.3-0.2l0.3-1.8L9,3.8L10.6,0l1.3,3.3l0.7-0.5l0.9,0.1
	l0.1-0.4l0.5,0.4l1.4-0.2l0,0L16,3L16,4l0.5,0.1l-0.7,1.4L16,7.2l-1,2.2l1.6,0.6l0.5-0.3l0.4,1.3l1-1l0.5,0.8l1,0.1l0.1-0.8l0.5,0
	l0.4,0.6l-0.2,0.8l0.7-0.6l1,0l0,0l-0.1,1.5l1.3,1.3l0.1,3.9l0.8,1.8l-1,5.7l0.4,1l-1,0.8l0.6,3l-0.4,1.7l0.4,0.3l-2,3l-0.9,0
	l-1.2-1.2l-1.3,0.3l-0.1,1.1l0.8,1.9l-0.6,0.1L17.9,39l-0.4,0.1l0.3,1.5l-0.4,0.8l1.1,2.5l-0.7,1.5l0.5,0.3l0.2,1.3l1,0.8l0.4,3.8
	L18.6,52l0.5,1.1l-0.3,0.5l-1.6-0.7l-0.6,0.3l0.4,2.2l-1.1,0l-0.1,2.7l-0.4,0l-0.7-1.1l-0.5,0.3l-0.4,1.6l-0.9-2.7l-0.5,0l-2.7-2
	l-0.4,0.1l-0.3,3l-1.6,0.9l-0.1-1.8l-0.7-1.6l0.4-0.2l0.5,0.4l0.1-1.2l-1.7-8.8l0-2.1l-0.4-1.8l-0.6-0.3l-0.6-1.6l-0.2-1.6l-0.3,0.2
	l-0.2-0.8l-1-0.3l0.4-2.8l-0.6-1.1l-0.1-3l1-0.2l-0.7-1.8l0.2-0.9L1.3,24l-0.5-3.5l-0.4-0.1L0.8,19l-0.6-0.8l0,0l-0.2-2l0.6,0
	l-0.3-0.7l0.4-0.5l0.6,0.1L1.5,14l-0.4-1.1l0.4-0.7l-0.3-1l0.5-2.6L0.8,6.2z"/>
</svg>
