<?xml version="1.0" encoding="utf-8"?>
<!-- Generator: Adobe Illustrator 26.0.0, SVG Export Plug-In . SVG Version: 6.00 Build 0)  -->
<svg version="1.1"
	 id="svg2" xmlns:cc="http://creativecommons.org/ns#" xmlns:dc="http://purl.org/dc/elements/1.1/" xmlns:mapsvg="http://mapsvg.com" xmlns:rdf="http://www.w3.org/1999/02/22-rdf-syntax-ns#" xmlns:svg="http://www.w3.org/2000/svg"
	 xmlns="http://www.w3.org/2000/svg" xmlns:xlink="http://www.w3.org/1999/xlink" x="0px" y="0px" viewBox="0 0 172.5 142.3"
	 style="enable-background:new 0 0 172.5 142.3;" xml:space="preserve">
<path id="IN-MH" d="M31.3,1.6l1.1,0.6l1.9-0.2l0.3-0.7l1.1-0.3l0.7-0.9L37.6,0l0.1,1.3l0.9,0.4l0.7,1L38.8,5l0.2,1.8L39.8,7l0.1,0.8
	l4.9,1.6L47.1,9l3.3,1.5l1.2,2.4l2.2,1.1l1.7-0.1l0,0.6l1.2-0.3l0.8,0.5l1.5-0.3l1.7,0.5l1.3-0.5l1.4,0.3l4.5-0.4l1.7,0.1l1.8,0.9
	l1-0.5l1.3,2.6l-0.3,0.5l0.6,1.1l-0.1,0.4l-1.1,0.1l1.2,1.8l1.9-0.2l0.4,0.4l2,0l1.6-0.8l0.7-1.8l2.8,0.1l0.8-2l-0.8-1.2l3.3-3
	l0.2-0.5l-0.6-0.7l0.5-0.4l0.2-1.3l0.8,0.1L88,9.3l1,0.3l3.6-2.8l1.8,0.2l0.3-0.3l0.8,0.8L95.7,7L97,6.8L97,6l4-0.2l1.4,1.6L103,9
	l0,1.5l0.8,0.4l-0.8,0.3l-2.3-0.6l-0.8,0.5l0.4,1.4l0.6,0.4l0.4,1.8l2,0.3l0.4-0.1l-0.1-0.6l1,0l0.3,0.5l0.5-0.6l0.3,0.9l0.6-0.1
	l0.3-0.5l0.9-0.1l0.1-0.5l1.7,0.8l1.2-0.2l4.8-2.5l0.2-1.4l1.8-0.3l-0.1-0.5l0.8,0.5l0.7-0.4l0.5,0.3l0.4-0.9l0.9,0.4l0.2,2.3
	l1.6-0.6l1.2,0.3l0.4,0.6l2.8,0.5l0.6-0.7l0.5,0.6l0.3-0.5l2,0.1l0.3-0.4l0.8,0.3l0.2-0.6l-0.8-0.9l0.5-0.1l-0.3-0.7l1.7-0.6
	l0.3,0.4l1.6,0.1l1.2-1.4l1.5,0.2l0.2-1.6l2.5,1l1,0.1l0.4-0.4l1.5,0.4l1,2.9l2.3-0.3l1.8-1l2.6,1.6l1.2,0.1l0.4-0.7l1.2,0.5
	l1.5-0.4l1.1-1.2l1.5-0.6l1.5,0.3l2.3,2.2l0.9,1.9L162,14l0.3,0.7l0.8,0.1l0.2-0.7l0.8,0.1l2.3,1.6l1.3-0.1l0,0l0.3,0.7l-0.8,1.1
	l-3.7,1.7l-0.5,1.7l0.3,1.4l-0.5,0.6l0.7,1.7l1.8,0l0.1,3.8l0.7,1.8l-1.5,0.7l-0.5,0.8l0.6,0.7l1.2-0.6l1.2,0.2l-0.8,4.7l0.7,1.4
	l-1.6,0.6l-0.7,0.8l-2.7,0.6l0.6,1.2l-0.6,0.6l0.2,0.4l2.2,0.1l0.9,0.6l0.1,1l0,1.8l-0.5,1.3l-0.8,0.1l-0.8-0.6l-0.8,0.4l0,0.6
	l1.6,0.2l0.3,0.7l-1.4,1.3l-0.7-0.1l-0.1,0.5l1.2,0l0.5,0.5l-0.2-1.2l1.5,0.1l-0.1,1l2.6,1.8l-0.2,1.8l1.3,0.1l1,0.9l1.3,0.1
	l0.4,0.7l0.7,0.2l0.3,1.2l-2.2,0.9l1.2,1.5l-2,1.6l-1.3,0.1l-0.3-1l-1.3,0.4l-0.9-2.1l-1.9,1.5L163,62l-1.1,0.5l0.1,1.1l-1.3,1.1
	l-0.1,1.5l-1.1,1.9l0,1.3l1.7,2.3l-1.5,1.3l-0.7,0.1l0.5,0.9l0,0l-1.4,0.5l-0.3,0.5l-0.6-0.5l-1,0.4l-2.1-2l-1.7-0.4l-0.8-1l0.9-0.6
	l-0.1-3.6l-0.4-0.6l-1.2,0.3l0-1.5l1.8-1.5l-0.5-1.2l0.9-1.6l0.2-2.3l-0.7-1.4l-2.3-1.6l-0.9-1.3l-0.9-0.2l-2.1,0.6l-0.9,1.6l-1-0.4
	l-0.2-0.6l-1.5,1.1l-2.1-1.6l-1.1,0.1l-0.2-0.5l-1.3-0.5l-0.2,1.9l-0.6,0.8l0.3,0.5l-0.9,0.2l-1.6-1.5l-1.8-0.3l-0.5-0.5l-0.8,0.2
	l0.5-0.7l-0.2-1.4l-1.1-0.4l-1.2,0.3l-0.3-2.3l-1.3-0.5l-1.4,0.3l-2.4-1.1l-1.6-0.1l-0.7,0.6l-0.4-0.5l-1.6-0.4l-0.3-1l-1-0.1
	l-0.4-0.7l-0.5,1.5l0.9,0.2l0.6,1.3l-0.5,1.5l-1.2,0.5l-0.3,0.6l0.9,1.3l0,0.7l-0.7,0.3l0.6,2.3l-2.7,1l0.3,1.8l-0.6,2.1l-1.8-0.4
	l-0.7,0.3l-0.1-0.6l-2-1.6l-1.8,0.9l0,0.4l0.9,0.4l-0.8,0.3l-0.4,1.3l0.2,0.4l-0.6,1l0.4,1l-1-0.3l-0.1,1.1l-0.7-0.2l-0.1,0.7l0.2,1
	l1,0l-0.1,0.7l0.9-0.1l-0.3,0.9l0.9,0.1l1.3,1.9l-2.2,0.3l-1.1,2.7l-0.6-0.5l-0.5,0.7l0.1,2.7l-1.7,0.6l-0.2-0.6l-1.1,0.1l0.1,1.6
	l-0.5-0.2l-0.6,0.5l0.8,0.4l-1.2,0.4l0.6,0.2l-0.7,1.5l1,0.7l-0.4,0.6l0,0l-0.8-0.3l0,0.6l-0.9,0.4l-0.6-1L98.6,83l1.1-1.7L98.8,81
	l0-1l-0.6,0.4l-0.5-0.5l-1.6,1l0.1,0.8l-1,1.3l0.2,0.8l-0.7-0.1l-0.4,1.4L93,85.6l0.3,0.9l-1.1,0l-0.5-0.7l-0.2,0.5l-0.8-0.6
	l-0.7,0.1l-0.7,1.5l1,0.4l-0.4,0.5l0.2,0.8l-0.8,0.1l0,2.6l-2.4,1l-1.3-0.7L85.5,93l1.1,0.7l-0.5,0.9l-1,0.1l0.2,1l-0.6,0.2l-0.2,1
	L84,96.7L83,95l-0.9,1.5l0-1.3l-1,0l0,1l-0.8,0l0.1,1.2l-1.3,0.4l-0.3,0.9l-1.8,0.2l0.2,1.1l0.5,0.4l-0.5,0.6l0.7,0l-0.9,0.5
	l0.1,0.8l0.8,0l-0.2,1.3l1,0.1l-0.6,1.3l-0.6,0l-0.2-0.9l-1.4,0.4l-0.7-1l-1.5,0.6l0.1,1.1l-0.3-1l-0.9-0.6l-0.9,0.8l-0.5-0.5
	l-2.6,0.7l-0.8-0.6l-0.1-1.4l-0.5,0.7l-0.8-0.8l-0.5,1.2l-1.4-1.1l-1,0.2l-0.3-1l-0.9-0.4l-0.4,1.9l-0.8,0.2l0.1,0.7l0.6,0.2
	l-0.1,0.9l1.1,0.9l0,1.2l-0.7,0.8l1.1,1.7l0,0.7l-0.7,0.6l0.6,0l0,1.7l-0.6,0.2l-0.7-0.4l0-0.7l-0.7-0.1l-0.1,1l-1.6,0.5l-0.5-0.9
	l-0.8,0.5l-0.8-0.3l-1,0.5l-1.2,0l-0.1,1.8l-1.4,0.7l-0.7,0l0.1-0.7h-1l-1.1-1.6l-1.2,0.5l0-0.3l-1.9,0l-0.2,0.3l0.8,0.4l-0.1,0.6
	l-1.1,0.5l0.2,1.9l-1.4,0l-3.3,1.2l0,0.9l-0.7,0.8l0.6,0.7l-1-0.1l-0.1,0.7l-1.3,0.5l-0.5-1.8l-1.1,0.1l-0.4-0.7l-0.1,1.2l-1.4,0.6
	l-0.3,1.1l-0.6-0.2l0.1-0.4l-0.8,0.1l-0.3,1.1l-0.8-0.9l0.2,0.9l-0.7,0.2l0.3,0.4l0.7-0.6l-0.1,1l0.9,0.1l0.1,1.1l0.6,0.1l-0.2,0.6
	l-0.4-0.6l-0.4,0.2l-0.1,1.2l0.5,0.7l-0.3,0.5l0.4-0.5l1.4,0.2l0,0.5l1.7,0.6l0.2,0.9l-0.6,0.9l0.1,1.3l-1.1-0.5l-1.4,1.3l0.5,0.4
	l1-0.5l0.7,0.4l-1.6,3l0.4,1.1l-0.4,0l-0.4-0.9l-0.6,0.9l0.9,0.2l-0.5,1.5l-1.5,0.7l-0.9,0l-0.5-1l-0.5,0.7l-1.5,0.8l0.1,0.9
	l-0.8,0.2l0.6,0.4l0,0l-2.1,1l-0.6-0.1l-0.6-0.7l-0.5-2.1l-1.3-0.2l-0.4-1l-0.7,1.3l-3.2,0.3l0,0l-0.7-0.5l0.5-0.2l-1.8-3.4
	l-1.7-0.5l-0.6-2.1l-0.6-0.4l0.3-0.4l-0.7-2.8l-1-3.5l-0.4,0l0.8-0.9L15,125l0-0.9l-1-1.6l0-0.9l0.5-0.2l-0.5-0.8l0.5-0.8l-0.4-0.1
	l-0.2-3.6l-0.7-1.9l0.4-2.1l-0.5,0l0.3-0.6l-0.6-0.3l0.9-1.1l-0.7-0.8L12,106l-0.7-0.7l0.7-0.1l0.1,0.5l0.3-0.6l-0.8-1.7l-0.8-0.5
	l0.8-0.7l-0.4-0.1l0-1.4l-1-1.1l0.7-0.6L10,97.9l-0.3-1.3l0.4-0.5l-1-2l-0.3-2l-0.3,0.1l-0.7-1.2l0.2-0.9l-1-1.6l0.3-0.5L6.7,87
	l0.3-1.4L5.9,85L6,83.7l0.6,0l0.4,0.8L8.8,85l-0.3,0.8l0.7,0.8L9,84.8l-0.5-0.9l-1.3-0.1l-0.9-1.4L5.5,82l0.3-0.7l-0.6-1.9l0.7-1.5
	l-1.5-3.4l0.3-2.4l1,0.3l0.5-0.8l0.6,0.8L6.9,72l0.1-1.2l-1.3,0.3l-0.4-1.1l1-0.1L6,68.9l0.3-0.6l0.5,0.3L8,67.8l-0.6-0.1l-0.2-1.3
	l-0.6,0l-0.2,0.7l-1,0.8l-1-0.3l-0.4,1.7l-0.8,0.7l0.3-1.1L3,68.9l0.5-1.7l0.2,0.2l0.2-0.5l-0.5-0.1l0.2-1.1l-1-1.6l0-2.5l0.4-1.2
	l-0.9-1L2,57.5l0.7-0.6l0.1-0.8l-0.4,0.5l-1-0.8l-0.1-1.3l0.5,0l-1.1-4.4l-0.8-1l0-0.4l0.6-0.2L0.3,47l1.1-0.9l-0.2-2.2l0.6-1.5l0,0
	l1.3,0.3l0-0.5l0.7,0.1l0-0.9l0.8-0.9l2,0.3l0,0L7,41.7l-0.3,0.9L7.1,43l0.6-0.5l-0.2,0.5l0.9,1l0.2-0.7l1.7,0.3l1,0.7l0.6-1.5l0,0
	l1.5-0.6l0.5-1.3l0.9,0.2l0.3-0.3l0.1,0.5l1.2-0.3l-0.1-3.3l-0.7-0.9l0.8-0.5l1.5-2.8l-0.4-0.1l0-0.9l-0.8-0.3l-0.8-1.1l0.8-0.5
	l0.3-1l0.6-0.2l0.3,1.4l0.8-0.5l1.4,0.8l0.6,1.3l0.7,0.4l0.6-0.4l1,0.2l1.9-1.1l0.1-1.2L24.5,30l0.9,0l0.5-0.8l0.7,0.1l0.6-0.4
	l-0.1-2.2l-1-2.2l0.2-1l-1.9-0.3l-0.2-0.6l-0.7,0.3l-0.7-1l0.2-1.3l-1.9,0.1l-1.5-1.3l0.5-0.2l0.5,1l0.9-0.4l1.2,0.3l0.1-0.6
	l1.7-0.1l0.2-2.1l1.3,0.1l1.2-0.8l0.1-2.4l0.3,0.2l1.7-0.6l0.4-1.4l0.9,0.8l0.4-0.3l2,0.1l0.1-0.5l0.4,0.4l1.6-0.7l0-1l-0.5-0.5
	l-0.7,0.7l-0.7-0.3l-0.6,0.4l-0.5-0.6l-2.4,0L25.3,12l-0.8-2.3l-0.8-0.6l2.1-0.5l0.2-1.2L24.7,6L25,5.3l-0.7-0.7L31.3,1.6L31.3,1.6z
	"/>
</svg>
