<?xml version="1.0" encoding="utf-8"?>
<!-- Generator: Adobe Illustrator 26.0.0, SVG Export Plug-In . SVG Version: 6.00 Build 0)  -->
<svg version="1.1"
	 id="svg2" xmlns:cc="http://creativecommons.org/ns#" xmlns:dc="http://purl.org/dc/elements/1.1/" xmlns:mapsvg="http://mapsvg.com" xmlns:rdf="http://www.w3.org/1999/02/22-rdf-syntax-ns#" xmlns:svg="http://www.w3.org/2000/svg"
	 xmlns="http://www.w3.org/2000/svg" xmlns:xlink="http://www.w3.org/1999/xlink" x="0px" y="0px" viewBox="0 0 37 42.8"
	 style="enable-background:new 0 0 37 42.8;" xml:space="preserve">
<path id="IN-MN" d="M10.4,9l0.1,0.7l0.7,0.1l-0.1,0.7l1-0.1l1.1,1.1L15,7.8h0.5l1.9-2.4l-0.1-0.8l-0.8,0l0.1-0.9L19.2,3l1.5,0.3
	l0.9-0.3l0.1-0.6l1.5,0.8l0.1,0.6l1,0.2l0.4-0.7l0.7,0.1l0.4,1.2l1.5-0.3L28,4.7l2.2-1.1l0.2-1.2l0.9-0.7L32,1.9L33.4,0l0.5,0.1
	l-0.4,1.1l0.4,0l-0.8,1.3l0,1.7l1.6,1.1l1,0.1l0,0l-0.2,1l-0.9,0.7l-1,4L37,13L37,15.6l-0.8,1.1l0.3,0.8l-1.7,2.3l-0.6,2.8L33,22.7
	l-0.4,1.9L31.2,26l-0.8,1.9L29.9,28l0,1.5l-0.8,0.5l0.4,0.5l-1.2,0.9l0,1.1l-1.4,2.9l-0.4,2.8l-1,2.4L25,40.7l-0.2,1.9L24,42.8
	l-0.6-1.2l-3-1.3l-1-0.2l-1.9,0.6L16.3,39l-2.9-0.1l-0.4,1l-0.8-0.5l-1,1l-1-0.6l-1.1-2.4L7.9,37l-0.4,0.2L7.6,38l0,0l-1,0l-0.7,0.6
	l0.2-0.8l-0.4-0.6l-0.5,0L5,38.1L4,38l-0.5-0.8l-1,1l-0.4-1.3l-0.5,0.3L0,36.6l1-2.2l-0.3-1.6l0.7-1.4l-0.5-0.1l0.1-1L0.5,30l0,0
	l0.8-0.2l-0.1-2L2,26.3L1.8,26l1-0.2l-0.7-0.3l0.6-1.8l-0.6-0.8l0.7-0.7l0.1-1.6l0.3-0.2l0.6,0.7l0.9-0.5l0-1L5.3,19l0.5-1l-0.3-0.5
	L6,17.3l-0.3-1.6L6.1,15l0.8,0L7.5,14l1.1-3.5L10.4,9z"/>
</svg>
