<?xml version="1.0" encoding="utf-8"?>
<!-- Generator: Adobe Illustrator 26.0.0, SVG Export Plug-In . SVG Version: 6.00 Build 0)  -->
<svg version="1.1"
	 id="svg2" xmlns:cc="http://creativecommons.org/ns#" xmlns:dc="http://purl.org/dc/elements/1.1/" xmlns:mapsvg="http://mapsvg.com" xmlns:rdf="http://www.w3.org/1999/02/22-rdf-syntax-ns#" xmlns:svg="http://www.w3.org/2000/svg"
	 xmlns="http://www.w3.org/2000/svg" xmlns:xlink="http://www.w3.org/1999/xlink" x="0px" y="0px" viewBox="0 0 62.4 25.3"
	 style="enable-background:new 0 0 62.4 25.3;" xml:space="preserve">
<path id="IN-ML" d="M1,13.4L4.1,12L1.5,9l0.9-0.2L2.8,8L2.6,6.9l1.3-0.5l0.3-0.4L3.8,5.6l2.4-1.9l1.3,0.4l3-0.7l0.9-0.8L12,2.4
	L12.7,3l1-0.6l1.2,1.3l-0.5,1.4l1.5-1.5l1,0.5l-0.5,0.6l0.4,0.3l1.3-1.2l1.3-0.2l-0.1,1L20,4.9l0.7-1l0.6,0.3l1-0.3L23,4.8l-0.1-0.7
	L23.5,4L24,5.4l1.3,0l-0.6,1.5l1-0.6l0.6-0.1l-0.6,0.6L26,7l2.8-0.9L28.4,8l0.3,1.1l0.7,0.1l1.1-0.5l1.2-2.1l1.8-0.4L34,6.5l1.7-0.7
	l0.1-0.4l-0.5,0.5l-0.7-0.1l1.2-1.2l-0.6,0.1L36.7,2l1.2,0.2L38,3.6l-0.6,0.6L38.7,5l1.1-1.1L40,1.4L41.8,0L43,0.5l-0.1,1.1L44,2.8
	l1.4-1L46.7,2l1.7-0.3l0.9-0.8l1.3,0.4l1.2-0.4l-3,3.1L49,4.8l1.3,0.1l-1,0.9l-0.6,1.3l0.2,3.3l1.4-1l2.2-0.2l1.1-0.7l1,0.5l0,0.9
	l0.7,0.2l0.8,1.4l1.2,0.3l0.3,1.2l0.6,0.1l1.1-0.8l-0.2,1.3l-1.6,1.6l0.6-0.1l0.2,1.3l0.9-0.4l0.1,0.6l0.3-0.2l0.9,1l0.4-0.1
	l0.5,1.1l0.5,0.1l0.2,1.1l-0.6,0.8l0.8,0.7l-2.9,1l-0.9,1.4l-2-0.5l0.4,0.9l-1.2-0.2l-0.4,1.6l-0.8,0.1l0,0l-1.6-0.5l0-0.6l-2.4-0.4
	L47,21.6l-6,0.5l-0.6-0.3l-0.2,0.7l-0.8-0.2l-1.3,0.8l-0.8-0.5l0.2-0.7l-3,1l-1.1-0.8L31.8,22l-1.4-0.7l-4,0.2l-4.5,1l-1.7-0.6
	l-1,0.7l-1-0.4L14.6,22l-1.3,0.7l-2.3-1.1l-4.7-0.8l-3-1.8l-2.9,0.2l0.3-0.3L0,17.1L0.7,15l0,0l0.5-0.3L1,13.4z"/>
</svg>
