<?xml version="1.0" encoding="utf-8"?>
<!-- Generator: Adobe Illustrator 26.0.0, SVG Export Plug-In . SVG Version: 6.00 Build 0)  -->
<svg version="1.1"
	 id="svg2" xmlns:cc="http://creativecommons.org/ns#" xmlns:dc="http://purl.org/dc/elements/1.1/" xmlns:mapsvg="http://mapsvg.com" xmlns:rdf="http://www.w3.org/1999/02/22-rdf-syntax-ns#" xmlns:svg="http://www.w3.org/2000/svg"
	 xmlns="http://www.w3.org/2000/svg" xmlns:xlink="http://www.w3.org/1999/xlink" x="0px" y="0px" viewBox="0 0 183.7 133.2"
	 style="enable-background:new 0 0 183.7 133.2;" xml:space="preserve">
<path id="IN-MP" d="M87.4,0.9l1.1,0.4l0.4-1L90.4,0l0.8,1.2L91.9,1l0.5,0.8l2.4,0.9l2-0.3L98,1.7l0.2,0.5l0.4-0.3l0.5,0.7l0.9,0
	l1.1,1.4l0.8-0.2l0.9,0.4L102.6,5l1.2-0.5l0.3,1.7l-0.5,0.9l0.2-0.2l0.1,0.7l0.5,0l0.8,1.1L105,9.8l1.6,0.3l-0.2,0.6l-0.6,0
	l-0.2,1.3l1.2,0.4l-0.4,0.2l0.2,0.4l-0.7,0.1l-0.2,0.9l-0.3-0.4l-0.6,0.5l0.4,0.8l-0.8,0l-0.1,0.9l-0.8,0l0.5,0.9l-1.2,0.4l1.3,1.3
	l-1.2,1l-0.3,2l-1.1,0.8l0.1,1.1l-0.8,0.2l0.3,1.4l-1.1-0.7l-0.3,0.3l0.5,0.1l0,0.4l-1.5,1.2l1.4,1.7l-0.1,1.2l-2.7,0.7l-0.6,0.7
	l-0.8-0.5l-0.6,0.6l-2-0.4l-0.6,0.7L92,30.6l-0.4,0.7l0.3,1.3l-0.9,0.7l-0.6-0.2l-0.4,1.3L89.2,35l0.7,0.9l-0.5,0.6l0.8,0.3l0.2,1.2
	l0.9,0.7l-0.3,0.5l1.3,0.6l-0.6,0.4l0.5,0.6l-1,0l-1.4,1l0,2.1l-3.4,2.7l0,0.6l0.9,1l0.2,1.5l1,1.9l-0.2,2.5l-0.8,0.8l1,1.1
	l-0.1,0.7l2,1.4l-0.7,1.3l1.1,1.2l1.2-0.5l1.5-2.2l1.5,0.8l1.9,2.6l0.6,0.2l0.7-0.4l0.3,0.3l0.3-0.4l0.7,1.8l0.5-0.7l1.4-0.3
	l0.6-1.8l1.2-1.2l0.4-2L102,56l0.1-0.8l0.4,0.4l0.7-0.3l-1.8-3.3l-2.2,1.1l-0.6-0.3l-0.2-1.3l0.7-1L99,48.5l0.3-0.5L99,46.9L97,46
	l-0.3-1L96,44.5l0.4-2.2l-0.9-0.8l-0.6-3.7l-1.5-0.8l-0.9,0.5L92,37l0.3-0.4l0.6,0.3l0.5-0.7l0.2,0.5l0.5-0.1l0.3-0.5L94,35.3
	l1.1,0.3l-0.3-1l0.6,0.1l0.3-0.6l0.5,0.2l0.5-0.9l0.7-0.1l0.3,0.4L97,34.4L96.8,34l0,0.7l1.1,0.2l0.1,0.6l1.1-0.1l-0.4-1.3l1.5-0.4
	l-1.2-0.1L98.2,33l0.1-0.9l0.5,0.6l1.5,0.2l0.3,0.3l-0.7,0.2l0.4,0.3l0.5-0.8l-0.6-1l1-0.3l0-0.8l0.8-0.1l0.1,0.4l0.3-0.4l0.2,0.7
	l-0.5,0.2l0.4,0.9l-0.7,0.8l0.5,0.4l0.6-0.2l0.4,1.5l-1,0.6l-0.8-0.5l0.8,0l0.4-0.5l-1.6,0.3l-0.8,0.8l0.1,0.5l-1.1,0.4l-0.2,0.4
	l0.6-0.1l-0.1,0.7l0.8,1l0.7-2.7l1.1,0.3l0.5-0.4l0.4,1.5l-0.6,0.5l-0.7-0.3l-0.4,0.7l-0.3-0.2l-0.1,2.1l1.6-1.3l1,0.6l0-0.9
	l-0.5-0.3l0.7-0.7l0.1,0.7l0.9,0.5l-0.7,0.9l-0.1,1l0.4,0.1l0.9-1.3l0.8,0.7l-0.3,0.5l0.4,0.8l1-0.2l-0.3-0.6l0.4-0.2l0.5,0.9
	l0.7-0.1l0.1-0.6l-0.6-0.2l0.5-0.3l0.5,0.2l0,0.7l0.9-0.3l0.2-0.4l-0.7-1.1l-0.1-1.2l1.2,1.1l0.3-0.3l-0.4-0.4l0.2-1l-0.6,0.3
	L110,37l-0.6,0.4l0-0.9l0.7-0.7l1.1,0.2l-0.3,0.9l0.5,0.7l0.3-0.7l1,0.8l0.9-0.6l0.7,0.3l-0.7,0l-0.7,1l0.3,0.3l-0.7,0.1l-0.5,0.9
	l0.3,1.3l0.3-0.6l0.3,0.7l0.8-0.6l-0.2,0.9l0.6,0.3l1.6-2.2l0.5,0.7l0.3-0.2l-0.1,0.5l3.1-0.3l2.3,1.1l-0.2-0.8l0.5-0.4l-0.5-2.1
	l1.2-0.4l0.2,0.5l0.6-0.9l1.1,0.1l0.5-1.7l1.3-0.3l0.8,0.4l1.4-1l0.1-0.8l1.1,0.3l0.2-0.6l1.1,1l-0.1,2.3l1.5,1.2l0.4-0.1l0.5,1.6
	l-1.5,0.7l-1.8,2.7l1,0.6l0.9-0.5l0.5,0.4l-0.3-1.1l1.6-0.6l0.6,0.9l0.5,0l0.1-1l-0.5-0.3l0.7,0l0.7,0.8l0.4-0.6l0.9,0.4l-0.3-1.9
	l0.8,0.7l-0.6,0.4l1.2,0.7l0.5-0.2l-0.1,0.6l1.1-0.4l1,0.2l0-0.5l-1.1-0.3l0-0.6l-0.5-0.3l2.1-0.2l0.6,0.8l0.2-1.9l0.9-0.1l0.6,0.8
	l-0.8,0.8l0.1,1.2l-0.9,0.7l0.5,1l-1.2,0.6l0.3,0.6l0.7,0.2l1-0.3l0,0l0.3,0.2l-0.1-0.4l0,0l0.8-0.4l0.4,1.1l1.3-0.2l-0.2-0.5l1.4,0
	l1.2,1.4l0.6-1.5l0.8,0.5l-0.3,0.1l0.6-0.1l-0.2-1.4l1.3-1.7l-0.3-0.9l0.5-1.4l0.8,0l0.2,1.2l0-1.1l0.4-0.2l1.3,1.1l0.8-0.2l0.2,0.5
	l-0.8,0.1l1.7,0.8l0.5-0.7l-0.7-0.7l0.5-0.4l0.6,0.2l-0.3-1l1.2-0.2l0.3,0.6l0.8,0.2l-0.6,0.5l0.2,0.8l0.3-0.5l0.3,0.4l-0.8,0.5
	l0.2,0.4l1.1-0.4l0.5,0.8l1.1-0.1l1.2,0.9l0.8-0.2l1.2,0.6l0.3-0.4l0.3,1.8l-0.3,0.9l1.3,1.4l1-0.5l2.2,1.4h1l0.8-0.7l-0.4,0.5
	l0.6,0.5l-0.4,0l-0.3,1l0.9,0.3l-0.3-0.5l0.5,0l0-0.4l0.4,0.3l0.1-0.5l-0.3,2.4l0.5,0.1l0.2-0.5l0.7,0.4l-0.1,1.3l0.8-0.2l1.7,0.6
	l-0.2-2l0.6-0.5l0.3,0.7l1.5,0l0.2,0.6l2.7-1.1l0.8,0.6l0,0.7l1.4,0l-0.1,1.1l0.8,0l0.1,1.1l-1.1,0.3l-0.7-0.3l0.1,1l0.4,0.3
	l-0.6,2.6l1.1,0.3l0.1,1.9l-0.3,1.3l-0.5,0.3l-0.1,1.9l-1-0.4l-0.3,0.5l1.1,1.2l1.2,0.1l-0.5,1.3l1.2,0.4l0.2,1l0,0l-1.2,0.9
	l-1.9,0.3l-0.1,1.2l-1.4,0.8l-1.2,0l0.4,0.7l-0.6,0.2l-1.2-0.6l-2.8,0.2l-1.5-0.4l-0.6,0.3l-0.6-0.6l0.1-0.5l-0.9,0.8l-2.4,0l-0.9-1
	l-1,0.2l-0.7-0.5l-1.3,1.1l-1.5,0.3l-1.3-0.7l0.1-0.4l-1.3-1.5l-1.1,0.4l-0.3,1.2l0.7,0.5l0.2,1.4l0.7,0.4l0.3,0.7l-0.9,1.4l-0.6,0
	l-0.2,1.4l-0.7,0.3l0.2,0.8l0.6,0.1l0,1l0.4,0.4l0.6-0.9l0.8,0.2l0.9-1l1.4,0.5l0.5,0.8l1.9-0.5l1.3,2.7l0.8-0.2l0,0.8l0.7,0.2
	l1.1-0.5l0.3,1l0.6-0.1l1,0.8l0.1,0.9l-1,1.3l0.2,2l-0.7,0.9l-1-0.3l-0.9,0.8l-1.8,0.1l-0.4,0.8l0.5,1.9l-1.7,1l-0.1,0.5l-1.8,0.4
	l-0.2,0.9l0.5,1.5l-0.8,0.9l0.3,1.4l-0.5,0.4l-0.4-0.6l-0.3,0.6l-1.1,0.4l-0.2,1.4l-0.5,0.1l-0.2,0.6l-2,0l-0.8,1.1l-0.9,0l0.2,0.6
	l-0.5-0.3l-0.6,0.9l-0.4-1.5l-1.2-0.4l-0.4,1l-0.6-0.4l-1.2,1.1l-0.8-0.9l-1.5,1.1l0.1,3.3l-0.6,1.1l-1.4,0.4l-0.1,2.2l-0.9,0.4
	l0.7,0.4l-0.1,0.8L145,111l-0.3-1.2l-0.8-0.1l-1.4,3.6l-0.6,0.1l0.4,0.5l-0.1,3l-0.4,1.3l-1.4-0.2l-0.5,1l-0.2,2.8l0.4,2.6l-1.5,3.2
	l0,0l-1.3,0.1l-2.3-1.6l-0.8-0.1l-0.2,0.7l-0.8-0.1l-0.3-0.7l0.5-0.7l-0.9-1.9l-2.3-2.2l-1.5-0.3l-1.5,0.6l-1.1,1.2l-1.5,0.4
	l-1.2-0.5l-0.4,0.7l-1.2-0.1l-2.6-1.6l-1.8,1l-2.3,0.3l-1-2.9l-1.5-0.4l-0.4,0.4l-1-0.1l-2.5-1l-0.2,1.6L107,120l-1.2,1.4l-1.6-0.1
	l-0.3-0.4l-1.7,0.6l0.3,0.7l-0.5,0.1l0.8,0.9l-0.2,0.6l-0.8-0.3l-0.3,0.4l-2-0.1l-0.3,0.5l-0.5-0.6l-0.6,0.7l-2.8-0.5l-0.4-0.6
	l-1.2-0.3l-1.6,0.6l-0.2-2.3L91,121l-0.4,0.9l-0.5-0.3l-0.7,0.4l-0.8-0.5l0.1,0.5l-1.8,0.3l-0.2,1.4l-4.8,2.5l-1.2,0.2l-1.7-0.8
	l-0.1,0.5l-0.9,0.1l-0.3,0.5l-0.6,0.1l-0.3-0.9l-0.5,0.6l-0.3-0.5l-1,0l0.1,0.6l-0.4,0.1l-2-0.3l-0.4-1.8l-0.6-0.4l-0.4-1.4l0.8-0.5
	l2.3,0.6l0.8-0.3l-0.8-0.4l0-1.5l-0.6-1.7l-1.4-1.6l-4,0.2l-0.1,0.9l-1.2,0.1l-0.4,0.5l-0.8-0.8l-0.3,0.3l-1.8-0.2l-3.6,2.8l-1-0.3
	l-0.4,0.5l-0.8-0.1l-0.2,1.3l-0.5,0.4l0.6,0.7l-0.2,0.5l-3.3,3l0.8,1.2l-0.8,2l-2.8-0.1l-0.7,1.8l-1.6,0.8l-2,0l-0.4-0.4l-1.9,0.2
	l-1.2-1.8l1.1-0.1l0.1-0.4l-0.6-1.1l0.3-0.5l-1.3-2.6l-1,0.5l-1.8-0.9l-1.7-0.1l-4.5,0.4L33,126l-1.3,0.5L30,126l-1.5,0.3l-0.8-0.5
	l-1.2,0.3l0-0.6l-1.7,0.1l-2.2-1.1l-1.2-2.4l-3.3-1.5l-2.3,0.4l-4.9-1.6l-0.1-0.8l-0.9-0.2l-0.2-1.8l0.5-2.3l-0.7-1L8.7,113
	l-0.1-1.3l-1.2,0.1l-0.7,0.9l-1.1,0.3l-0.3,0.7L3.5,114l-1.1-0.6l0,0l0.2-0.7L1.3,112l1.7-1.6L2.5,110L2,110.1l-0.2-2.6l-1-0.2
	l0.3-0.5l-0.7-1l0.3-1.7l0.8-0.3l0.5,0.9l1.2,0.2l0.3-1l0.4,0.2l0.6-0.9l0.8,0.1l-0.8-0.9l-1-0.1l-0.3-0.9l-0.1,0.8l-0.5,0.3
	L2.3,102l-0.4,0.8l-0.4-1.1l-0.5,0.1l0.2-1l-0.9,0.4L0,100.8l0.7-1l1.8,0.8l2.3-2.9l2.5,0l0.4-2l1.6-2.9l-0.6-1.5l-1.1,0.6l-0.8-0.8
	l-0.4-0.7L7,90.1l-1-1.9l0,0l1.4-1.1l2.5,0.5l0.7-1l1.3-0.3l1.3-1.3l1,0.2l0.6-0.4l0-0.5l-1.1,0.2l0.6-0.4L14,83.4l-1.1,0.3
	l-1.6-0.9l-0.4,0.4l-0.7-1.1l1.1-1.1l0.1-1l0.8-0.9L13,79l1-0.9l0.7,0.1l1.1-1.1l0.4,0.3L17,77l1.3-1.6l0.7-0.2L18.3,74l0.7-1.2
	l-0.7-3.2l0.3-1.4l1.5-2.2l-2.3-4.2l0.5-0.5L18,60.8l-0.5-0.4l-2.4,0l0.6-0.8l0.1-1.3l1.5-2.2l-0.8,0.1l0-0.7l-0.8,0.2L14.2,55
	l0.9-1l-0.2-1l0.9-0.3l-0.1-0.6l0.7-0.8l-0.9-0.4l0.5-2.5l2,3.2l1-0.1l0.4-0.9l0.8-0.2l-0.1-1l0.6,0l-0.3-1l-1.9,0.2L17.2,48
	L17,48.5l0.1-1.4l-0.7-1.7l0.5-1.1l0.4,0.9l0.4-0.3l0.6,0.5l0.1,0.8l2.6,0.8l0.3-0.5l1.3-0.2l-0.1-1.8l1-0.6l-0.1-1.2l3.9,0.1
	l0.1,0.4l-0.7,0.4l0.4,1L26.8,46L26,44.3l-0.2,0.3l0.6,0.9l-0.7,0.8l1,0.5l0.3-0.4l2.1-0.1l-0.1,0.7L26.6,48L26,47.1L25,47l0.5-0.8
	l-0.6,0.1l-0.3-0.5l-0.1,0.6l1.1,1.1l-1,0.6l-0.4,1l0.7,1.1l1.1-0.2l3.9,0.9l2.7-0.7l0.7,0.8l3.1-1.8l1.7,0.8l-0.2,1.3l0.5,0.4
	l-0.4,0.9l0.2,0.4l0.5-0.4l1.1,1l-0.2,0.4l0.4,0.4L38.9,55l0.4,0.4l-0.1,0.8l-1.3,0.9l-1.2-1.3l-0.9,1.1l0.1,0.4l-0.6,0.1l0.2,1.3
	l0.6,0.9l1,0.2l0.3,1.3l-1.1,0.6l-0.6,1.9l0.7,0l0.3,0.7l1,0l0,0.8l-1.1,0.3l-0.4,1.5l-1.3,0.7L34.2,66l-0.7,0.8L32.4,67l-0.4-0.7
	L31,65.7l-1,1.6l-0.2,1.4l2.2,1.4l0.3,0.4l-0.4,0.4l0.6,0.6l1.4,0l0.7,0.9l0.1-1.3l0.6,0l0.2-0.9l-0.6-0.4l0.1-0.6l1,0.3l0.6,0.8
	l0.4-0.5l1.4-0.5l0.4,0.3l2-1.1l-0.3-2.1l1.8-1.2l1.8-0.5l-0.3-2.3l0.7-1.1l-0.2-1l0.9-1.1l0.4,0.5l-0.2,0.6l0.4,1.6l1.4,0l0.9-0.9
	l1.8,1.1l0.2-0.4l0.6,0.2l0.4-0.3l1.3,1.6l1-0.4L53,62.2l0.7-0.7L53.5,61l0.5,0.2l0-0.5l1.6-0.5l0.2,0.8l-0.6,1.3l0.6,0.5l1.1,0
	l1,1.2l1.1-0.4l0.9,0.2l0.3-1.3l0.6-0.4l-1.5-1.5L58.7,59l0.2-3l-0.8-1.5l1.1-0.3l0.3,0.6l0.7-0.4l0,1.3l1.1,0.6l0.8-0.4l0.6-1.2
	l0.4,0.1l0.3-1L63.3,52l-0.7-1.6l-1.1-0.5l-0.4-0.8l-0.9,0.4l-1.3-0.1l-1-1.6l0.6-0.5l2-0.2l0.5-0.5l-0.7-0.3l0.1-0.7l-0.6-0.1
	L59,43.5l2.9-1.6l1.7,0.5l0.8-0.3l1.2-1l1.9-0.1l0.8,0.8l2-0.7l-0.2-1.7l0.6-0.1l-0.2-0.8l-1.2-1.1l0.5-1.1l-0.7-0.1l0.5-2l-1.2-0.5
	L68,33.9l-1.3,1.2l-0.3,1.4l-2.7-0.7l-1.1,0.9l-1.4,0.1l-0.4,0.5l-1-1.1l-1.1-0.2l-1.5,0.4l-0.1-0.6l-1.8-0.2l-1.6-1l-0.3-1L53,33.5
	l-0.9-2l-0.2-3.3l-0.7-0.5l0.1-0.5l1-0.4l0-1.5l1.3-1.8l0.7,0.1l0.4-0.9l1.8,0.1l0.6-0.5L57,21.8l1.1-0.3l0.7-1.4l-0.2-0.4l1.2-1.5
	l2.1-0.9l1-1.2L64,16l0.7-1.1l1.7,0l1.8-1.4l0.9-1.4l2-0.2L71,11l2-0.2l3-2.2l1,0.1l0.6-1l1.4-0.2l0.2-1.1L80.5,6l0.3-1l1.1-0.1
	L82.8,4l2,0.5l0.1-1.3l0.6-0.4l-0.3-1l1.6,0.1l-0.3-0.8L87.4,0.9z"/>
</svg>
