<?xml version="1.0" encoding="utf-8"?>
<!-- Generator: Adobe Illustrator 26.0.0, SVG Export Plug-In . SVG Version: 6.00 Build 0)  -->
<svg version="1.1"
	 id="svg2" xmlns:cc="http://creativecommons.org/ns#" xmlns:dc="http://purl.org/dc/elements/1.1/" xmlns:mapsvg="http://mapsvg.com" xmlns:rdf="http://www.w3.org/1999/02/22-rdf-syntax-ns#" xmlns:svg="http://www.w3.org/2000/svg"
	 xmlns="http://www.w3.org/2000/svg" xmlns:xlink="http://www.w3.org/1999/xlink" x="0px" y="0px" viewBox="0 0 40 43"
	 style="enable-background:new 0 0 40 43;" xml:space="preserve">
<path id="IN-NL" d="M39,0l0.8,3.6l-1,0.6l0.5,0.3l0.1,1.2L40,6l-0.6,1.2l0.4,1.2l0,0L38.2,10l0,0.9l-1.8,2.8l0.8,0.7l0,0.7l0.6,0.3
	l-0.3,3.5l0.4,0.6l-0.5,1.1l0.1,1.4l1.4,0.7l-1.7,2.6L35.7,26l-0.3,0.6l-0.1,0.9L36,30l-2.4,2.2l-0.4,1.3l-0.6,0.4l0.3,0.6l-1.2,0.2
	L31,36.2L28.3,37l0,0l-1-0.1l-1.6-1.1l0-1.7l0.8-1.3l-0.4,0l0.4-1.1L26,31.5l-1.4,1.9l-0.7-0.1L23,33.9l-0.2,1.2l-2.2,1.1L20,35.8
	l-1.5,0.3l-0.4-1.2l-0.7-0.1l-0.4,0.7l-1-0.2l-0.1-0.6l-1.5-0.8l-0.1,0.6l-0.9,0.3l-1.5-0.3l-2.5,0.7l-0.1,0.9l0.8,0l0.1,0.8
	l-1.9,2.4H7.6L5.8,43l-1.1-1.1l-1,0.1l0.1-0.7L3,41.2L3,40.5l0,0l-0.5-0.8l0.6-0.8l-0.3-1.3l-1.4-0.7L0,35l2-2l1.5-0.6L5.1,30l2.8-2
	l-0.4-1.4l1.3-0.6l0.4-0.7l0.5,1.3L9.4,28l0.3,0.7l1-1.1l0.8,0.4l0.7-1l1.3-0.7l-0.5-2l0.8-1.5l0.3-2.4l2.2-3.6l1.4-0.4l0.2-2.7
	l1.9-2.3l0.3-0.1l0.1,2l0.5,0.4l0.7-1.1l1-0.6l0.2-1.9l1.1-0.5l0.1-0.8l1.6-1L26,8.3l0.6-1.1l0.5,0.5l1.2-0.3l2.4-1.7l1.8-3l0.9-0.5
	l1.2,0.8l0.7-0.2l1.9-1L39,0z"/>
</svg>
