<?xml version="1.0" encoding="utf-8"?>
<!-- Generator: Adobe Illustrator 26.0.0, SVG Export Plug-In . SVG Version: 6.00 Build 0)  -->
<svg version="1.1"
	 id="svg2" xmlns:cc="http://creativecommons.org/ns#" xmlns:dc="http://purl.org/dc/elements/1.1/" xmlns:mapsvg="http://mapsvg.com" xmlns:rdf="http://www.w3.org/1999/02/22-rdf-syntax-ns#" xmlns:svg="http://www.w3.org/2000/svg"
	 xmlns="http://www.w3.org/2000/svg" xmlns:xlink="http://www.w3.org/1999/xlink" x="0px" y="0px" viewBox="0 0 127.6 106.4"
	 style="enable-background:new 0 0 127.6 106.4;" xml:space="preserve">
<path id="IN-OR" d="M114.8,40.4l2.5,0l0.2,1.2l-1.4,0.1l0,0l-1.9,1.3l-0.3-0.5l0,0l-0.7,0.1l0.5,0.6l-0.9-0.1l1-2.5L114.8,40.4
	L114.8,40.4z M54.8,1l2.8,1.1l0.4,1.6l0.9,0.7l1.1,0l0.9,0.8l2.9-0.3l0.5-0.7l0.6-0.1l0-0.5l1-0.3l4.5,0.1l0.2-0.6l1.2-0.1l0.5,0.5
	l0.9-0.4l0.4,0.6l1.1-0.7l0.2,0.3L77,1.9l0.2,2.9L77.6,5l-0.1,0.6l0.5,0l0,0.5l-0.9,0.4l-1,3.6l-0.9,0.6l0.5,0.1l0.9-0.7l1.1,0.3
	l0.5,0.7l0.8-0.1l0.3,0.5l0-0.5l0.8,0.6l0.4,1l1.4-2.4l0.5-0.4l0.7,0.1l0.1-0.8l0.7-0.1l3,1.6l1.1,0.3l1.1-0.4l0.8,0.9l2.5-1.4
	l0.6,0.8l-0.9,0l-0.6,2l3,0.5l0.1-0.9l0.6-0.3l1.2-2l0.5-1.7L96,7.3l1.5-1.4l-0.7-0.1L97,5.3l-0.6-0.2l0.6-0.8l-0.3-1.1l-1.2-0.7
	l0.3-1L97.1,1l0.3-1l1.4,1.8l3.6,0.9l1.5,2.3l1.7,1l0.1-0.5l1.3-0.4l0.7,1l1,0l0.3,0.5l1.1,0.3l0.1,0.6l1.5,0.4l0,0l-0.2,1.6
	l1.6-0.2l0.9,1.3l2.6,0.3l1.3,1l0.4,1.2l-0.8,1.8l0.7,1l1.3,0.1l0-1.1l1.4-0.5l0.2-1l1.4,0.4L123,17l1.9,0.6l0.4,0.6l1.5,0l0,0.7
	l0.6,0.5l-0.3,1.4l0.5,0.8l0,0l-2.1,1.4l-3.7-0.1l-1.8,0.9l-2.8,2.2l-1.9,2.1l-1.5,2.8l0,1.2l3.1,7.1l-0.3,0.8l-1.6-0.3l-1.1,0.6
	l-1.1,2.8l1,0.1l-0.5-0.6l0.7-0.2l0,0l0.3,0.5l1.9-1.3l0,0l1.4,0.3l0.9-0.3l-5.5,3.9l-1.2,2.9l1.1,0.3l0,1l-2.1,1.8l-2.6,1.2l-3,3.9
	l-0.5,1.3l-1-0.2l-1.1-1.7l-0.9,0.2l-0.2,0.6l1.2,0.1l1.5,1.6l-14.7,4.8l-5.8,3l-5.1,3.6L77,71.8l-3.2,2.3L72,76.1l-1.3,2.3
	l-0.9-0.5l0,0l-0.5-0.5l0.2-0.7l-0.8-0.1l-0.1,0.8l-1.5,0l0.6,1.1l0.7-0.1l0,0.6l-0.9-0.1L67,79.6l-0.5-1.2l-1.6,1l-0.4,0.9
	l-1.2-0.7l0.5,1l-0.5,0.6l0.3,0.5l-0.7,0.6l-0.7-0.2l0.5,0.4l-0.8-0.1l0.4,0.4l-0.2,0.4l-0.6-0.3l-0.1,1.7l-3.8,0.4l-0.6,0.6
	l-0.9,0.1l-1.1-1.3l-1.8,0.1L52,84l-1.7-4.2l-1,0.7l0.8,1.6l-0.7-0.2l-0.8-1.5l0.4-0.6l-0.5-0.1l-1.5-3l-0.6,0.7l0.2,0.7l-0.5,0.9
	l-0.7-0.5l-0.3,1.5l-0.8-0.1l0-0.3l0.4,0l-0.2-0.9l-0.2,0.3l-0.4-0.5l-0.3,0.2l0.4,1.1l-0.1,0.5l-0.5,0l0.1,1.2l-1-1.1l-1.3-0.3
	l-0.9,0.4l0.5,1.6l0.4-0.9l0.7,0.7l-0.7-0.1l1.4,1.5l-0.3,0.6l-0.8,0l-0.1,0.7l-1.6,0.2l-0.3,0.7l-1-0.2l-0.3,1.1L38,85.6L36.6,85
	l-1.7,2.6l-0.8,0.3L34,89l1,0l-0.6,0.4l0.1,0.4l1.2,0.2l-1.5,2.1l0.5,0.6l0.4-0.2l-0.1,1.2l-0.8-0.2l-1.8,0.7l-0.9-0.3l-0.2-1
	L30.6,93l-1-0.7l-0.5,0.4l0.4,0.5l-0.5,1.4l-2.3,1L26,97l-1-0.9l-0.1-0.8l0.7-0.9l-0.2-0.5l-1.4-0.5l0.4-1.1L24,92.5l-0.1-1.5
	l-0.5,0l-0.5-0.8L20.4,93l0.5,0.9l-1,1.1l1.2,0.2L20.7,96l-0.7,0.2l-0.1,1.1l-0.6,0.4l1.2,1.2l-0.2,0.3l-0.5-0.4l-0.1,2.2l-0.5,0.1
	l-0.2-0.5l-0.6,0.3l0,1.4l-0.5,0.1l-1.3-0.7l-0.4-0.7l-2.8-0.3l-1.5,1.4l-3.2,1.2l-0.9,0.9l0,0l-1.2,0.7l-0.3-0.5l-0.5,0.2l-1.1,1.4
	l-0.9-0.3L2,106.4l-0.5-0.5L0,106.3l0,0l0.2-1.7l0.9,0.2l0.8-2.1l-0.1-1.3l0.7-1.4l0.3-1.4L2.5,98L3,96.3l1.4-0.9l1.4-0.2l0-0.6
	l1.8-0.1L7.9,93l2-2.2l0.8-0.3l0.2-0.8l0.8,0.1l0.2-0.6l-1.4-0.8l-0.1-0.6l1.3,0.5l0.4-1.4l1.4-0.6l0.9,0.1l0.1-1l1,0l0.7-0.7
	l0.2-2.3l1.4-0.3l-0.3-2.3l-0.6-1l0.4-0.7l-0.3-0.6l-0.8-0.2l0.4-0.7L16.1,74l0.7-1.2l-0.9-0.9l0.5-0.1l0.3-1.1l-1.3-0.1l-0.6-1.9
	l-1.5,0.2l0.5-0.8l-0.2-3.7l0.5-1.8l-1.7-0.3L12,60.9l-2.3-1.2l-0.3-0.9l0.6-1.9l1.6-1.5l1.7,2.1l0.7-0.9l2.5,1.6l1.1-0.4l2.3,3.7
	l1-1.2l1.1-0.5l3.2,0.9l-0.5,0.9l0.3,1.1l1.3-1.2l1.2-0.1l0.3-0.9l-0.4-0.5l0.1-2.2l-1.6-0.2L25.4,58l-4.3-1.7l-0.2-1.9l0.7-1.3
	l-0.2-1.4l0.5-0.4l-0.7-1.2l0.7-2l-0.4-1.1L21,47.6l-0.2-1.3l-1.2-1l0.9-1.6l-0.7-3l0.2-2.8l1.1,0.5l0.3,0.8l0.9,0.1l0.6-1.8
	l1.4-0.9l1.5-2.1l-0.3-0.8l0.7-0.7L26.2,32l2.4-0.2l0.8,0.5l0.5-0.4l1.4,0.2l1.6-0.6l1.8,1.3l1.7,0.4l1.5-0.8l0.6-2.8l1.2-0.6
	l-0.4-0.6l0.3-1.4l2.2,0.8l0.6-0.2l-0.2-1.1l-0.9-1l-0.3-1.2l1-2.6l1.3-0.8l0.2,1l0.7-0.5l-1.4-1.1l1.3-1.5l-0.4-0.9l0.5-0.7l1,0.5
	l-0.1-0.9l1.1-0.3l-0.3-0.6l0.6-0.9l-1-0.5L45,13.6l0.1-2.1l1.3-0.2l-0.9-0.9l1.8-2.7l1-0.5l1.3,0.1L51.8,5l3-0.5l0.8-2.2l-1.4-0.9
	l0.1-0.4L54.8,1L54.8,1z"/>
</svg>
