<?xml version="1.0" encoding="utf-8"?>
<!-- Generator: Adobe Illustrator 26.0.0, SVG Export Plug-In . SVG Version: 6.00 Build 0)  -->
<svg version="1.1"
	 id="svg2" xmlns:cc="http://creativecommons.org/ns#" xmlns:dc="http://purl.org/dc/elements/1.1/" xmlns:mapsvg="http://mapsvg.com" xmlns:rdf="http://www.w3.org/1999/02/22-rdf-syntax-ns#" xmlns:svg="http://www.w3.org/2000/svg"
	 xmlns="http://www.w3.org/2000/svg" xmlns:xlink="http://www.w3.org/1999/xlink" x="0px" y="0px" viewBox="0 0 81.7 90.3"
	 style="enable-background:new 0 0 81.7 90.3;" xml:space="preserve">
<path id="IN-PY" d="M42.6,58.3l-0.8,0l-0.1-1.1L40,56.5l-0.5-1.2l0.9,0.2l-0.3-0.9l1.1,0.4l0.4-0.4l1.1,0.2l0,0L42.6,58.3L42.6,58.3
	z M41.5,37l-0.4-0.7l-0.6,0.3l0-0.8l-1,0.5l-0.9-0.6L39,35l0.7,0.6l0.2-0.4l-0.4-0.8l-0.6-0.2l0.4-0.8l-1.1-0.3l0.7-0.7l0.6,0.9
	l0.6-0.4l0.4,0.3l-0.8,0.3l0.4,1.3l1.3-1.2l0.8,0.5l0,0L41.5,37L41.5,37z M92.9-68.6l-1.7-0.8l0.9-0.6l0.1,0.7l1.3-0.1l0.3-0.4
	l0.1,0.6l0,0l0,0l0,0l0,0l0,0L92.8-69L92.9-68.6L92.9-68.6z"/>
</svg>
