<?xml version="1.0" encoding="utf-8"?>
<!-- Generator: Adobe Illustrator 26.0.0, SVG Export Plug-In . SVG Version: 6.00 Build 0)  -->
<svg version="1.1"
	 id="svg2" xmlns:cc="http://creativecommons.org/ns#" xmlns:dc="http://purl.org/dc/elements/1.1/" xmlns:mapsvg="http://mapsvg.com" xmlns:rdf="http://www.w3.org/1999/02/22-rdf-syntax-ns#" xmlns:svg="http://www.w3.org/2000/svg"
	 xmlns="http://www.w3.org/2000/svg" xmlns:xlink="http://www.w3.org/1999/xlink" x="0px" y="0px" viewBox="0 0 64 74.2"
	 style="enable-background:new 0 0 64 74.2;" xml:space="preserve">
<path id="IN-PB" d="M41.9,0l-0.5,1.7L43.1,4l-1.8,0.9L39,7.5l-2.4,1l0,1.2l0.9,0.5l-1.7,2.1l0.4,0.4l1.1-0.3l0.8,0.4l2,1.7l2.3,1.1
	l1.6,3.3l-1-0.1l1.7,4.2l3.2,5.7L47.4,30l0.7,0.5l0.1,0.9l2.6-0.3l0-0.6l0.9-0.3L51.2,29l0.9-0.3l0.1-0.6l0.3,1.2l1.4,2.1L53.6,32
	l0.7-0.7l0.5,0.9l0.5-0.2l0.1,0.5l0.4-0.5l0,0.7l0.7-0.6l0.7,0.7l-0.4,0.8l0.9-0.3l0.2,0.3l-0.9,0.7l0,1.4l0.8,0.4l-0.6,1.4l0.2,1.2
	l2.1,1l1.2,1.4l0,0l0,0.7l1.2,1.1l0.4,1l-0.4,0.7l0,0l-0.7-0.1l0.1-0.5l-0.6,0.2l-0.2-0.5l-1.4,1l0.7,1.6l1.4,0.6l0.5-0.4l0,0
	l0.3,0.7l0.6-0.6l-0.1,0.9l1.1,1l-0.6,1.4l0.7,0.5l-0.7,0.8l0,1.1l0.8,1.3l-1,0.7v-0.6l-1-1.2l-0.5,0.5l-1.1-0.7l-1.2,1.1l0.2,0.7
	l0.6,0.1l-0.5,0.6l-0.8,0.2l-1.4,1.3L56,56.8l-0.3,0.9l1.1-0.7l0.6,0.6l-0.2,0.4l0.7,0.2l-0.3,2.4l-0.5,0.6l-0.5,0.1l-0.5-0.6
	l-1.1,0.5l-0.2-0.5L54,60.8l-0.9-2.5l-0.6,0.5l0.4,0.6l-0.2,0.7l-1.3-0.5l0.5,0.5l-0.5,0.5l-1.5-0.3l-1-1L49,60l-0.4,0l1.3,0.7
	l-1.2,1.6l0.4,0.3l-0.5,0.3l0.3,1.8L48,65l0.4,1l1.2,0.5L47,68.2L46.2,68l-0.9,1.4l-0.4-0.2l-1.1,0.6L42,69.4L41,67.8l-0.7,0.1
	l-0.5-0.4l-1.4,0.4l-0.2,1.3l-1.5-0.4l-0.3,0.6l-0.9,0.1l-0.3-0.6l-0.9,0.1l-1.4-1.2l-1.4,2.3l-0.9,0.4l0.3,0.8l-0.7-0.3l-0.8,1.5
	l0.5,0.5l-0.2,0.5l-1.5,0.5l0-1.5l-1-0.6l-0.3-0.8l0.8-0.6l0-0.9l0.8-0.6l-1-2.1l-0.6,0.5l0,0.9L25.5,68l0.4-0.5l-0.5-0.6l0.5-0.6
	l-0.4-1L25,66.2l-1.6,0.5l-1.6-2.2l-0.6,0.2L21.1,64l-0.7,0.2l-1-0.8l-1.6,0.7L17.2,64l-1.1,1.1l0.1,0.4l-2.7-0.9l0,0L0.4,64
	l0.1-1.9L2,60.3l0-1.8l0,0l-0.2-1.6L0,54.3l0.7-1.2l0.5-0.1l0.2-1l0.6,0.1l0.4-1l1.1-0.9l0.9,0.2l-0.2-0.6l0.5-0.5l0-0.9L5,48.6
	l0.2-0.6l0.7,0l1.7-2.1l1-0.3l-0.4-0.9l0.7-0.4l-0.2-0.4l0.6-1.2l1,0l0.1-1l1.1-0.5l1.1-1.5l1.4-0.7l0.4-1.8l1.3,0.5l1-0.4l0.5-0.8
	l-0.4-0.9l-1,0.2l-0.2-0.4l-0.6,0.1L15,36.6l-0.7,0.2l-0.2-0.9l-0.8-0.4l0.1-3.3l0.9-0.6l1.9-4L15.8,27l-1.3-0.4l0.8-0.8L15.3,25
	l-1.8-3.8l0-0.6l0.7-0.2l0.1-1.9l0.9-1.4l0.5,0.1l0.8-0.9l0.9-0.2l0.1-0.8l0.6,0.5l0.2-0.4l1.3-0.1l0.2-1l1-0.7l0.2-0.7l1.1-0.4
	l1.7,0.9l2.3-1.3l1,0.4l0.6-1.2l0.9,0.7l2.6-3.7l0.1-0.8l-0.9-1.7l0,0l1.9,0.3l1.2-0.4l-0.1,0.6l0.5,0.2l0.2,0.8l0.6-1.8l3.8-1.7
	l0.7-1.4l1.2-0.3L41.9,0z"/>
</svg>
