<?xml version="1.0" encoding="utf-8"?>
<!-- Generator: Adobe Illustrator 26.0.0, SVG Export Plug-In . SVG Version: 6.00 Build 0)  -->
<svg version="1.1"
	 id="svg2" xmlns:cc="http://creativecommons.org/ns#" xmlns:dc="http://purl.org/dc/elements/1.1/" xmlns:mapsvg="http://mapsvg.com" xmlns:rdf="http://www.w3.org/1999/02/22-rdf-syntax-ns#" xmlns:svg="http://www.w3.org/2000/svg"
	 xmlns="http://www.w3.org/2000/svg" xmlns:xlink="http://www.w3.org/1999/xlink" x="0px" y="0px" viewBox="0 0 183.8 167.5"
	 style="enable-background:new 0 0 183.8 167.5;" xml:space="preserve">
<path id="IN-PY" d="M91.1,281.9l-0.8,0l-0.1-1.1l-1.7-0.6L88,279l0.9,0.2l-0.3-0.9l1.1,0.4l0.4-0.4l1.1,0.2l0,0L91.1,281.9
	L91.1,281.9z M90,260.7l-0.4-0.7l-0.6,0.3l0-0.8l-1,0.5l-0.9-0.6l0.5-0.8l0.7,0.6l0.2-0.4l-0.4-0.8l-0.6-0.2l0.4-0.8l-1.1-0.3
	l0.7-0.7l0.6,0.9l0.6-0.4L89,257l-0.8,0.3l0.4,1.3l1.3-1.2l0.8,0.5l0,0L90,260.7L90,260.7z M141.5,155.1l-1.7-0.8l0.9-0.6l0.1,0.7
	l1.3-0.1l0.3-0.4l0.1,0.6l0,0l0,0l0,0l0,0l0,0l-1.1,0.1L141.5,155.1L141.5,155.1z"/>
<path id="IN-RJ" d="M93.8,0l0,1.8l-1.5,1.8l-0.1,1.9l13.1,0.6l0,0L105.1,7l0.6,0.1l0.4,0.9l-1.8,1.9l0.1,1.1l1.1,0.1l1.3-0.7
	l0.4,0.4l-0.8,4.6l1,0.9l-0.7,1.7l-0.8-0.2l-0.3,0.4l0,0.6l0.6,0.2l0.8,1.4l0,0.8l1-0.1l0.2-1l2.2,0.4l1.8-1.2l1.8,0.9l0.5,2
	l0.8,0.2l1-0.4l0.8,1.3l0.6,0.1l1.5-1l0.9,0.8l2-1.4l-0.1,1.4l0.6,0.2l0.3-0.7l0.8-0.2l0.1,1.8l-0.8,1.1l0.7,0.3l-0.3,1.4l1,0.1
	l0.1,1.2l1.6,0.1l0.1,0.8l-1,1.2l1,2.1l-0.3,1.2l0.6,0.9l0.6,3.2l1.3,0.3l0.2,1.3l3.1,2.1l-0.2,1.2l2.5,0.3l0.7,0.6l0.7,1.2l1.3,0.9
	l-0.2,0.9l0.9,0.4l-0.2,0.5l1,1.1l-0.6,0.3l0-0.6l-0.8-0.1l-1.9,1.9l1,0.3l0.1,0.7l0.7-0.9l0.4,0.4l-0.6,0.5l0.1,0.4l-0.8,0.1
	l0.4,0.5l-0.7,0.2l0.6,0.4l-0.5,1.1l-0.5-0.3l-0.3,0.4l0.1,0.4l1,0.2l-0.3,1.1l1.8,0.4l0.8-0.5l1.8,1.4l1.1-0.8l-0.6-0.5l0.1-0.8
	l-0.7-0.4l0.3-1.4l-0.5-0.6l1.2-0.8l-0.8-0.7l1.5-0.3l0.6,0.3l0.3,0.8l0.9-0.2l0.3-0.9l-1.2-0.6l1.2-0.7l-1.6-1.2l1.2,0l0.9,0.9
	l2-0.4l0.6,1.1l-0.8-0.1l-0.3,0.4l1,0.7l-0.9,0.4l1.8,0.3l0,1.6l1.3-0.9l1.3-0.2l-0.2-1.8L153,49l0.2-1.3l1-0.4l2.3,2l-0.9,3.5
	l0,1.7l0.4,0.1l-0.3,2l-0.5,0l-0.4,2.4l0.6,0.7l-0.7,0l0.5,1l0.7-0.4l0.8,0.4l0.5-2l1.8,0.1l-0.2-0.6l-1-0.3l0.4-1l1.8,1l0.5-0.4
	l0-0.6l0.6,0.2l-0.3,0.6l0.5-0.9l0.8,0.9l0.6-0.7l0.3,0.2l0,0l0.6,0.4l-0.1,1.6l0.8,0.5l0.1,1l-0.7,1l0.8,0.4l-0.4,0.5l0.1,1l1,0.3
	l0.3,0.9l0.7,0.4l-0.3,0.9l0.4,0.6l1.4,0.4l1.6,1.3l0.8-0.4l-0.5,1l1.1,1.5l-0.1,0.5l0.7,0.4l-0.4,0.6l-1,0.2l-0.3,1.1l-1.9,0.7
	l0.5,0.7l0.9-0.3l-0.2,1l1.5,0.5l1-0.8l0.6,1.2l0.4,0l0.1-0.7l0.6,0.2l-0.4,0.8l-1.8,0.3l-4.7,2.5l0.4,1.1l-0.2,1.2l0.7,0l-0.3,0.5
	l0.9-0.5l-0.3-0.5l0.4-1.4l0.5,0.6l1.8-0.3l2.3-1.1l0.1-0.8l0.7-0.5L176,79l0.2-0.8l0.9,0.6l1.4-0.3l0.3,1.2l0.5-0.3l-0.1-1l1.2,0.2
	l0.2-1.1l2,0.3l0.2-0.4l1,0.7l-0.7,1l-0.7-0.1l0.4,1.2l0,0l-1,0.2l0.3,0.8l-1.6-0.1l0.3,1l-0.6,0.4l-0.1,1.3l-2-0.5l-0.9,0.9
	l-1.1,0.1l-0.3,1l-1.2,0.5l-0.2,1.1l-1.4,0.2l-0.6,1l-1-0.1l-3,2.2l-2,0.2l0.1,1l-2,0.2l-0.9,1.4l-1.8,1.4l-1.7,0l-0.7,1.1l-1.2,0.2
	l-1,1.2l-2.1,0.9l-1.2,1.5l0.2,0.4l-0.7,1.4l-1.1,0.3l0.1,0.5l-0.6,0.5l-1.8-0.1l-0.4,0.9l-0.7-0.1l-1.3,1.8l0,1.5l-1,0.4l-0.1,0.5
	l0.7,0.5l0.2,3.3l0.9,2l0.5,0.3l0.3,1l1.6,1l1.8,0.2l0.1,0.6l1.5-0.4l1.1,0.2l1,1.1l0.4-0.5l1.4-0.1l1.1-0.9l2.7,0.7l0.3-1.4
	l1.3-1.2l0.5-0.3l1.2,0.5l-0.5,2l0.7,0.1l-0.5,1.1l1.2,1.1l0.2,0.8l-0.6,0.1l0.2,1.7l-2,0.7l-0.8-0.8l-1.9,0.1l-1.2,1l-0.8,0.3
	l-1.7-0.5l-2.9,1.6l0.8,2.1l0.6,0.1l-0.1,0.7l0.7,0.3l-0.5,0.5l-2,0.2l-0.6,0.5l1,1.6l1.3,0.1l0.9-0.4l0.4,0.8l1.1,0.5l0.7,1.6
	l0.1,1.7l-0.3,1l-0.4-0.1l-0.6,1.2l-0.8,0.4l-1.1-0.6l0-1.3l-0.7,0.4l-0.3-0.6l-1.1,0.3l0.8,1.5l-0.2,3l0.7,1.6l1.5,1.5l-0.6,0.4
	l-0.3,1.3l-0.9-0.2l-1.1,0.4l-1-1.2l-1.1,0l-0.6-0.5l0.6-1.3l-0.2-0.8l-1.6,0.5l0,0.5l-0.5-0.2l0.2,0.5l-0.7,0.7l0.3,0.5l-1,0.4
	l-1.3-1.6l-0.4,0.3l-0.6-0.2l-0.2,0.4l-1.8-1.1l-0.9,0.9l-1.4,0l-0.4-1.6l0.2-0.6l-0.4-0.5l-0.9,1.1l0.2,1l-0.7,1.1l0.3,2.3
	l-1.8,0.5l-1.8,1.2l0.3,2.1l-2,1.1l-0.4-0.3l-1.4,0.5l-0.4,0.5l-0.6-0.8l-1-0.3l-0.1,0.6l0.6,0.4l-0.2,0.9l-0.6,0l-0.1,1.3l-0.7-0.9
	l-1.4,0l-0.6-0.6l0.4-0.4l-0.3-0.4l-2.2-1.4l0.2-1.4l1-1.6l1.1,0.6l0.4,0.7l1.1-0.2l0.7-0.8l0.7,1.5l1.3-0.7l0.4-1.5l1.1-0.3l0-0.8
	l-1,0l-0.3-0.7l-0.7,0l0.6-1.9l1.1-0.6l-0.3-1.3l-1-0.2l-0.6-0.9l-0.2-1.3l0.6-0.1l-0.1-0.4l0.9-1.1l1.2,1.3l1.3-0.9l0.1-0.8
	l-0.4-0.4l0.7-0.5l-0.4-0.4l0.2-0.4l-1.1-1l-0.5,0.4l-0.2-0.4l0.4-0.9l-0.5-0.4l0.2-1.3l-1.7-0.8l-3.1,1.8l-0.7-0.8l-2.7,0.7
	l-3.9-0.9l-1.1,0.2l-0.7-1.1l0.4-1l1-0.6l-1.1-1.1l0.1-0.6l0.3,0.5l0.6-0.1l-0.5,0.8l1.1,0.1l0.6,0.9l2.3-1.2l0.1-0.7l-2.1,0.1
	l-0.3,0.4l-1-0.5l0.7-0.8l-0.6-0.9l0.2-0.3l0.8,1.8l0.5-1.4l-0.4-1l0.7-0.4l-0.1-0.4l-3.9-0.1l0.1,1.2l-1,0.6l0.1,1.8l-1.3,0.2
	l-0.3,0.5l-2.6-0.8l-0.1-0.8l-0.6-0.5l-0.4,0.3l-0.4-0.9l-0.5,1.1l0.7,1.7l-0.1,1.4l0.2-0.5l1.2,0.6l1.9-0.2l0.3,1l-0.6,0l0.1,1
	l-0.8,0.2l-0.4,0.9l-1,0.1l-2-3.2l-0.5,2.5l0.9,0.4l-0.7,0.8l0.1,0.6l-0.9,0.3l0.2,1l-0.9,1l1.4,0.6l0.8-0.2l0,0.7l0.8-0.1l-1.5,2.2
	l-0.1,1.3l-0.6,0.8l2.4,0l0.5,0.4l0.2,0.6l-0.5,0.5l2.3,4.2l-1.5,2.2l-0.3,1.4l0.7,3.2l-0.7,1.2l0.7,1.2l-0.7,0.2l-1.3,1.6l-0.9,0.5
	l-0.4-0.3l-1.1,1.1l-0.7-0.1l-1,0.9l-0.9,0.1l-0.8,0.9l-0.1,1l-1.1,1.1l0.7,1.1l0.4-0.4l1.6,0.9l1.1-0.3l0.4,0.7l-0.6,0.4l1.1-0.2
	l0,0.5l-0.6,0.4l-1-0.2l-1.3,1.3L106,166l-0.7,1l-2.5-0.5l-1.4,1.1l0,0l-0.8-0.7l0.1-0.5l-0.9-1.6l-0.8-0.1l-0.5,0.9l-1.2-0.6
	l0.1-2.1l-0.7-0.6l-1.2,0l-0.2-0.8l-0.9-0.1l-0.4-0.9l-0.5,0.1l-0.2,0.7l-0.9,0.1l-1.3-2.5l-1,0.3l-0.4-0.5l-0.8,1l-0.5-1l-1.1,0.3
	l-0.4-0.3l0.5-1.2l-0.4-1l0.5-1.7l-1.7-0.7l-1.3,0.9l-0.1-2l-0.6-0.1l-1.2-1.6l-0.9,0.3l-0.3-0.5l0-1.7l1.3-1.6l-0.4-1.4l0.2-1.4
	l-0.9-0.8l0.1-0.9l-0.8,0.3l-0.1,1l-0.9,1.1l-0.9,0.4l-1-0.9l0.5-1.1l-2.3-0.9l-0.7-1.1l1.3-2.8l0.7,0.1l0.3-1l0.4,0.2l0.4-0.7
	l-0.4-0.2l-0.9,0.6l-1.8-1l0.5-0.7l-0.3-1.6l-0.9,0.7l-0.8-0.4l-0.3,0.3l-0.8,2l0.6,0.5l-1.4,0.9l-1.2-0.9l-2.8,0.1l-0.8-1.3
	l0.1-0.9l-2.3-0.4l-0.9-0.8l-0.9,1.3l0.2,0.9l-0.9,0.1l-0.6-1.2l0.1-1l0,0l-1.1,0.1l-0.7-1.2l0,0l-1.3,0.3l-0.9-1l0.6-0.5l1,0.3
	l0.6-0.7l-0.8,0.2l-1.8-0.6l-0.4,0.5l-0.9,0l-1.7-0.9l0-1l-0.7-0.2l-2.3,1.8l-0.5-0.9l-0.9-0.2l-0.4,1.6l-1-0.4l-0.3-1.1l-2.9,0.9
	l-0.9-0.9l-2.7-0.1l-2.2,1.2l-0.7-0.7l-1.1,1.1l-4-1.7l0,0l-3.4-5.9l-1.1-4.9l-2.7-2.8l-0.5-1.3l-1.5-1.6l0.3-3l-0.5-4.2l-1-0.2
	l-1.7,0.7l-2.9,0.3l-2.5-0.9l-3.8-5.7l-0.3-3l1.9-4l0.2-5.7l-0.3-1.5l-2.1-1.1l-3.9,0.4L6.9,86l-2-1.4l-4.5-2.2L0,80.9l0.6-5L2,72.5
	l5.9-5.6l1.6-2.3l1.7-1.3l1.9-5l1-1.6l4.4-4.1l2.5-0.6l1.7,0.3l2.3,2.5l0.1,1.8l1.7,2.9l2.6,0.4l8.1-3.4l2.9-0.6l5.2-0.1l5-2.1
	l0.8-4l1.3-1.9l3.9-3.6l2.5-7.3l1.7-2.4l6.8-4.1l4.8-2.2l1.2-2.9l1.9-2.4l3.8-7.4l2.5-9.2l4.6-2l3.7-1.1L93.8,0z"/>
</svg>
