<?xml version="1.0" encoding="utf-8"?>
<!-- Generator: Adobe Illustrator 26.0.0, SVG Export Plug-In . SVG Version: 6.00 Build 0)  -->
<svg version="1.1"
	 id="svg2" xmlns:cc="http://creativecommons.org/ns#" xmlns:dc="http://purl.org/dc/elements/1.1/" xmlns:mapsvg="http://mapsvg.com" xmlns:rdf="http://www.w3.org/1999/02/22-rdf-syntax-ns#" xmlns:svg="http://www.w3.org/2000/svg"
	 xmlns="http://www.w3.org/2000/svg" xmlns:xlink="http://www.w3.org/1999/xlink" x="0px" y="0px" viewBox="0 0 19 24.8"
	 style="enable-background:new 0 0 19 24.8;" xml:space="preserve">
<path id="IN-SK" d="M13.2,0.7l0.4,0.6l1.8,0l1.7,1.5l0.1,1.9l0.5,0.2l0.5,1.5l-0.7,1.1l-0.2,3.5l-1.7,2.5l0.9,3.8L19,19l-0.5,1.2
	l-2.1,0.6l-0.3,1.5l-0.8,0.9l0,0l-0.6,0.2l-0.8-1l-0.6,0.4l-0.8-0.6l-1.3,0l-0.8,0.2l0.2,0.7l-2.1,1.6l-2.3-0.5L6,23.7l-1.5,0.2
	l-0.8-0.4L2.5,24l-1.1-0.6L1.2,22L0,21.6l0,0l1.1-2.8L0.6,18l0.1-0.8l0.7-0.5L0.6,15l3.2-7L3.3,7.3l0.6-0.4L3.8,6.6L2.4,5.9L2.2,4.2
	l0.3-0.3l1,0.5l0.9-0.6l0.3,0.5l2.1-1l0.9,0.3l2-1.6l1.2,0.2l0.3-1.1l1.3-0.4L12.5,0L13.2,0.7z"/>
</svg>
