<?xml version="1.0" encoding="utf-8"?>
<!-- Generator: Adobe Illustrator 26.0.0, SVG Export Plug-In . SVG Version: 6.00 Build 0)  -->
<svg version="1.1"
	 id="svg2" xmlns:cc="http://creativecommons.org/ns#" xmlns:dc="http://purl.org/dc/elements/1.1/" xmlns:mapsvg="http://mapsvg.com" xmlns:rdf="http://www.w3.org/1999/02/22-rdf-syntax-ns#" xmlns:svg="http://www.w3.org/2000/svg"
	 xmlns="http://www.w3.org/2000/svg" xmlns:xlink="http://www.w3.org/1999/xlink" x="0px" y="0px" viewBox="0 0 24.7 35.9"
	 style="enable-background:new 0 0 24.7 35.9;" xml:space="preserve">
<path id="IN-TR" d="M21.5,0l1,0.4l0,0l0,1l0.9,1.9l-1.2,3l1.8-0.1l0,0l0.8,2.4l-0.5,2.6l0.3,1L24.1,13l0.4,1.1l-0.2,1.1L23.7,15
	l-0.4,0.5l0.3,0.7l-0.6,0l0.2,2l0,0l-0.4,0.1l-0.5,1.5L22.2,19l-0.7-0.4L21.4,18L21,18l-1.9,2.2l-1-0.3l-0.8-1.6l-0.4,0l-0.4,1.1
	l0.7,4.6l-0.7,0.3l0,0.7l-0.8-0.1l-1.2,0.9l-1.5,2.8l1.3,4.2l-0.4,0.6L13,33.4l-1.1,1.8l-0.5-0.3l-1,0.2l-1,0.8l-0.8-0.4l-1.5-4.1
	l0.3-0.7l-0.8-0.2l0.2-0.5l-0.5-1l-0.8,0l-0.7,1.7l0.7,2.7l-0.9-0.1l-1-2.1l0-2.2l-0.5-0.9L3.4,28l-0.5-0.4l0.6-0.9l-0.6,0.2L2,23.8
	l-1-0.6l0.2-0.7l-0.4,0l-0.7-1.2l-0.1-1.6l0.8,0.5l0.2-0.9L0,19.1L0,18l0.7-0.3L1.4,18l0.7-2.3l-0.5-1L1.9,14l-0.3-0.4l0.9,0.1
	l-0.1-0.9l0.2-0.4L3,12.7l0.1-0.6l1.5,0.5L5,10.9L4.6,9.5l3.5,0.8L10,9.7l0.5-2l-0.3-0.6l0.4-0.4L11,8.2l1,0.6l0.6,0l-0.4-2.4
	l1.5,0.9l0.7-0.4l-0.1,0.7l1,1.4l0.5-0.1l0.7-2.9L16,4.3l0.8-0.5l0.8,0.8l-0.4-1.6l3,0.1l0.4-0.9l0.7-0.1l-0.4-1.6L20.9,0L21.5,0z"
	/>
</svg>
