<?xml version="1.0" encoding="utf-8"?>
<!-- Generator: Adobe Illustrator 26.0.0, SVG Export Plug-In . SVG Version: 6.00 Build 0)  -->
<svg version="1.1"
	 id="svg2" xmlns:cc="http://creativecommons.org/ns#" xmlns:dc="http://purl.org/dc/elements/1.1/" xmlns:mapsvg="http://mapsvg.com" xmlns:rdf="http://www.w3.org/1999/02/22-rdf-syntax-ns#" xmlns:svg="http://www.w3.org/2000/svg"
	 xmlns="http://www.w3.org/2000/svg" xmlns:xlink="http://www.w3.org/1999/xlink" x="0px" y="0px" viewBox="0 0 95.4 90.1"
	 style="enable-background:new 0 0 95.4 90.1;" xml:space="preserve">
<path id="IN-TG" d="M6.6,36l0.4-0.6l-1-0.7l0.7-1.5L6.1,33l1.2-0.4l-0.8-0.4l0.6-0.5L7.7,32l-0.1-1.6l1.1-0.1l0.2,0.6l1.7-0.6
	l-0.1-2.7l0.5-0.7l0.6,0.5l1.1-2.7l2.2-0.3l-1.3-1.9l-0.9-0.1l0.3-0.9l-0.9,0.1l0.1-0.7l-1,0l-0.2-1L11,19l0.7,0.2l0.1-1.1l1,0.3
	l-0.4-1l0.6-1L12.8,16l0.4-1.3l0.8-0.3l-0.9-0.4l0-0.4l1.8-0.9l2,1.6l0.1,0.6l0.7-0.3l1.8,0.4l0.6-2.1l-0.3-1.8l2.7-1L21.9,8
	l0.7-0.3l0-0.7l-0.9-1.3L22,5l1.2-0.5L23.7,3l-0.6-1.3l-0.9-0.2L22.7,0l0.4,0.7l1,0.1l0.3,1L26,2.2l0.4,0.5L27,2.1l1.6,0.1L31,3.3
	L32.4,3l1.3,0.5L34,5.8l1.2-0.3l1.1,0.4l0.2,1.4L36,8.1l0.8-0.2l0.5,0.5l1.8,0.3l1.6,1.5l0.9-0.2l-0.3-0.5l0.6-0.8l0.2-1.9l1.3,0.5
	l0.2,0.5l1.1-0.1l2.1,1.6l1.5-1.1l0.2,0.6l1,0.4l0.9-1.6L52.4,7l0.9,0.2l0.9,1.3l2.3,1.6l0.7,1.4l-0.2,2.3l-0.9,1.6l0.5,1.2L54.9,18
	l0,1.5l1.2-0.3l0.4,0.6l0.1,3.6l-0.9,0.6l0.8,1l1.7,0.4l2.1,2l1-0.4l0.6,0.5l0.3-0.5l1.4-0.5l0,0l1.6,2.9l3-0.9l3.1,2.4l0.4,1l1,0.8
	l-0.2,0.4l0.7,0.2L72.9,34l0.6,1.8l0.9,1.1l-1.1,0.8l0,1l1.3,0.1l0.7-1.5l0.8,0.6l-0.4,0.2l0.3,1.4l2.3-0.8l-0.6,1.9l1.9,6.4
	l0.9,0.1l1.8-1.5l2,0.9l2.7,0.1l0,0l1.6-0.4l0.5,0.5l1.8-0.6l0.9,0.3l1.1-1.4l0.5-0.2l0.3,0.5l1.2-0.7l0,0l0.7,0.9l-0.2,0.5
	l-4.3,2.3l-0.1,0.8l-1.4,2.2l0.4,0.4l-0.5,0.7l-0.2,2l-1.6,1.9l-0.9,0.1l-1-0.7l-1.2,1.6l-1.8,0l-0.4,2l-2.4,0.4l-1.2,0.7L76.8,60
	l0.2,1.2l-0.9,0l-0.2,2.1l-0.6,0.6L73.1,63l-1.8,0.2l0.4-0.7l-2-1.1l-1.3,0.7L68,63.3l-0.8,0.7l-0.5-0.2l-0.5-1.2l-0.6,0.5l0.5,0.9
	l-0.6,1l2.7,1.2l0.1-0.7l1.9,0.5l0.1,1.2l-0.5,0.1l-0.2,1l1,0.8l-0.9,0.5L67.4,69l-0.1-0.6l-1.1-0.8l-0.6,0.8l-0.3-1l-0.8-0.4
	l-0.4-1.9l-0.8-1.2l-1.3-0.1l-0.4-0.7l-1,1.3l-1.8,0.4l-0.8,1.3l-0.4,1l0.9,0.2l0.8,0.9L58.9,70L57,72.3l-1.2,0.1L55,71.1l-1.1,0.2
	l-0.7-0.9l-2.7,1.5l-3.2,0.7l-1.5,1L42.5,74l-0.9,1.2l-0.1,5.9l-0.9,0.5l-3-0.6l-2.2,0.9L35,82.3l0.1,1.7l-0.8-0.1L34.1,83l-0.5-0.1
	l0,1.5l-1.3,1.4L31,85.7l-2-1.6l-1.2,0.9l-3.2-0.5l-1.9,1.1l-1.2,0L21,87.8l-1.2,0.6l-0.3,1.1l-0.8,0l-0.3,0.5l-1-0.4l-0.6-1.3
	l-0.7,0.9l-2.4-0.8l-1.9,0.7l-1.7-0.5L8.9,89l-1.1-0.8l-2-0.2l0,0l0-1.8l-0.4-0.6L5.7,84l-0.5-0.3l-0.1-0.9l0.6-1.4l-0.5,0l0-0.6
	l0.3-0.4l0.7,0.1l0.7-0.8L7.4,80l0-1.1l-2-0.8l-1.7,0.3L2.3,78L1,77.5l-1-1.4L1.2,76l0.1-0.4l1.5,0.2L3,75.2L3.8,75l-0.5-1l1.5-0.4
	l0.1-1.4l-0.8,0.2l-0.3-0.6l1-0.3l0-0.7l-0.9-0.1l0.3-1.5l0.7,0.1l-0.4-2.8l1-2.2l-0.8-2.1l-2.1-1.3l0.8-1L3,59.6l1.6-1.2l-0.4-0.3
	l0.4-1.8l1,0.4l0.6-0.4l0.2-0.7l-0.5-0.5L7.1,55l0-0.5l0.8,0.2l0-0.6L8.5,54l0.3-0.6l-0.1,0.5l0.8,0.2l0-0.7l-2-0.6l0-0.7l-0.9,0.3
	l-0.4-0.5l-0.5,0.7L5.3,52l-1-0.3l0.2-2.4L6.8,48l0.1-0.4l-1.3-0.4l0.1-0.4l0.3-0.6l0.5,0.2l0.5-1.2l0.5,0.1l-0.2-0.8L8,44.6
	l0.2-1.2l0.4,0.3l0.2-0.5l-0.2-0.5l-1.1-0.4l-1-1l1.1-1l-0.1-1.2L6.9,38l0.8-1.7L6.6,36z"/>
</svg>
