<?xml version="1.0" encoding="utf-8"?>
<!-- Generator: Adobe Illustrator 26.0.0, SVG Export Plug-In . SVG Version: 6.00 Build 0)  -->
<svg version="1.1"
	 id="svg2" xmlns:cc="http://creativecommons.org/ns#" xmlns:dc="http://purl.org/dc/elements/1.1/" xmlns:mapsvg="http://mapsvg.com" xmlns:rdf="http://www.w3.org/1999/02/22-rdf-syntax-ns#" xmlns:svg="http://www.w3.org/2000/svg"
	 xmlns="http://www.w3.org/2000/svg" xmlns:xlink="http://www.w3.org/1999/xlink" x="0px" y="0px" viewBox="0 0 86.2 116.5"
	 style="enable-background:new 0 0 86.2 116.5;" xml:space="preserve">
<path id="IN-TN" d="M64.6,90l0.5,0.4L64.7,91l0.2,0.4l2.4,2.2l-3-1.9l-1.8-0.2l-0.2-0.5l0.3-0.3l1,0L64.6,90L64.6,90z M41.8,16.9
	l0.1,0.8l-0.8,0.7l1.6-0.2l0.5,0.8l1.6,0.9l1.9-0.1l0-1l0.6,0l0.1-0.9l0.4,0l0.1,0l0.2,0.5l0.5-0.1l0-1.3l0.8-0.6l0.9-3.2l0.4,0
	L50,12l0.8-0.8l0.9,0.3l0.2-1.1l0.9,0.2l2.7-0.9l0.1,1.4l0.9,0l-0.7-0.4l0.4-0.7l1.4-0.2l1.9,1.3l1.8,0.1L62,9.8l0.6-0.4l0-0.7
	l1-0.1l0.8,1l1-0.7l-0.1-0.7l1.6-0.5l0-0.5l0.5-0.2l-0.2-0.3L66.7,7L67,5.5l-1.1-0.5l1.1-0.4l2.2,0.3l0.3,0.9l0.7,0.5l1.8-0.8
	l0.1,1.1l0.5-0.1l-0.2,0.6l0.7-0.3l0.5,0.6l0.8-0.6l-1.3-1l0.7-0.7l0.5,0.4L74.8,5l1.1,0l1.6-0.7L78,3.5l-0.4-0.7l0.6-0.3l0-0.7
	l0.7-0.2l0.2-0.6l0.6,0.1l-0.1-0.4l-0.9-0.2l0.1-0.4L80.5,0l1.7,1.3l1.6,0l1,1.9l0.8,0.4l0-1.1l0,0l0.7,3.2l-1,2.9l-0.9,7.7l-2,6.7
	l-5.7,8.7l-1,2.7l0,0l-0.8-0.5L73.5,35l-0.4-1.3l0.8-0.3l-0.4-0.3l-0.6,0.4l-0.6-0.9l-0.7,0.7l0,0l0,0l0,0l1.1,0.3l-0.4,0.8l0.6,0.2
	l0.4,0.8l-0.2,0.4l-0.7-0.6l-0.5,0.8l0.9,0.6l1-0.5l0,0.8l0.6-0.3l0.4,0.7l0,0l-0.9,5.2l1.7,4.5l0.3,8.1l0,0l-1.1-0.2l-0.4,0.4
	l-1.1-0.4l0.3,0.9l-0.9-0.2l0.5,1.2l1.7,0.6l0.1,1.1l0.8,0l0,0l0.6,11l-0.9,0.4l-1.9,0L66.1,69l-1.9,1.2l-1.4,2.5l0,1.1l0.8,1.2
	l-2.4,2.2l-0.7,1.7l-2.7,3.1l-1.2,2.1l-0.8,2.7l0.9,1.6l2.6,2.2l2.7,0.4l-2,0.5l-2.9-0.3l-1.7,0.3l-3,1l-0.2,0.4l-1.3,0l-0.3,0.4
	l0.3,0.3l-1.7,0.6l-3.5,0.4l-4.2,3.2l-0.8,1.6l-0.2,2.3l0.6-0.1l0.9,0.6l-1.3,0.1l-1.3,2l-0.2,1.5l0.9-0.2l-0.2,1.9l-1.4,1.6
	l-0.3,0.8l0.4,0.2l-5.5,2.6l-1.2,1.5l-3.6,0.9l-0.5,1.3l-4.9-0.9l-4.6-3.7l0,0l0.5-0.5l0.8,0.2l-0.5-1.4l1.6-1.3l-0.5-1.2l1.3-0.2
	l0.4-0.8l-2.3-4.2l0.4,0.1l0.8-0.9l0.6-1.8l-0.8-1.2l-0.5,0l0-0.7l-1-1.4l1-0.5l0.3-1.1l1.2-1.2l-0.3-0.8l0.6-0.6v-1.7l0.4-0.8
	l0.6,0l0.5-2.2l0.9-0.4l0.4-1l-1-0.6l-0.2-1.5L23,85l-0.4-0.6l-1,0.6l-1.2-0.8l-0.9,0l0.8-2.3l0.4-0.1l0-1.2l0.5-0.2l-0.5-0.6
	l0.3-0.7l-0.5-0.4l0.7-1.6l0.5-0.2l-0.2-1.4l-1.3-1.5l1.5-0.6l0.4-1.9L21.4,71l0.1-0.7l-0.8-1.1l0.2-0.7l-1.2-0.1l-2.3,1.3L17,70.5
	l-1.4,0.8l-1.4-0.3L13.3,70l0-0.5l-0.5,0.3l-0.4-0.4l0.4-1.4l-0.7-1.2l0.5-3.6l-0.5-0.9l1.4-0.1l-0.4-1l0.9-2l-0.2-0.6l-1-0.2
	l-0.5-1.2L8.9,56l1.2-2.3l1.8-0.2l-1.2-0.1l0-1.6l-1-0.5l0.7-1.4l-0.6-0.5l-1.5,1l-2.8-0.4l-0.7,0.5l-0.1-1.1l2-1.3l0-1.3L5.9,47
	l-1.3-0.7l-0.8-1.1l-1.6-0.5L2,44.9l-0.9-0.6l-0.8,0.3L0,42.4l0.9-0.6l0.6,0.6L2.6,42l0.6-0.8l0.9,0l0-0.8l0,0l0.6,0.1l1.1-0.9
	l0.8,0.6L7,41.4l3.9,0l1.5,0.3l0.4,0.5l0.3-0.6l-0.5-0.9l1.5-3l1.3,0.4l0.3-0.8l0.7,0l0.6,0.4l-0.2,0.4l0.7-0.3l0.3,1.1l0.8,0.3
	l-0.1-1.1l2.6-0.4l0.3-0.4l0.9,0.1l0.9,0.8l0.7-0.4l1.3,0.6l0.8-1.9l-0.1-1.1l0.5,0.3l0.2-1.2l3.7-0.1l0.6-1.5l1.7-2l-0.9-1.3
	L26,28.7l0.1-1.3l1.5-0.5l1.3-1.5l0.3-1.2l0.1-1.5l-1,0.2l0.6-0.7l-0.6-0.2l-0.2-1.1l0.6-1.4l-0.2-0.8l1.3-0.4l0.5,0.5l0.5-0.5
	l0.6,0.2l1.4-2.6l-0.3-1l2.8-1l0.4,0.5l-0.5,0.7l0.3,0.2l0.4-0.8l0.8,1.2l0.4,0l0.3-1.1l0.7,0.1l1.5,1.6L41.8,16.9L41.8,16.9z"/>
</svg>
