<?xml version="1.0" encoding="utf-8"?>
<!-- Generator: Adobe Illustrator 26.0.0, SVG Export Plug-In . SVG Version: 6.00 Build 0)  -->
<svg version="1.1"
	 id="svg2" xmlns:cc="http://creativecommons.org/ns#" xmlns:dc="http://purl.org/dc/elements/1.1/" xmlns:mapsvg="http://mapsvg.com" xmlns:rdf="http://www.w3.org/1999/02/22-rdf-syntax-ns#" xmlns:svg="http://www.w3.org/2000/svg"
	 xmlns="http://www.w3.org/2000/svg" xmlns:xlink="http://www.w3.org/1999/xlink" x="0px" y="0px" viewBox="0 0 72.4 66.8"
	 style="enable-background:new 0 0 72.4 66.8;" xml:space="preserve">
<path id="IN-UT" d="M34.2,2.9l1.1,1.4l-0.3,1l0.8,0.6L36,7.4l0.8,1l1.2,0.3l0.7,2l1.8,0l0.6,1.6l1.2,0.8l1.4-1l1.1,0.1l0.8-0.6
	l1.3,0.7l1,0l1.3,2.1l2.7,1.2l1.2,1.6l1.1-0.8l0.7,1.2l0.7,0L56,18l-0.4,1l-0.8,0.7l0.6,0.6l0.1,1.6l1.9,0.3l1.3,1l0.7-0.1l2.6,1.9
	l1.2-0.8l3.2,2.2l1.5,1.9l4.4,1.6l0,0.4l-0.6-0.2l-1.6,0.6l-1,1.3l0.3,1L67,34.7l-0.3,1l-1.5,1.2l-1.5,0l-1.1,2.6l-1.2,1.3l-1.2-0.2
	l-1.4,1.3l0.3,1.8l0.8,0.9l-0.3,1.1L59,46.5l-0.8,0.2l0.1,0.8l-1.3,1l0.3,0.6l-1.2,0.2l0,0.8l0.7,0.5l0.1,1.1l0.8,0.8l-0.4,2.6
	l-1-0.4l0.5,1.9l-0.8,0.6l-1-0.5l-0.8,0.8l-0.2,2.3l-0.4,0.6l-0.4-0.1L52.3,62l0.3,2.1l0,0l-1,0.7l0.3,0.4l-0.6,1.1l-1,0.5l-1-0.4
	l-0.7-1.3l0.3-0.4l-1.3-0.2l0.7-0.2L48,63.7l-0.6,0l-0.2,0.8l-0.7,0.2l0.5-1.4l-0.7-0.7L45,62.9l-1,0.8l-1.1-0.5l-1.3,0.5l-0.3-1.1
	l-0.6,0.7l-2,0.2l-0.2-1.8L38,61.5l-0.4-0.8l-0.2,0.4l-1.1,0l-2-1.8l-1,0.1l0.1-0.7l-0.6-0.4l-0.1-1.4l-2.2-1l-0.2,1.3L29.3,56
	l-0.4,0.4l-0.9,0l0-1.2l-1-1.4l-1.1,0.1l-1.8-1.4l0.9-0.8l0.7,0.5l0.4-1.3l0.4,0.4l0.9-0.6l1.1-1.5l-2.9-0.5l-3.8-2.1L20.2,45
	l-0.8-2.8l-1.6-0.8l-1.7-0.6L14,43.1l-0.8-0.1l-1.1,0.8l-1.2,1.8l-0.8,0.2l-0.1,1l-1,0.2l-0.1-1L8,45.8l0.1-0.6l0.5,0L8.1,43
	l-1.6,0.1l-0.9,0.8l-0.8-0.3l0.1-0.4l-0.8-0.4l0.1-1.7L2.9,39l0.6-1l-0.3-0.5l0.6-0.8l-0.3-0.5l0.9-0.9l-0.3-0.5l0.6-1.3l0.6,0.3
	l0.5-0.5l1.9-3.3l-4.6-2.2l-1.6-1.8L0,26.1l0,0l0.4-0.6l2.1-0.5l2.5-1.5l0.2-0.5L5,22.2l-0.9,0l-0.7-0.9l1.1-0.5l-0.1-1.1l-1-0.5
	l0.2-0.6l-1.1-1.4l1.2-1.5l0-1.3L4.7,15l0.1-1.6l-1,0l-0.2-0.9l0.6-0.4l1.1,0.6l-0.4-0.4l0.6-0.9L5,10l0.9-0.5l0.9-1.8l1.4-0.6
	l1.2,0.6L9.8,7L11,6.9l1.3-1L14,5.8l0.8-0.9L15.3,5l0.1-0.5l1.2-0.1l0.9,1.1l0.5-0.3l0.5,0.4l0.5,1l1.4-0.1l1.2-0.7l0.8,0.4l0.3,0.7
	l3.1-0.3l0.5,1.4l1.1,1L30,8.7l-0.5-1.5L28.3,6l-0.2-0.8l0,0l0.4-1.8l1.4-0.8L31.1,0l1.7,0.8L34.2,2.9z"/>
</svg>
