<?xml version="1.0" encoding="utf-8"?>
<!-- Generator: Adobe Illustrator 26.0.0, SVG Export Plug-In . SVG Version: 6.00 Build 0)  -->
<svg version="1.1"
	 id="svg2" xmlns:cc="http://creativecommons.org/ns#" xmlns:dc="http://purl.org/dc/elements/1.1/" xmlns:mapsvg="http://mapsvg.com" xmlns:rdf="http://www.w3.org/1999/02/22-rdf-syntax-ns#" xmlns:svg="http://www.w3.org/2000/svg"
	 xmlns="http://www.w3.org/2000/svg" xmlns:xlink="http://www.w3.org/1999/xlink" x="0px" y="0px" viewBox="0 0 158 154.2"
	 style="enable-background:new 0 0 158 154.2;" xml:space="preserve">
<path id="IN-UP" d="M10,0.2L11.5,0l1.6,1.8L17.7,4l-1.9,3.3l-0.5,0.5l-0.6-0.3l-0.6,1.3l0.3,0.5l-0.9,0.9l0.3,0.5l-0.6,0.8l0.3,0.5
	l-0.6,1l1.3,2.1l-0.1,1.7l0.8,0.4l-0.1,0.4l0.8,0.3l0.9-0.8l1.6-0.1l0.5,2.2l-0.5,0l-0.1,0.6l0.8,0.1l0.1,1l1-0.2l0.1-1l0.8-0.2
	l1.2-1.8l1.1-0.8l0.8,0.1l2.1-2.2l1.7,0.6l1.6,0.8l0.8,2.8l1.6,1.5l3.8,2.1l2.9,0.5l-1.1,1.5l-0.9,0.6l-0.4-0.4l-0.4,1.3L35,25.7
	l-0.9,0.8l1.8,1.4l1.1-0.1l1,1.4l0,1.2l0.9,0l0.4-0.4l1.1,1.2l0.2-1.3l2.2,1l0.1,1.4l0.6,0.4l-0.1,0.7l1-0.1l2,1.8l1.1,0l0.2-0.4
	l0.4,0.8l0.5,0.1l0.2,1.8l2-0.2l0.6-0.7l0.3,1.1l1.3-0.5l1.1,0.5l1-0.8l1.3-0.3l0.7,0.7l-0.5,1.4l0.7-0.2l0.2-0.8l0.6,0l0.5,0.6
	l-0.7,0.2l1.3,0.2l-0.3,0.4l0.7,1.3l1,0.4l1-0.5l0.6-1.1l-0.3-0.4l1-0.7l0,0l1,0l2.1,1.8l0.7-0.1l0.1,0.7l1.3,0.7l0.9,1.5l1.9,0.2
	l1.4,1.8l0.3-0.5l-0.6-2.2l1.4-0.5l0.9,1.2l1.2-0.1l0.5,1.3l1.6,0.5l0.4,1l1.6,0.8l0.2-0.5l0.7,0.3l0.1,0.7l1.4,0.8l0.8-0.4l0.4,0.9
	l0.9,0.7l2.7,0.6l0.5,1.7l1.8,2.2l0,0.7l-0.4,0l0.5,0.4l-0.2,0.4l1.1-0.2l0.1-0.8l1.4,0.4l0.8,1L92,56l3,1.9l1.6,0.4l3.8,3.1
	l0.9-0.1l0.9-1.6l2.1,0.1l1.2,1.4l1.8,0.5l5,3.9l5.4-1l0.1,1.3l0.9,1.9l-0.4,2l4.1,0.1l0.5,0.8l1.7,0.5l3.2-0.1l2.4,2.9l1.1-0.3
	l1.1-1.6l-0.5-0.5l0.4-0.5l-0.3-0.5l4.7,0.2l5.1,2.8l0,0l-0.6,0.7l0.5,0.3l1.3-0.3l0.2,0.5l-0.6,1.1l1.2,0.6l0.5,0.8l-0.8,2.5
	l1.7-0.1l-0.6,0.6l1,0.6l0.1,1.9l-0.5,0.5l0.5,0.3l0.1,0.9l0.8,0.3l0.2-0.6l0.8,0.3l-0.2,0.7l0.8,0.5l0.8-0.9l0.7,0.2l0.2,1.3
	l-0.6,1.2l0.2,0.4l0.3,0.2l1.1-0.6l0.6,1.6l1.6,0.3l0.3,1l-3,0.7l-4-1l0,1l-0.7,1.3l-1.5,0.3l-0.2,0.5l-1.3-0.2l0,1.6l1.7,0.4
	l0.6-0.3l1.3,1.5l2.1,0.2l0.2,1.3l-0.5,1.7l-1-0.4l-0.7,1l-1.4-0.5l0.1,2.2l0.6,1.1l0.9,0.1l1.6,1.7l0,0.8l0.7-0.2l2,1.3l1.2-0.3
	l1.2,0.7l0.3,0.9l2.2,0.3l0,1l0.6-0.1l1.3,1l-0.4,0.8l0.6,0.8l-1.6-0.2l-0.1,1.2l-0.4-0.2l0.1-0.8l-0.2,1l-0.8,0.2l-0.8-0.9l-1,0.3
	l-0.5-1.1l-1,0.1l-0.3,1.7l-0.7-0.1l0,0.4l-1.7-0.2l-0.2-0.8l-1-0.6l-1.1,0.2l-0.5,0.6l0.1,1.4l-3.3,1.8l-1.4,2l-0.9,0.2l0.6,0.7
	l-0.9,0.1l0.1,0.5l-0.8,0.5l-0.6-0.5l-0.6,0.6l-0.2-0.2l-0.4,0.4l0.3,0.2l-0.8,0.1l-0.6,0.9l-1.2,0.5l-0.5-0.2l-1.7,1.5l-1.1,0.1
	l-0.4,1l-0.8,0.2l-0.3,0.4l0.5,1.3l-0.8,2.5l0.5,0.2l0.2,3.2l0.8,0.9l-0.1,1.1l1.4,1.2l0.6-0.1l0,0.7l0.7,0.6l-0.3,0.7l0.9,0.6
	l-0.9,2.3l0,0l-2.2,0.6l-0.2,1l0.4,1.1l0.6,0.1l0.5,0.9l-1.6,1.2l0.5,1.1l-1.6,3.8l0,0l-0.7,0.7l-0.3,1.1l-1.3,0.8l-0.6,1.6l-2.2,1
	l-3.1,0.1l-2.7-2l0,0l-0.2-1l-1.2-0.4l0.5-1.3l-1.2-0.1l-1.1-1.2l0.3-0.5l1,0.4l0.1-1.9l0.5-0.3l0.3-1.3l-0.1-1.9l-1.1-0.3l0.6-2.6
	l-0.4-0.3l-0.1-1l0.7,0.3l1.1-0.3l-0.1-1.1l-0.8,0l0.1-1.1l-1.4,0l0-0.7l-0.8-0.6l-2.7,1.1l-0.2-0.6l-1.5,0l-0.3-0.7l-0.6,0.5l0.2,2
	l-1.7-0.6l-0.8,0.2l0.1-1.3l-0.7-0.4l-0.2,0.5l-0.5-0.1l0.3-2.4l-0.1,0.5l-0.4-0.3l0,0.4l-0.5,0l0.3,0.5l-0.9-0.3l0.3-1l0.4,0
	l-0.6-0.5l0.4-0.5l-0.8,0.7h-1l-2.2-1.4l-1,0.5l-1.3-1.4l0.3-0.9l-0.3-1.8l-0.3,0.4l-1.2-0.6l-0.8,0.2l-1.2-0.9l-1.1,0.1l-0.5-0.8
	l-1.1,0.4l-0.2-0.4l0.8-0.5l-0.3-0.4l-0.3,0.5l-0.2-0.8l0.6-0.5l-0.8-0.2l-0.3-0.6l-1.2,0.2l0.3,1l-0.6-0.2l-0.5,0.4l0.7,0.7
	l-0.5,0.7l-1.7-0.8l0.8-0.1l-0.2-0.5l-0.8,0.2l-1.3-1.1l-0.4,0.2l0,1.1l-0.2-1.2l-0.8,0l-0.5,1.4l0.3,0.9l-1.3,1.7l0.2,1.4l-0.6,0.1
	l0.3-0.1l-0.8-0.5l-0.6,1.5l-1.2-1.4l-1.4,0l0.2,0.5L81,130l-0.4-1.1l-0.8,0.4l0,0l0.1,0.4l-0.4-0.2l0,0l-1,0.3l-0.7-0.2l-0.3-0.6
	l1.2-0.6l-0.5-1l0.9-0.7l-0.1-1.2l0.8-0.8l-0.6-0.8l-0.9,0.1l-0.2,1.9l-0.6-0.8l-2.1,0.2l0.5,0.3l0,0.6l1.1,0.3l0,0.5l-1-0.2
	l-1.1,0.4l0.1-0.6l-0.5,0.2l-1.2-0.7l0.6-0.4l-0.8-0.7l0.3,1.9l-0.9-0.4l-0.4,0.6l-0.7-0.8l-0.7,0l0.5,0.3l-0.1,1l-0.5,0l-0.6-0.9
	l-1.6,0.6l0.3,1.1l-0.5-0.4l-0.9,0.5l-1-0.6l1.8-2.7l1.5-0.7l-0.5-1.6l-0.4,0.1l-1.5-1.2l0.1-2.3l-1.1-1l-0.2,0.6l-1.1-0.3l-0.1,0.8
	l-1.4,1l-0.8-0.4l-1.3,0.3l-0.5,1.7l-1.1-0.1l-0.6,0.9l-0.2-0.5l-1.2,0.4l0.5,2.1l-0.5,0.4L58,126l-2.3-1.1l-3.1,0.3l0.1-0.5
	l-0.3,0.2l-0.5-0.7l-1.6,2.2l-0.6-0.3l0.2-0.9l-0.8,0.6l-0.3-0.7l-0.3,0.6l-0.3-1.3l0.5-0.9l0.7-0.1l-0.3-0.3l0.7-1l0.7,0l-0.7-0.3
	l-0.9,0.6l-1-0.8l-0.3,0.7l-0.5-0.7l0.3-0.9l-1.1-0.2l-0.7,0.7l0,0.9l0.6-0.4l0.5,0.7l0.6-0.3l-0.2,1l0.4,0.4l-0.3,0.3l-1.2-1.1
	l0.1,1.2l0.7,1.1l-0.2,0.4l-0.9,0.3l0-0.7l-0.5-0.2l-0.5,0.3l0.6,0.2l-0.1,0.6l-0.7,0.1l-0.5-0.9l-0.4,0.2l0.3,0.6l-1,0.2l-0.4-0.8
	l0.3-0.5l-0.8-0.7l-0.9,1.3l-0.4-0.1l0.1-1l0.7-0.9l-0.9-0.5l-0.1-0.7l-0.7,0.7l0.5,0.3l0,0.9l-1-0.6l-1.6,1.3l0.1-2.1l0.3,0.2
	l0.4-0.7l0.7,0.3l0.6-0.5l-0.4-1.5l-0.5,0.4l-1.1-0.3l-0.7,2.7l-0.8-1l0.1-0.7l-0.6,0.1l0.2-0.4l1.1-0.4l-0.1-0.5l0.8-0.8L39,119
	l-0.4,0.5l-0.8,0l0.8,0.5l1-0.6l-0.4-1.5l-0.6,0.2l-0.5-0.4l0.7-0.8l-0.4-0.9l0.5-0.2l-0.2-0.7l-0.3,0.4l-0.1-0.4l-0.8,0.1l0,0.8
	l-1,0.3l0.6,1l-0.5,0.8l-0.4-0.3l0.7-0.2l-0.3-0.3l-1.5-0.2l-0.5-0.6l-0.1,0.9l0.6,0.7l1.2,0.1l-1.5,0.4l0.4,1.3l-1.1,0.1l-0.1-0.6
	l-1.1-0.2l0-0.7l0.3,0.4l0.7-0.6l-0.3-0.4l-0.7,0.1l-0.5,0.9l-0.5-0.2l-0.3,0.6l-0.6-0.1l0.3,1l-1.1-0.3l0.3,0.8l-0.3,0.5l-0.5,0.1
	l-0.2-0.5l-0.5,0.7l-0.6-0.3l-0.3,0.4l0.6,0.4l0.9-0.5l1.5,0.8l0.6,3.7l0.9,0.8l-0.4,2.2l0.7,0.5l0.3,1l2,0.9l0.3,1.1l-0.3,0.5
	l0.2,2.1l-0.7,1l0.2,1.3l0.6,0.3l2.2-1.1l1.8,3.3l-0.7,0.3l-0.4-0.4l-0.1,0.8l1.6,0.6l-0.4,2l-1.2,1.2l-0.6,1.8l-1.4,0.3l-0.5,0.7
	l-0.7-1.8l-0.3,0.4l-0.3-0.3l-0.7,0.4l-0.6-0.2l-1.9-2.6l-1.5-0.8l-1.5,2.2l-1.2,0.5l-1.1-1.2l0.7-1.3l-2-1.4l0.1-0.7l-1-1.1
	l0.8-0.8l0.2-2.5l-1-1.9l-0.2-1.5l-0.9-1l0-0.6l3.4-2.7l0-2.1l1.4-1l1,0l-0.5-0.6l0.6-0.4l-1.3-0.6l0.3-0.5l-0.9-0.7l-0.2-1.2
	l-0.8-0.3l0.5-0.6l-0.7-0.9l0.7-0.6l0.4-1.3l0.6,0.2l0.9-0.7l-0.3-1.3l0.4-0.7l0.5,0.3l0.6-0.7l2,0.4l0.6-0.6l0.8,0.5l0.6-0.7
	l2.7-0.7l0.1-1.2l-1.4-1.7l1.5-1.2l0-0.4l-0.5-0.1l0.3-0.3l1.1,0.7l-0.3-1.4l0.8-0.2l-0.1-1.1l1.1-0.8l0.3-2l1.2-1l-1.3-1.3l1.2-0.4
	l-0.5-0.9l0.8,0l0.1-0.9l0.8,0l-0.4-0.8l0.6-0.5l0.3,0.4l0.2-0.9l0.7-0.1l-0.2-0.4l0.4-0.2l-1.2-0.4l0.2-1.3l0.6,0l0.2-0.6l-1.6-0.3
	l0.3-1.1l-0.8-1.1l-0.5,0l-0.1-0.7l-0.2,0.2l0.5-0.9L39.9,89l-1.2,0.5l0.2-0.8l-0.9-0.4l-0.8,0.2l-1.1-1.4l-0.9,0l-0.5-0.7l-0.4,0.3
	l-0.2-0.5L33,87l-2,0.3l-2.4-0.9l-0.5-0.8l-0.8,0.2l-0.8-1.2l-1.4,0.2l-0.4,1l-1.1-0.4l0,0l-0.4-1.2l0.7,0.1l0.7-1l-1-0.7l-0.2,0.4
	l-2-0.3l-0.2,1.1L20,83.6l0.1,1l-0.5,0.3l-0.3-1.2L17.9,84l-0.9-0.6l-0.2,0.8L14,83.1l-0.7,0.5l-0.1,0.8l-2.3,1.1l-1.8,0.3l-0.5-0.6
	l-0.4,1.4l0.3,0.5l-0.9,0.5L7.9,87l-0.7,0l0.2-1.2l-0.4-1.1l4.7-2.5l1.8-0.3l0.4-0.8l-0.6-0.2l-0.1,0.7l-0.4,0l-0.6-1.2l-1,0.8
	l-1.5-0.5l0.2-1L9.1,80l-0.5-0.7l1.9-0.7l0.3-1.1l1-0.2l0.4-0.6l-0.7-0.4l0.1-0.5l-1.1-1.5l0.5-1l-0.8,0.4l-1.6-1.3l-1.4-0.4
	l-0.4-0.6l0.3-0.9l-0.7-0.4l-0.3-0.9l-1-0.3l-0.1-1l0.4-0.5l-0.8-0.4l0.7-1l-0.1-1l-0.8-0.5L4.6,63L4,62.6l0,0l1.3-1.3l1.5,0l0-0.9
	l1,0.3L8,59.6l1.1,0L9.5,59l-0.6-0.2l0.5-0.6l-1.2-1.2l-0.2-1l0.2-0.5l0.3,0.2l0.1-1.5l1-0.5l-1.1-0.1l-0.1-0.6l0.6,0.2L9,52.5
	l0.5-0.4L8,51.5l0.5-0.3l0.1-0.6l-0.7-0.7l0.6-0.5l-0.4-1.3l-2.9-2.3l0,0l-0.9-1.4l0.9-1l-0.5-0.9L5,40.9L4.2,41l-1.3-1.8L2.3,39
	l0.4-1l-0.6-0.8l0,0L2,36.7l0.8-0.3l-0.6-1.2l0.5-1.2l-1.9-2.4l0.4-1.8l-0.3-1l0.4-0.4l-0.3-0.7L1.4,26l-0.7-0.3L0.7,25l0.6-0.3
	l-0.4-0.5l0.3-0.8L0,21.3l0.5-0.5L0,19.6l1.2-2.5l-0.6-1.6L1.4,15L2,12.2l1.7-2.3l0.2-1.1l3-1.4L6.6,7.1l0.5-1.2l1-0.5l1.1-2.3
	l0.9-0.7L10.6,1l-0.4-0.3l0,0L10,0.2z"/>
</svg>
