<?xml version="1.0" encoding="utf-8"?>
<!-- Generator: Adobe Illustrator 26.0.0, SVG Export Plug-In . SVG Version: 6.00 Build 0)  -->
<svg version="1.1"
	 id="svg2" xmlns:cc="http://creativecommons.org/ns#" xmlns:dc="http://purl.org/dc/elements/1.1/" xmlns:mapsvg="http://mapsvg.com" xmlns:rdf="http://www.w3.org/1999/02/22-rdf-syntax-ns#" xmlns:svg="http://www.w3.org/2000/svg"
	 xmlns="http://www.w3.org/2000/svg" xmlns:xlink="http://www.w3.org/1999/xlink" x="0px" y="0px" viewBox="0 0 84.8 130.8"
	 style="enable-background:new 0 0 84.8 130.8;" xml:space="preserve">
<path id="IN-WB" d="M55.9,129.5l0.6,0.6l0.1,0.7l-1-0.3L55.9,129.5z M63,129.3l1.4,1.2l-1.3,0L63,129.3z M60.6,128.9l0.6,0.6
	l-0.3,0.7l-0.6-0.5L60.6,128.9L60.6,128.9z M56.7,128.6l1.1,0.8l-0.8,0.9l-0.8-0.9l0.3-1.2L56.7,128.6z M61.7,128.3l0.5,1.4l-1,0.3
	l0.3-0.6l-0.5-0.6L61.7,128.3z M65.7,128.5l0.4,0.5l-0.6,0.1l-0.1-1.1L65.7,128.5L65.7,128.5z M57.9,127.7l0,1.4l-0.8-0.5
	L57.9,127.7L57.9,127.7z M66.1,127.1l0.1,0.9l0.5,0.4l0.3,1l-0.6,0.1l0-0.6l-0.6-0.5l-0.5-1.1L66.1,127.1z M62.3,127.3l-0.2,0.9
	l-0.8-0.5L62.3,127.3L62.3,127.3z M52,127.1l0.7,0.4l0.3,0.9l-0.9,0.9L52,127.1L52,127.1z M55,127l0.3,0.8l-0.5,1.1l-0.3-1.2L55,127
	L55,127z M49.8,126.8l0.3,0.5l-0.2,0.4l0.3,0.4l0.1,0.5l-0.2,0.9l-0.6-1.9L49.8,126.8L49.8,126.8z M67.7,126.7l0.7,1.8l-0.9,0.6
	l-1.1-1.4l0.2-0.6L67.7,126.7L67.7,126.7z M57,126.8l0.6-0.1l0.3,0.7l-1,1l-0.5-1.2L57,126.8z M64,126.2l1.2,1.1l-0.4,1.4l-1-1.4
	L64,126.2L64,126.2z M54.1,126.5l0.3,0.7l-0.4,1l0.4,0.7l-0.7,0.7l-0.4-1.9l0.5-0.8l-0.5-0.3l0.3-0.5L54.1,126.5L54.1,126.5z
	 M50.1,126.1l1,0.2l0.7,1.6l-0.3,1.5l0.4,0.5l-0.6,0.5l-0.7-0.2L50.1,126.1L50.1,126.1z M65,125.9l0.8,0.9l-0.9-0.2L65,125.9z
	 M53.3,125.9l-0.1,0.8l0.4,0.4l-0.5,0.4l-0.2-1.4L53.3,125.9z M66.7,125.9l0.8,0.6l-0.5,0.3L66.7,125.9L66.7,125.9z M63,125.9l0.6,0
	l-0.5,1.2l0.4,1.6l-0.3,0.2l-0.7-0.3l0.1-1.6l-0.8,0.1l0.4-0.9L63,125.9L63,125.9z M57.7,125.5l0.8,1.1l-0.3,0.8l-0.6-1.3
	L57.7,125.5z M66,125.4l0.8,1.3l-0.2,0.2l-1.1-1.2L66,125.4L66,125.4z M58.3,125.2l0.2,0.9l-0.4-0.3l-0.2-0.5L58.3,125.2L58.3,125.2
	z M55.3,125.2l0,1.2l-0.7,0.4l0.1-1.1L55.3,125.2L55.3,125.2z M60.5,124.8l0.9,1.1l-0.1,0.6l0.3,0.1l-0.1,0.7l-0.7,0.1l0.4,0.6
	l-1.3-0.4l0.2-1.5L60.5,124.8L60.5,124.8z M56.9,124.7l0.6,0.5l0,1.2l-1.1,0.4l-0.3-1.2L56.9,124.7L56.9,124.7z M54.3,124.7l0.4,0.3
	l-0.4,1.3l-0.5-1L54.3,124.7L54.3,124.7z M66.4,124.7l0.4,0l0.1,1.1l-0.7-0.6L66.4,124.7L66.4,124.7z M62.8,124.9l0,0.8l-0.8,0.4
	l0.6-1.6L62.8,124.9L62.8,124.9z M65.2,123.9l0.7,0.6l-0.3,0.7l-1,0.4l-0.3-0.9L65.2,123.9z M57.9,123.8l0.3,0.4l-0.1,0.7l-0.6-0.4
	L57.9,123.8L57.9,123.8z M52.5,124l0.5,1.1l0.5,0.1l-0.1,0.4l-0.7,0.2l-0.2,0.8l-0.8-0.2l-0.4-1.6L52.5,124L52.5,124z M63.4,123.5
	l0.4,0.3l0.7,2.6l-1.4-1.2L63.4,123.5z M48.4,123.3l0.7,1.4l0,1.6l-0.6,1.4l0.2,0.7l-1,0.5l-1.4-0.5l-0.1-0.6l0.8-2.4L48.4,123.3
	L48.4,123.3z M62.1,123.7l0.7-0.8l0.4,0.4l-1.1,1.5l-0.2-0.8L62.1,123.7z M66,122.9l1,0.6l-0.3,0.9l-1.3-0.4L66,122.9L66,122.9z
	 M58.5,122.8l0.7,0.7l-0.3,1.9l-0.8-1.8L58.5,122.8L58.5,122.8z M57.3,122.8l0.3,0.4l-0.4,1.2l-0.3-0.5L57.3,122.8L57.3,122.8z
	 M54.8,122.6l0.7,0.4l0.2,0.7l-0.9,0.9l-0.9,0l0.4-1.7L54.8,122.6L54.8,122.6z M60.5,122.7l0.7,0.1l0.7,0.8l-0.5,1.8l-1.3-1.3
	L60.5,122.7L60.5,122.7z M58.9,122.2l0.6,0.2l-0.4,0.5L58.9,122.2z M63,122.3l1.6-0.2l1.1,0.6l-0.3,0.5l-1,0.8L63,122.3z M60.6,122
	l1.6,0.3l0.2,0.8l-0.4,0.4l-0.4-0.8l-1.1-0.2L60.6,122L60.6,122z M61.1,120.9l0.1,0.6l0.7,0.1l0.2,0.3l-1-0.1l-0.4-0.8L61.1,120.9
	L61.1,120.9z M59.3,120l1.2,0.4l-0.8,1.3l-1-0.3L59.3,120L59.3,120z M48.5,119.9l-1.1,2.1l-0.8,0.5l0.5-1.9L48.5,119.9L48.5,119.9z
	 M62.5,120l1.9,0.2l-0.1,1.7l-0.9,0.2l-2-0.9l0.3-1L62.5,120L62.5,120z M67.3,119.4l0.8,1.4l-0.3,1.2l-0.6,0.2L66,120l0.1-0.8
	L67.3,119.4z M63.7,118.7l0.3,1l-1.9-0.3L63.7,118.7z M63.1,118.1l0.3,0.4l-1.3,0.4l-0.2,0.5l-0.5-0.1l0.5-1.2l0.8-0.3L63.1,118.1z
	 M63.4,116.1l1.2,2.3l-0.9,0.1l-0.9-0.9l0.9-0.4l-0.7-1.2L63.4,116.1z M65.5,116.3l0.6,0.8l-0.4,1.3l-0.8,0.6l0,0.9l0.5,0.5
	l-0.2-1.2l0.6,0l0.2,1.6l1,1.5l-0.2,0.4l-1.6-0.8l-0.5-1.3l-0.2-1.6l0.6-0.7l-0.8-1.6l0.5,0.2L65.5,116.3L65.5,116.3z M66.5,115.9
	l1,1.6l-0.3,1.5l-1.5-0.2l0.6-1.5l-0.5-1.3L66.5,115.9z M60,116l2,0.7l-2.2,2l1.1,1.1l-0.2,0.5l-1.4-0.5l-0.6-1.7L60,116z
	 M63.3,117.1l-1.6,0.9l-0.8,1.2l-0.3,0l-0.4-0.5l2.3-2.1l0.4-0.1L63.3,117.1L63.3,117.1z M65.3,115.4l0.3,0.6l-0.6,0.5l-0.1-0.4
	l0-0.5L65.3,115.4z M62.5,114l0.3,1l-0.6,0.4l0.5,0.9l-0.7,0.1l-0.9-0.6l0.1-0.5L62.5,114L62.5,114z M63.1,112.6l1.1,0.1l0.4,0.8
	l0.5,0.2l0.2,1.4l-0.9,0.4l0.2,1.1l-2.1-1.1l0.5-0.3l-0.3-2L63.1,112.6L63.1,112.6z M66.1,111.8l0,1.3l0.8,0.6l-0.6,0.3l1.5,2l0,1.2
	l0.6-0.2l-0.7,0.6l-0.9-1.7l-1-0.1l-0.4-1.1l0.4-3.2L66.1,111.8z M64.2,108.3l0,1.6l0.6,1.4l-0.7,0.5l-0.5-2.9L64.2,108.3
	L64.2,108.3z M65.1,107.8l0.5,0.2l0.8,2.7l-0.8,0.4l-0.4,2.3l-0.7-0.6l0-0.9l0.5-0.4l-0.6-1.6l0-1.9L65.1,107.8L65.1,107.8z M45.9,0
	l1.2,0.4l0.2,1.4l1.1,0.6l1.2-0.5l0.8,0.4l1.5-0.2l0.4,0.6l2.3,0.5l2.1-1.6L56.4,1l0.8-0.2l1.3,0l0.8,0.6l0.6-0.4l0.8,1l0.6-0.2l0,0
	l2.5,0.9l0.1,3.7l0.9-1.1l0.7,0.7l-0.3,0.6l0.5,0.4L67,6.6l0.5,0.9l0.9,0.2L68.6,9l0.6,0.7l2.6-0.2l2.5-1.2l0.3,0.6l1.2,0.2L76,9.7
	l2.1-0.2l1.3,0.9l0.5-0.1l0.2,0.4l-0.9,0.8l0.4,0.2l0.6,0l0.3-0.5l1.1,0.4l0.6-0.3l0.4,0.9l0.7-0.4l1,0.3l0,0l0.4,1.3L84.4,14
	l0.4,0.9l-0.3,0.1l-0.2,2.1l0.4,0.7l-0.9,1.5l0.4-0.1l0.2,0.4l-1.6,0.7l0,0.5l-0.6,0.2l0.2,0.8l-0.9-0.4l0.4,0.8l-0.3,0.3l-0.4-0.3
	l0.5,0.7L81,23.5l0.7,0.1L81,24.2l0.8,0.3l-0.3,0.2l0,0l-0.4-0.1l-0.5-0.8l-0.1-0.4l-0.7-0.2l0.5,1.2l-0.9-0.1L79.3,25l-0.4-0.1
	l0.8,0.9l-0.8,0.4l0.3,0.3l0.4-0.4l0.4,1L78.6,28l0,1.3l-0.8-0.1l0-0.8l-2.2-0.1l-0.2-0.9l-0.7,0.9l-1-0.1l-1.5-0.9l0-0.4l-0.5,0
	l0.2-0.6l-0.9-0.7l-1.4-0.4l-0.5-1l0.1-1.3L68.7,22l0.8-0.9l-1.1,0l0.3-0.4L68.3,20l0.1-0.8l-1.1,0l-1.6-1.5l-0.3,0.8l-0.4-0.2
	L64.6,19l0.2,1l0.9,0.1l0.1,0.3l0.5,0l0.3,0.6l-0.3,0.6l0.9,0.4l0.7-0.2l0.1,0.9L65.8,23l-0.7-1.1l-1-0.1l-0.4,0.3L64,23l-0.8,0.1
	l-0.6-0.6l0-1l-0.5-0.3l-0.8,0.3l-0.3-1.2l-0.9,0.4l-0.5-1.1l0.4-0.2l-1.6-1.1l-0.1-0.8l-0.5,0l0,0.5l-0.8-0.2l0.1-0.8l-0.7,0.2
	l-0.9-1.4l-1.1-0.1l-0.4-2l-0.8,1l-0.9,2.7l0.4,0.7l0.2-1l2.4,0.6l0.9,2.4l-0.8,0.2l-0.6-0.6l-0.4,0.9L54,20.9l0.2,0.3L52.9,22
	l0,1.4l-2.1,0.7l-1.5,1l-0.4,1.6l0.5,0.2l-0.3,0.9l0.3,0.2l-0.9,0.3l-1.2,2.3l0.5,0.5l0.2,2.2l0.7,0.5l0.7-0.6l0.5,0.3l1.3-0.5
	l0,0.7l2.2,1.6l0.6,1l1,0.2L54.9,38l1.1,0.4l-0.1,0.5l1.7,1.2l0.7-0.2l0.8,0.8l1,0.2l0.3-0.6l1.2,0.1l-0.1-0.7l1,0l0.6,1.2l-0.5,1.4
	l0.6,0.4l0,0.7l0.9,0.9l0.4-0.3l0.4,0.7l1.8,0.3l-1.1,0.8l0,0.9l-0.5,0l0.3,0.8L64.8,48l-1.6-1l-0.9,0.9l-0.6-0.4l-0.4,0.3L60.4,47
	l-1.9,0.1l-1.1,0.7L56,46.9l-1.1,0.4l0.4,1.3l-0.4,0.4L55,50l-0.3,0.7L55,51l-1.2,1.5l0.1,0.5l-1.3,0.2l-0.3,0.7l0.5,0.4l-0.5,0.6
	l-1-0.7L51,54.7l0-1l-0.7-1l-1.8,0.5l0.8,1.7l-0.6,0.2l-0.2,1L48.1,56l-0.3,1L47,57.2l-0.1,1.1l-1.1,1.3l2.9,3.7l1.1,1l1.6,0.5
	l1.2,1.3l2.4,0.1l1.7,0.8l0.6,1.1l0.3-0.7l0.4,0l0.9,0.5l1.5-0.1l0.7,0.8l-0.1,1.8l-0.7,0.7l0.2,1.1L60,72.3l0.1,0.4l0.5,0l0,2.3
	l0.7-0.3l0.3,0.5l-0.8,0.2l-0.1,1.5l-0.6,0l-0.9,1l-1.7,0.2l0.5,1l-0.9,0.7l0.4,0.5l-0.4,2.8l0.6,0.1L57.7,84l1.3-0.2l0.3,1.3
	l1.8,1.6l1.2-0.3l-0.2,1.2l-0.5,0l-0.2,0.5l0.1,1.3l-0.6,0.4l0.3,0.8l-1,0.3l0.5,1l1.6,0.8l0.4,0l0.1-0.8l0.7,0.6l1.3-0.1l0.1,0.5
	l1.6-0.1l-0.3,0.7l-0.4-0.2l-0.9,1.5l-1.1,0.7l0.1,2.1l-0.6,0l0.4,0.3l-0.1,0.8l0.7,0.1l0.4,0.7l-0.1,0.9l0.8,0l0.5,0.8l-0.2,1.1
	l-0.8,0.7l0.8,1.6l-0.6,1.6l0.5,0.2l-0.4,0.9l-1.4,0.5l-0.5,0.9l0.3,0.6l-0.3,2.1l0.6,0.7l-1.2-0.2l-0.4,1.7l-1.2,1.1l-0.1,0.7
	l-1.1-0.1l-1.3,2.3l0.4,1.4L58,121l0.2,1.4l-0.6,0.5l-0.1-0.4l-0.7,0.1l-0.3,1.1l-0.7-0.6l0.7-1.2l-2.2,0.5l-0.5,0.5l-0.1,1.9
	l-0.6,0l-0.2-1.3l-0.8,0.2l-1.1,0.9l0.3,1.2l-1.2-0.2l-1.1-2.6l0.3-1.1l-0.5-0.7l1.1-1.4l0.3-1.2l-0.4-2.1L49,116l-2-0.3l0.7-2.1
	l-1.2,1.9l-1.3-0.6l-0.5-0.9l-0.3-2.8l-0.5-0.7l-0.8-0.1l1.2,1.7l0,2.4l1.4,1.3l2.7,0.4l1.1,1.9l-2.7,1.9l-0.2,0.1l-1.5,3.4L44,125
	l-0.8,0.2l-2.1,2.2l-0.8-0.1l-1.3,1l-4.3,1.1l0,0l-0.5-0.8l0.3-1.4l-0.6-0.5l0-0.7l-1.5,0l-0.4-0.6l-1.9-0.6l-0.6-3.2l-1.4-0.4
	l-0.2,1l-1.4,0.5l0,1.1l-1.3-0.1l-0.7-1l0.8-1.8l-0.4-1.2l-1.3-1l-2.6-0.3l-0.9-1.3l-1.6,0.2l0.2-1.6l0,0l0.9,0.1l0.2-0.1l0.5,0
	l0.2-0.6l0-0.6l0.1,0.3l1.5-0.1l0-1l-1.2-0.7l0.3-1.6l-1.7-0.7l-0.4-1.1l0.9,0l0.2-0.6l-0.8-1.7l-2.3-0.1l-0.7-2.2l-1.6-1.1
	l-0.7,0.4l-1.9-1.7l0.3-1.9l0.6-0.8l-0.6-0.6l0.8-0.6l0.3,0.3l0.7-0.2l0.5-1l-0.6,0.5L14,98l-1.7-0.1l-0.5,0.5l-2-0.9L8.1,98
	l-1.3-1.1l-0.3-1l-1.9-0.6l-0.2-0.8l-2.6,0.3l-1.2-1.5l-0.5,0L0,91.8l1.1-1.4l-0.2-0.9l0.6-0.1l-0.7-0.9L0.8,87l1.6,0.4l2.2-0.9
	l-0.8-1.3l0.8-0.7l2,0.4l0,2.2l1.6,0.4L8.6,87l-0.3,0.8l0.4,0.4l0.7-0.5l0.5,0.5l0.3-0.2l-0.3-0.4l1.5-0.9L11,86.4l0.1-1.1l0.5-0.9
	l1.2-0.6l0-0.5l1.9,0l1.3-1l2.1-0.5l0.8,0l0.1,0.4l1.1-0.2l0.6-1.7l-0.6-1.6l0.6,0.5l1.1-0.8l0.1-0.4l0.4-0.4l0.9,0.8l0.6-0.5
	l3.3,1.6l0.5,0l0.4-0.6l-0.7-1.1l1.4,0.3l-0.1,0.3l0.6,0.2l0.5,0.1l0.1-1.9l0.5,0.8l0.5-0.6l-0.1-1.3L30,75.7l-0.5-1.7l2,0.2
	l-0.4,0.6l0.3,0.2l0.6-0.3l2.1,0.6l-0.5-0.6l1-0.1l0.6-0.6l-0.4-0.3l0-1.5l1.7,0.7l-0.1-0.5l0.8-0.5l-0.8-0.6l2.5,0.1l0.1-0.8
	L37.9,70l0-0.7l1-0.1l0.6-1l1-0.3l1.1-2.4L41,65.4l0.8-1.8l-0.3-0.4l-0.2,0.5l0.2-1.2l-0.8-0.8l1.6,0.7l0.8-0.3l0.5-0.7l-0.8-0.4
	l0.6,0l-0.4-0.3l0.6-0.7l-0.6-0.4l0.3-1.1l-1.3-0.4l-0.5-0.6l0.4-0.5l0,0.6l0.4,0l0.5-0.7l-0.2-0.7l0.6,0l-0.2-0.7l1.8-1l-0.1-0.8
	l-1.9-2.3l-2.1-1.5l0.2-3l0,0l1,0.5l-0.3-0.8l0.7-1L41,44.1l0.1-0.9l-0.5-0.1l-0.1-0.6l0.5-0.9l0.6,0.2l0.5-0.7l0.6,0l0.3-1.2
	l0.4,0.3l0.6-0.7l1.3,0.3l0,0.5l0.4,0.2l0.1-0.4l0.4,0.6l0.9,0.1l0.1-0.5l-0.8-0.8l-0.3-1.2l0.7-1.1l-0.4-0.1l0.3-1.3L44.7,35
	l-0.6-1.1l-0.7,0l0.3-1l-0.6-0.3l0.6-0.5l-1.8-0.5l-0.4-0.9l0.5-0.5l0.3-2.5l1.5-1.1l0.4,0.5l0.1-0.4l0.6,0.1l-0.1-1.7l1,0.3
	l0.5-0.9l0.7,0l1.6-1.8L50,22l1.6-1.7l-0.5-0.6l-0.6,0.1l-0.1-0.4l0.8-0.7l-0.8-0.6l-0.1-0.7l-0.7,0.1l-0.3-0.4l1.1-1l0-0.5L49,16
	l-0.5,0.6l-0.8-0.6l0,0l0,0l0,0l0-0.1l0,0l1.2-2.3l0.6-3.2l-0.3-2.2l-0.8-0.8L48.6,7l-0.5-0.7l0.3-0.8l-0.9-0.4l-0.3-0.7l-0.8,0
	L46,3.1l-0.6-0.4L46,1.1L45.9,0L45.9,0z"/>
</svg>
